<svg width="56" height="58" viewBox="0 0 56 58" fill="none" xmlns="http://www.w3.org/2000/svg">
<g clip-path="url(#clip0)">
<path d="M50 18.4658C52.7614 18.4658 55 16.2272 55 13.4658C55 10.7044 52.7614 8.46582 50 8.46582C47.2386 8.46582 45 10.7044 45 13.4658C45 16.2272 47.2386 18.4658 50 18.4658Z" fill="white" stroke="#01497C" stroke-width="2" stroke-miterlimit="10"/>
<path d="M50 35.4658C52.7614 35.4658 55 33.2272 55 30.4658C55 27.7044 52.7614 25.4658 50 25.4658C47.2386 25.4658 45 27.7044 45 30.4658C45 33.2272 47.2386 35.4658 50 35.4658Z" fill="white" stroke="#01497C" stroke-width="2" stroke-miterlimit="10"/>
<path d="M50 52.4658C52.7614 52.4658 55 50.2272 55 47.4658C55 44.7044 52.7614 42.4658 50 42.4658C47.2386 42.4658 45 44.7044 45 47.4658C45 50.2272 47.2386 52.4658 50 52.4658Z" fill="white" stroke="#01497C" stroke-width="2" stroke-miterlimit="10"/>
<path d="M45 30.4658H32" stroke="#01497C" stroke-width="2" stroke-miterlimit="10"/>
<path d="M45 47.4658H39C38.7348 47.4658 38.4804 47.3604 38.2929 47.1729C38.1054 46.9854 38 46.731 38 46.4658V14.4658C38 14.2006 38.1054 13.9463 38.2929 13.7587C38.4804 13.5712 38.7348 13.4658 39 13.4658H45" stroke="#01497C" stroke-width="2" stroke-miterlimit="10"/>
<path d="M18 16.4658C14.25 16.4658 7 18.4658 7 22.4658V34.5458C6.98109 35.0725 7.07224 35.5974 7.26764 36.0869C7.46304 36.5764 7.7584 37.0197 8.13483 37.3886C8.51125 37.7575 8.96049 38.0439 9.45383 38.2293C9.94717 38.4148 10.4738 38.4954 11 38.4658H12V57.4658H24V38.4658H25C25.5262 38.4954 26.0528 38.4148 26.5462 38.2293C27.0395 38.0439 27.4887 37.7575 27.8652 37.3886C28.2416 37.0197 28.537 36.5764 28.7324 36.0869C28.9278 35.5974 29.0189 35.0725 29 34.5458V22.4658C29 18.4658 21.75 16.4658 18 16.4658Z" fill="#A9D6E5"/>
<path d="M12 38.4658H11C10.469 38.4869 9.93949 38.3979 9.44463 38.2044C8.94977 38.0108 8.50033 37.7169 8.12459 37.3412C7.74886 36.9655 7.45498 36.516 7.26144 36.0212C7.06789 35.5263 6.97887 34.9968 6.99999 34.4658V22.4658C6.99999 18.4658 14.25 16.4658 18 16.4658C21.75 16.4658 29 18.4658 29 22.4658V34.4658C29.0211 34.9968 28.9321 35.5263 28.7385 36.0212C28.545 36.516 28.2511 36.9655 27.8754 37.3412C27.4997 37.7169 27.0502 38.0108 26.5553 38.2044C26.0605 38.3979 25.5309 38.4869 25 38.4658H24" stroke="#01497C" stroke-width="2" stroke-miterlimit="10"/>
<path d="M18 13.466C18.6651 13.4661 19.3236 13.3336 19.9368 13.0761C20.5501 12.8186 21.1057 12.4413 21.5714 11.9664C22.037 11.4914 22.4032 10.9284 22.6485 10.3102C22.8938 9.69193 23.0133 9.03097 23 8.366V6.65601C23 5.32992 22.4732 4.05817 21.5355 3.12048C20.5979 2.1828 19.3261 1.65601 18 1.65601C16.6739 1.65601 15.4022 2.1828 14.4645 3.12048C13.5268 4.05817 13 5.32992 13 6.65601V8.366C12.9867 9.03097 13.1062 9.69193 13.3515 10.3102C13.5968 10.9284 13.963 11.4914 14.4287 11.9664C14.8943 12.4413 15.45 12.8186 16.0632 13.0761C16.6765 13.3336 17.3349 13.4661 18 13.466V13.466Z" fill="white" stroke="#01497C" stroke-width="2" stroke-miterlimit="10"/>
<path d="M24 57.4658V24.4658" stroke="#01497C" stroke-width="2" stroke-miterlimit="10"/>
<path d="M12 24.4658V57.4658" stroke="#01497C" stroke-width="2" stroke-miterlimit="10"/>
<path d="M19 37.4658V57.4658" stroke="#01497C" stroke-width="2" stroke-miterlimit="10"/>
<path d="M15 37.4658H1V48.4658H15V37.4658Z" fill="white" stroke="#01497C" stroke-width="2" stroke-miterlimit="10"/>
</g>
<defs>
<clipPath id="clip0">
<rect width="56" height="56.92" fill="white" transform="translate(0 0.545898)"/>
</clipPath>
</defs>
</svg>
