<svg width="64" height="65" viewBox="0 0 64 65" fill="none" xmlns="http://www.w3.org/2000/svg">
<g clip-path="url(#clip0)">
<path d="M47.43 54.8834C46.43 54.3534 46.17 54.0334 48 53.0634L53.49 50.1234L44.61 45.3834L30.49 38.1934L26.16 40.4333L8 50.1534L13.17 52.9134C15 53.9134 15.6 53.7433 16.59 53.2133C17.58 52.6833 17.35 50.9534 20.38 50.4734C22.3184 50.3028 24.2631 50.7211 25.96 51.6734C27.65 52.5434 28.68 53.7534 28.19 54.6734C27.31 56.3034 24.19 56.1234 23.07 56.6734C21.95 57.2234 21.81 57.5234 23.65 58.5034L30.74 62.2934L37.54 58.6534C39.37 57.6534 39.96 57.8134 40.96 58.3534C41.96 58.8934 41.72 60.6133 44.76 61.0833C46.6942 61.258 48.636 60.8432 50.33 59.8934C52.02 59.0134 53.05 57.8034 52.56 56.8934C51.67 55.2934 48.49 55.4734 47.43 54.8834Z" fill="white"/>
<path d="M26.16 40.4333L8 50.1534L13.17 52.9134C15 53.9134 15.6 53.7433 16.59 53.2133C17.58 52.6833 17.35 50.9534 20.38 50.4734C22.3184 50.3028 24.2631 50.7211 25.96 51.6734C27.65 52.5434 28.68 53.7534 28.19 54.6734C27.31 56.3034 24.19 56.1234 23.07 56.6734C21.95 57.2234 21.81 57.5234 23.65 58.5034L30.74 62.2934L37.54 58.6534C39.37 57.6534 39.96 57.8134 40.96 58.3534C41.96 58.8934 41.72 60.6133 44.76 61.0833C46.6942 61.258 48.636 60.8432 50.33 59.8934C52.02 59.0134 53.05 57.8034 52.56 56.8934C51.67 55.2734 48.56 55.4534 47.43 54.8934C46.3 54.3334 46.17 54.0434 48 53.0734L53.49 50.1334L44.61 45.3934" stroke="#01497C" stroke-width="2" stroke-linecap="round" stroke-linejoin="round"/>
<path d="M35.49 13.7534C31.74 13.7534 25.49 15.7534 25.49 19.7534V28.8334C25.4711 29.3601 25.5622 29.885 25.7576 30.3745C25.953 30.864 26.2484 31.3073 26.6248 31.6762C27.0012 32.0451 27.4505 32.3315 27.9438 32.5169C28.4372 32.7024 28.9638 32.783 29.49 32.7534H30.49V49.7534H40.49V32.7534H41.49C42.0162 32.783 42.5428 32.7024 43.0362 32.5169C43.5295 32.3315 43.9787 32.0451 44.3552 31.6762C44.7316 31.3073 45.0269 30.864 45.2223 30.3745C45.4178 29.885 45.5089 29.3601 45.49 28.8334V19.7534C45.49 15.7534 39.24 13.7534 35.49 13.7534Z" fill="#A9D6E5"/>
<path d="M30.49 32.7534H29.49C28.959 32.7745 28.4295 32.6855 27.9346 32.492C27.4398 32.2984 26.9903 32.0045 26.6146 31.6288C26.2389 31.2531 25.945 30.8036 25.7514 30.3088C25.5579 29.8139 25.4689 29.2844 25.49 28.7534V19.7534C25.49 15.7534 31.74 13.7534 35.49 13.7534C39.24 13.7534 45.49 15.7534 45.49 19.7534V28.7534C45.5111 29.2844 45.4221 29.8139 45.2285 30.3088C45.035 30.8036 44.7411 31.2531 44.3654 31.6288C43.9896 32.0045 43.5402 32.2984 43.0453 32.492C42.5505 32.6855 42.0209 32.7745 41.49 32.7534H40.49" stroke="#01497C" stroke-width="2" stroke-miterlimit="10"/>
<path d="M35.49 10.7534C36.0338 10.7354 36.5686 10.6103 37.064 10.3853C37.5594 10.1604 38.0056 9.84003 38.3771 9.44254C38.7486 9.04504 39.0381 8.57822 39.2291 8.06876C39.42 7.5593 39.5087 7.0172 39.49 6.47345V5.04346C39.49 3.98259 39.0686 2.96517 38.3184 2.21503C37.5683 1.46488 36.5509 1.04346 35.49 1.04346C34.4291 1.04346 33.4117 1.46488 32.6616 2.21503C31.9114 2.96517 31.49 3.98259 31.49 5.04346V6.47345C31.4713 7.0172 31.56 7.5593 31.7509 8.06876C31.9419 8.57822 32.2314 9.04504 32.6028 9.44254C32.9743 9.84003 33.4206 10.1604 33.916 10.3853C34.4114 10.6103 34.9462 10.7354 35.49 10.7534V10.7534Z" fill="white" stroke="#01497C" stroke-width="2" stroke-miterlimit="10"/>
<path d="M40.49 49.7534V19.7534" stroke="#01497C" stroke-width="2" stroke-miterlimit="10"/>
<path d="M30.49 19.7534V49.7534" stroke="#01497C" stroke-width="2" stroke-miterlimit="10"/>
<path d="M35.49 33.7534V49.7534" stroke="#01497C" stroke-width="2" stroke-miterlimit="10"/>
<path d="M15.49 14.7534V16.7534" stroke="#A0A0A0" stroke-width="2" stroke-miterlimit="10"/>
<path d="M15.49 18.7534V20.7534" stroke="#A0A0A0" stroke-width="2" stroke-miterlimit="10"/>
<path d="M14.49 17.7534H12.49" stroke="#A0A0A0" stroke-width="2" stroke-miterlimit="10"/>
<path d="M18.49 17.7534H16.49" stroke="#A0A0A0" stroke-width="2" stroke-miterlimit="10"/>
<path d="M19.49 8.75342L17.49 10.7534" stroke="#A0A0A0" stroke-width="2" stroke-miterlimit="10"/>
<path d="M24.49 3.75342L22.49 5.75342" stroke="#A0A0A0" stroke-width="2" stroke-miterlimit="10"/>
<path d="M22.49 8.75342L24.49 10.7534" stroke="#A0A0A0" stroke-width="2" stroke-miterlimit="10"/>
<path d="M17.49 3.75342L19.49 5.75342" stroke="#A0A0A0" stroke-width="2" stroke-miterlimit="10"/>
<path d="M54.49 31.7534V33.7534" stroke="#A0A0A0" stroke-width="2" stroke-miterlimit="10"/>
<path d="M54.49 35.7534V37.7534" stroke="#A0A0A0" stroke-width="2" stroke-miterlimit="10"/>
<path d="M53.49 34.7534H51.49" stroke="#A0A0A0" stroke-width="2" stroke-miterlimit="10"/>
<path d="M57.49 34.7534H55.49" stroke="#A0A0A0" stroke-width="2" stroke-miterlimit="10"/>
</g>
<defs>
<clipPath id="clip0">
<rect width="64" height="64" fill="white" transform="translate(0 0.00585938)"/>
</clipPath>
</defs>
</svg>
