<svg width="64" height="64" viewBox="0 0 64 64" fill="none" xmlns="http://www.w3.org/2000/svg">
<g clip-path="url(#clip0_3700_21441)">
<path d="M35.8101 11.9702H48.8101L56.8101 19.9702V50.9702C56.8101 51.5006 56.5993 52.0094 56.2243 52.3844C55.8492 52.7595 55.3405 52.9702 54.8101 52.9702H35.8101" fill="white"/>
<path d="M47.8101 11.9702V20.9702H56.8101L47.8101 11.9702Z" fill="#A9D6E5"/>
<path d="M35.8101 11.9702H48.8101L56.8101 19.9702V50.9702C56.8101 51.5006 56.5993 52.0094 56.2243 52.3844C55.8492 52.7595 55.3405 52.9702 54.8101 52.9702H35.8101" stroke="#01497C" stroke-width="2" stroke-miterlimit="10"/>
<path d="M53.8101 20.9702H47.8101V14.9702" stroke="#01497C" stroke-width="2" stroke-miterlimit="10"/>
<path d="M36 51.9702V56.9702H28V51.8202C25.872 51.3202 23.8435 50.4649 22 49.2902L18.46 52.5502L12.68 46.6302L15.68 42.8102C14.453 40.6754 13.5498 38.3703 13 35.9702H8V26.9702H13.1C13.6424 24.9208 14.4921 22.9653 15.62 21.1702L12.62 17.8002L18.4 11.9002L21.94 14.7902C23.7884 13.6472 25.8171 12.8255 27.94 12.3602V7.97021H35.94V12.9702" stroke="#01497C" stroke-width="2" stroke-miterlimit="10"/>
<path d="M35.0002 37.9702H32.9302C31.3389 37.9702 29.8128 37.3381 28.6875 36.2129C27.5623 35.0876 26.9302 33.5615 26.9302 31.9702C26.9302 30.3789 27.5623 28.8528 28.6875 27.7276C29.8128 26.6024 31.3389 25.9702 32.9302 25.9702H35.0002" stroke="#01497C" stroke-width="2" stroke-miterlimit="10"/>
<path d="M33 17.9702C29.3141 18.0566 25.8032 19.5594 23.1961 22.1664C20.5891 24.7734 19.0864 28.2844 19 31.9702C19 39.4502 25.52 44.9702 33 44.9702" stroke="#01497C" stroke-width="2" stroke-miterlimit="10"/>
</g>
<defs>
<clipPath id="clip0_3700_21441">
<rect width="50.81" height="51" fill="white" transform="translate(7 7)"/>
</clipPath>
</defs>
</svg>
