<svg width="64" height="64" viewBox="0 0 64 64" fill="none" xmlns="http://www.w3.org/2000/svg">
<g clip-path="url(#clip0_3700_21448)">
<path d="M31 50.79V55.79H23V50.64C20.872 50.1401 18.8435 49.2847 17 48.11L13.46 51.37L7.68 45.45L10.68 41.63C9.45299 39.4953 8.54981 37.1901 8 34.79H3V25.79H8.1C8.64242 23.7406 9.49205 21.7851 10.62 19.99L7.62 16.62L13.4 10.72L16.94 13.61C18.7884 12.467 20.8171 11.6454 22.94 11.18V6.79004H30.94V11.79" stroke="#01497C" stroke-width="2" stroke-miterlimit="10"/>
<path d="M30.0002 36.79H27.9302C26.3389 36.79 24.8128 36.1579 23.6875 35.0327C22.5623 33.9075 21.9302 32.3813 21.9302 30.79C21.9302 29.1987 22.5623 27.6726 23.6875 26.5474C24.8128 25.4222 26.3389 24.79 27.9302 24.79H30.0002" stroke="#01497C" stroke-width="2" stroke-miterlimit="10"/>
<path d="M28 16.79C24.3141 16.8764 20.8032 18.3792 18.1961 20.9862C15.5891 23.5932 14.0864 27.1042 14 30.79C14 38.27 20.52 43.79 28 43.79" stroke="#01497C" stroke-width="2" stroke-miterlimit="10"/>
<path d="M38.32 30.1298L35.81 27.6598L37.62 25.1598C36.8345 23.965 36.2846 22.6311 36 21.2298L33 20.7398V17.2398L36 16.7598C36.287 15.3419 36.8474 13.9935 37.65 12.7898L35.81 10.3298L38.29 7.85982L40.81 9.66982C42.0048 8.88433 43.3387 8.33445 44.74 8.0498L45.23 5.0498H48.73L49.21 8.0498C50.6118 8.33255 51.9461 8.88257 53.14 9.66982L55.64 7.85982L58.11 10.3298L56.3 12.7898C57.1023 14.0023 57.6564 15.3619 57.93 16.7898L60.93 17.2698V20.7898L57.93 21.2798C57.6461 22.683 57.0926 24.0176 56.3 25.2098L58.11 27.7098L55.64 30.1798L53.14 28.3698C51.9461 29.1571 50.6118 29.7071 49.21 29.9898L48.73 32.9898H45.23L44.74 29.9898C43.3352 29.6899 42.001 29.1229 40.81 28.3198L38.32 30.1298Z" fill="#A9D6E5" stroke="#01497C" stroke-width="2" stroke-linecap="round" stroke-linejoin="round"/>
<path d="M42.4099 58.09L39.8099 56.79L40.6099 54.34C39.6753 53.6005 38.8969 52.6828 38.3199 51.64L35.7699 52.04L34.8799 49.27L37.1699 48.1C37.0373 46.9157 37.1357 45.7168 37.4599 44.57L35.3799 43.05L36.7099 40.46L39.1499 41.25C39.896 40.3219 40.8124 39.5446 41.8499 38.96L41.4599 36.42L44.2299 35.52L45.3999 37.82C46.5836 37.6844 47.7824 37.7795 48.9299 38.1L50.4499 36.02L53.0399 37.35L52.2499 39.79C53.1799 40.5342 53.9575 41.451 54.5399 42.49L57.0799 42.09L57.9799 44.86L55.6799 46.03C55.816 47.2137 55.7209 48.4126 55.3999 49.56L57.4799 51.08L56.1499 53.67L53.6999 52.88C52.9561 53.8104 52.0392 54.5881 50.9999 55.17L51.3999 57.71L48.6199 58.61L47.4599 56.31C46.2762 56.4461 45.0773 56.3511 43.9299 56.03L42.4099 58.09Z" fill="#A9D6E5" stroke="#01497C" stroke-width="2" stroke-linecap="round" stroke-linejoin="round"/>
</g>
<defs>
<clipPath id="clip0_3700_21448">
<rect width="59.98" height="55.59" fill="white" transform="translate(2 4)"/>
</clipPath>
</defs>
</svg>
