<svg width="64" height="64" viewBox="0 0 64 64" fill="none" xmlns="http://www.w3.org/2000/svg">
<path d="M21 56L13.27 46.55C12.8731 46.0664 12.374 45.6766 11.8087 45.4086C11.2433 45.1406 10.6257 45.0011 10 45C7 45 4.88 46.84 4.35 50.65C3.89 53.94 3 61 3 61H25C29 61 29 56 29 56H21Z" fill="#A9D6E5"/>
<path d="M40.9999 58H32.9999C32.7347 58 32.4804 57.8947 32.2928 57.7071C32.1053 57.5196 31.9999 57.2652 31.9999 57C31.9999 56.7348 32.1053 56.4805 32.2928 56.2929C32.4804 56.1054 32.7347 56 32.9999 56H40.4399L47.2099 45H30.5099L24.9999 52.59C24.9226 52.6966 24.8251 52.7869 24.7128 52.8557C24.6005 52.9245 24.4757 52.9704 24.3456 52.9908C24.2156 53.0113 24.0827 53.0058 23.9548 52.9748C23.8268 52.9438 23.7062 52.8878 23.5999 52.81C23.4934 52.7327 23.4031 52.6351 23.3343 52.5229C23.2655 52.4106 23.2196 52.2858 23.1991 52.1557C23.1787 52.0257 23.1841 51.8928 23.2152 51.7648C23.2462 51.6369 23.3022 51.5163 23.3799 51.41L29.1599 43.41C29.256 43.2784 29.3827 43.1723 29.5291 43.1008C29.6755 43.0294 29.8371 42.9948 29.9999 43H48.9999C49.1771 43.0003 49.3511 43.0477 49.5039 43.1373C49.6568 43.2269 49.7831 43.3556 49.8699 43.51C49.9577 43.662 50.0039 43.8345 50.0039 44.01C50.0039 44.1856 49.9577 44.358 49.8699 44.51L41.8699 57.51C41.7806 57.6608 41.6532 57.7854 41.5005 57.8714C41.3478 57.9574 41.1752 58.0017 40.9999 58Z" fill="#01497C"/>
<path d="M50 62H12C11.7348 62 11.4804 61.8946 11.2929 61.7071C11.1054 61.5196 11 61.2652 11 61C11 60.7348 11.1054 60.4804 11.2929 60.2929C11.4804 60.1054 11.7348 60 12 60H50C50.2652 60 50.5196 60.1054 50.7071 60.2929C50.8946 60.4804 51 60.7348 51 61C51 61.2652 50.8946 61.5196 50.7071 61.7071C50.5196 61.8946 50.2652 62 50 62Z" fill="#01497C"/>
<path d="M13.4998 41C12.7677 41.0139 12.0405 40.8788 11.3623 40.6029C10.6841 40.3271 10.0691 39.9161 9.55463 39.3951C9.04018 38.8741 8.63706 38.254 8.36977 37.5723C8.10248 36.8907 7.9766 36.1618 7.99978 35.43V33.57C7.9766 32.8382 8.10248 32.1093 8.36977 31.4277C8.63706 30.746 9.04018 30.1259 9.55463 29.6049C10.0691 29.0839 10.6841 28.6729 11.3623 28.3971C12.0405 28.1212 12.7677 27.9861 13.4998 28C14.2318 27.9861 14.9591 28.1212 15.6373 28.3971C16.3155 28.6729 16.9305 29.0839 17.4449 29.6049C17.9594 30.1259 18.3625 30.746 18.6298 31.4277C18.8971 32.1093 19.023 32.8382 18.9998 33.57V35.43C19.023 36.1618 18.8971 36.8907 18.6298 37.5723C18.3625 38.254 17.9594 38.8741 17.4449 39.3951C16.9305 39.9161 16.3155 40.3271 15.6373 40.6029C14.9591 40.8788 14.2318 41.0139 13.4998 41Z" fill="white"/>
<path d="M13.5001 42C12.6364 42.0152 11.7786 41.8552 10.9784 41.5295C10.1783 41.2038 9.45257 40.7193 8.84501 40.1052C8.23745 39.4911 7.76072 38.7601 7.44362 37.9566C7.12653 37.153 6.97565 36.2935 7.00012 35.43V33.57C6.97565 32.7065 7.12653 31.847 7.44362 31.0434C7.76072 30.2399 8.23745 29.509 8.84501 28.8949C9.45257 28.2808 10.1783 27.7962 10.9784 27.4706C11.7786 27.1449 12.6364 26.9848 13.5001 27C14.3638 26.9848 15.2217 27.1449 16.0218 27.4706C16.8219 27.7962 17.5477 28.2808 18.1552 28.8949C18.7628 29.509 19.2395 30.2399 19.5566 31.0434C19.8737 31.847 20.0246 32.7065 20.0001 33.57V35.43C20.0246 36.2935 19.8737 37.153 19.5566 37.9566C19.2395 38.7601 18.7628 39.4911 18.1552 40.1052C17.5477 40.7193 16.8219 41.2038 16.0218 41.5295C15.2217 41.8552 14.3638 42.0152 13.5001 42ZM13.5001 29C12.8986 28.983 12.3 29.09 11.7416 29.3146C11.1833 29.5391 10.6772 29.8763 10.255 30.3051C9.83275 30.7339 9.50341 31.2451 9.28751 31.8069C9.0716 32.3686 8.97378 32.9688 9.00012 33.57V35.43C8.97378 36.0312 9.0716 36.6314 9.28751 37.1932C9.50341 37.7549 9.83275 38.2661 10.255 38.6949C10.6772 39.1237 11.1833 39.4609 11.7416 39.6855C12.3 39.91 12.8986 40.0171 13.5001 40C14.1017 40.0171 14.7003 39.91 15.2586 39.6855C15.817 39.4609 16.323 39.1237 16.7453 38.6949C17.1675 38.2661 17.4968 37.7549 17.7127 37.1932C17.9286 36.6314 18.0265 36.0312 18.0001 35.43V33.57C18.0265 32.9688 17.9286 32.3686 17.7127 31.8069C17.4968 31.2451 17.1675 30.7339 16.7453 30.3051C16.323 29.8763 15.817 29.5391 15.2586 29.3146C14.7003 29.09 14.1017 28.983 13.5001 29Z" fill="#01497C"/>
<path d="M25 62H16.54L10.24 54.65C10.1546 54.5502 10.0898 54.4346 10.0491 54.3097C10.0084 54.1848 9.99276 54.0531 10.003 53.9222C10.0132 53.7913 10.0491 53.6637 10.1086 53.5466C10.1682 53.4295 10.2502 53.3254 10.35 53.24C10.4498 53.1546 10.5654 53.0898 10.6903 53.0491C10.8152 53.0084 10.9469 52.9928 11.0778 53.003C11.2087 53.0132 11.3363 53.0491 11.4534 53.1086C11.5705 53.1682 11.6746 53.2502 11.76 53.35L17.46 60H25C27 60 27.69 58.19 27.9 57H20.53L12.53 47.18C12.2248 46.805 11.8387 46.5039 11.4005 46.2996C10.9623 46.0952 10.4835 45.9928 10 46C6.7 46 5.64 48.6 5.34 50.79C4.88 54.07 4 61.12 4 61.12L2 60.88C2 60.88 2.9 53.8 3.36 50.52C3.93 46.38 6.35 44 10 44C10.7659 44.006 11.5212 44.1802 12.2124 44.5103C12.9035 44.8403 13.5138 45.3182 14 45.91L21.47 55H30V56C30 58.08 29 62 25 62Z" fill="#01497C"/>
<path d="M29 4H58C58.7957 4 59.5587 4.31607 60.1213 4.87868C60.6839 5.44129 61 6.20435 61 7V29C61 30.0609 60.5786 31.0783 59.8284 31.8284C59.0783 32.5786 58.0609 33 57 33H40L35.8 38.6C35.6741 38.7679 35.4985 38.8919 35.2982 38.9545C35.0978 39.0171 34.8829 39.0151 34.6838 38.9487C34.4847 38.8823 34.3115 38.755 34.1888 38.5847C34.066 38.4144 34 38.2099 34 38V33H29C28.2044 33 27.4413 32.6839 26.8787 32.1213C26.3161 31.5587 26 30.7956 26 30V7C26 6.20435 26.3161 5.44129 26.8787 4.87868C27.4413 4.31607 28.2044 4 29 4Z" fill="white"/>
<path d="M35 40C34.7794 40.0019 34.5599 39.9681 34.35 39.9C33.9546 39.7641 33.6118 39.5078 33.3696 39.167C33.1275 38.8262 32.9982 38.4181 33 38V34H29C27.9391 34 26.9217 33.5786 26.1716 32.8284C25.4214 32.0783 25 31.0609 25 30V7C25 5.93913 25.4214 4.92172 26.1716 4.17157C26.9217 3.42143 27.9391 3 29 3H58C59.0609 3 60.0783 3.42143 60.8284 4.17157C61.5786 4.92172 62 5.93913 62 7V29C62 30.3261 61.4732 31.5979 60.5355 32.5355C59.5979 33.4732 58.3261 34 57 34H40.5L36.6 39.2C36.4137 39.4484 36.1721 39.65 35.8944 39.7889C35.6167 39.9277 35.3105 40 35 40ZM29 5C28.4696 5 27.9609 5.21071 27.5858 5.58579C27.2107 5.96086 27 6.46957 27 7V30C27 30.5304 27.2107 31.0391 27.5858 31.4142C27.9609 31.7893 28.4696 32 29 32H35V38L39.5 32H57C57.7957 32 58.5587 31.6839 59.1213 31.1213C59.6839 30.5587 60 29.7956 60 29V7C60 6.46957 59.7893 5.96086 59.4142 5.58579C59.0391 5.21071 58.5304 5 58 5H29Z" fill="#01497C"/>
<path d="M44 20C40 20 35 22.53 35 24V26C35 27.47 40 30 44 30C48 30 53 27.47 53 26V24C53 22.53 48 20 44 20Z" fill="#A9D6E5"/>
<path d="M44.0002 20.0001C44.6653 20.0002 45.3238 19.8676 45.937 19.6101C46.5503 19.3526 47.106 18.9753 47.5716 18.5004C48.0372 18.0255 48.4034 17.4624 48.6487 16.8442C48.894 16.226 49.0135 15.565 49.0002 14.9001V13.1801C49.0002 11.854 48.4734 10.5822 47.5358 9.64452C46.5981 8.70684 45.3263 8.18005 44.0002 8.18005C42.6742 8.18005 41.4024 8.70684 40.4647 9.64452C39.527 10.5822 39.0002 11.854 39.0002 13.1801V14.8901C38.9856 15.5559 39.1041 16.2179 39.3488 16.8373C39.5935 17.4567 39.9595 18.0209 40.4252 18.4969C40.891 18.9729 41.4472 19.3511 42.0611 19.6092C42.675 19.8673 43.3343 20.0002 44.0002 20.0001Z" fill="white"/>
<path d="M44.0001 21.0001C42.3964 20.9842 40.8643 20.3333 39.7397 19.1899C38.615 18.0465 37.9895 16.5038 38.0001 14.9001V13.1801C38.0001 11.5888 38.6323 10.0626 39.7575 8.93741C40.8827 7.81219 42.4088 7.18005 44.0001 7.18005C45.5914 7.18005 47.1176 7.81219 48.2428 8.93741C49.368 10.0626 50.0001 11.5888 50.0001 13.1801V14.8901C50.0135 16.4956 49.3891 18.0407 48.2642 19.1863C47.1392 20.3319 45.6056 20.9842 44.0001 21.0001ZM44.0001 9.08005C43.4683 9.08658 42.9429 9.19781 42.454 9.40739C41.9651 9.61698 41.5223 9.92081 41.1509 10.3015C40.7795 10.6823 40.4867 11.1324 40.2892 11.6263C40.0918 12.1202 39.9935 12.6482 40.0001 13.1801V14.8901C40.0001 15.9509 40.4216 16.9683 41.1717 17.7185C41.9219 18.4686 42.9393 18.8901 44.0001 18.8901C45.061 18.8901 46.0784 18.4686 46.8286 17.7185C47.5787 16.9683 48.0001 15.9509 48.0001 14.8901V13.1801C48.0067 12.6482 47.9085 12.1202 47.7111 11.6263C47.5136 11.1324 47.2208 10.6823 46.8494 10.3015C46.4779 9.92081 46.0351 9.61698 45.5462 9.40739C45.0574 9.19781 44.532 9.08658 44.0001 9.08005Z" fill="#01497C"/>
<path d="M53 27C52.7348 27 52.4804 26.8946 52.2929 26.7071C52.1054 26.5196 52 26.2652 52 26V24C51.72 23.21 47.67 21 44 21C40.33 21 36.29 23.21 36 24.07V26C36 26.2652 35.8946 26.5196 35.7071 26.7071C35.5196 26.8946 35.2652 27 35 27C34.7348 27 34.4804 26.8946 34.2929 26.7071C34.1054 26.5196 34 26.2652 34 26V24C34 21.59 39.86 19 44 19C48.14 19 54 21.59 54 24V26C54 26.2652 53.8946 26.5196 53.7071 26.7071C53.5196 26.8946 53.2652 27 53 27Z" fill="#01497C"/>
<path d="M11 15H9V17H11V15Z" fill="#01497C"/>
<path d="M11 19H9V21H11V19Z" fill="#01497C"/>
<path d="M9 17H7V19H9V17Z" fill="#01497C"/>
<path d="M13 17H11V19H13V17Z" fill="#01497C"/>
<path d="M13.2951 8.29039L11.2939 10.2915L12.7082 11.7057L14.7093 9.70461L13.2951 8.29039Z" fill="#01497C"/>
<path d="M18.2951 3.28929L16.2939 5.29041L17.7082 6.70462L19.7093 4.70351L18.2951 3.28929Z" fill="#01497C"/>
<path d="M17.7135 8.29196L16.2993 9.70618L18.3004 11.7073L19.7146 10.2931L17.7135 8.29196Z" fill="#01497C"/>
<path d="M12.7126 3.29196L11.2983 4.70618L13.2995 6.70729L14.7137 5.29308L12.7126 3.29196Z" fill="#01497C"/>
</svg>
