<svg width="64" height="64" viewBox="0 0 64 64" fill="none" xmlns="http://www.w3.org/2000/svg">
<path d="M5 18C4.20435 18 3.44129 18.3161 2.87868 18.8787C2.31607 19.4413 2 20.2044 2 21V45C2 45.7956 2.31607 46.5587 2.87868 47.1213C3.44129 47.6839 4.20435 48 5 48H9V55.11C8.99855 55.3191 9.06267 55.5233 9.18333 55.6941C9.30399 55.8648 9.47513 55.9934 9.67268 56.0618C9.87024 56.1303 10.0843 56.1351 10.2847 56.0755C10.4851 56.016 10.6618 55.8952 10.79 55.73L18.87 48H31C31.7956 48 32.5587 47.6839 33.1213 47.1213C33.6839 46.5587 34 45.7956 34 45V21C34 20.2044 33.6839 19.4413 33.1213 18.8787C32.5587 18.3161 31.7956 18 31 18H5Z" fill="white"/>
<path d="M59 7H33C32.2044 7 31.4413 7.31607 30.8787 7.87868C30.3161 8.44129 30 9.20435 30 10V34C30 34.7956 30.3161 35.5587 30.8787 36.1213C31.4413 36.6839 32.2044 37 33 37H44.13L52.21 44.73C52.3382 44.8952 52.5149 45.016 52.7153 45.0755C52.9157 45.1351 53.1298 45.1303 53.3273 45.0618C53.5249 44.9934 53.696 44.8648 53.8167 44.6941C53.9373 44.5233 54.0014 44.3191 54 44.11V37H59C59.7956 37 60.5587 36.6839 61.1213 36.1213C61.6839 35.5587 62 34.7956 62 34V10C62 9.20435 61.6839 8.44129 61.1213 7.87868C60.5587 7.31607 59.7956 7 59 7V7Z" fill="#A9D6E5" stroke="#01497C" stroke-width="2" stroke-miterlimit="10" stroke-linecap="round"/>
<path d="M26 18H5C4.20435 18 3.44129 18.3161 2.87868 18.8787C2.31607 19.4413 2 20.2044 2 21V45C2 45.7956 2.31607 46.5587 2.87868 47.1213C3.44129 47.6839 4.20435 48 5 48H9V55.11C8.99855 55.3191 9.06267 55.5233 9.18333 55.6941C9.30399 55.8648 9.47513 55.9934 9.67268 56.0618C9.87024 56.1303 10.0843 56.1351 10.2847 56.0755C10.4851 56.016 10.6618 55.8952 10.79 55.73L18.87 48H31C31.7956 48 32.5587 47.6839 33.1213 47.1213C33.6839 46.5587 34 45.7956 34 45V41" stroke="#01497C" stroke-width="2" stroke-miterlimit="10" stroke-linecap="round"/>
<path d="M49.9999 27.9998V27.0698C49.8947 23.7872 49.5605 20.5159 48.9999 17.2798C48.9219 16.6585 48.6198 16.087 48.1503 15.6727C47.6807 15.2584 47.0761 15.0298 46.4499 15.0298C45.8237 15.0298 45.2191 15.2584 44.7495 15.6727C44.28 16.087 43.9779 16.6585 43.8999 17.2798C43.3393 20.5159 43.0051 23.7872 42.8999 27.0698V27.9998" stroke="#01497C" stroke-width="2" stroke-miterlimit="10" stroke-linecap="round"/>
<path d="M43.2402 24H49.7602" stroke="#01497C" stroke-width="2" stroke-miterlimit="10"/>
<path d="M15.9001 23C15.3101 25.92 12.7101 29.75 15.7001 39.76" stroke="#01497C" stroke-width="2" stroke-linecap="round" stroke-linejoin="round"/>
<path d="M20.5201 25.7998C17.3696 27.058 13.99 27.6405 10.6001 27.5098" stroke="#01497C" stroke-width="2" stroke-linecap="round" stroke-linejoin="round"/>
<path d="M19.7998 30.5898C19.4898 33.1698 18.7998 38.4898 13.4498 41.2898C8.09981 44.0898 6.31981 37.4498 10.4498 34.2898C13.9998 31.4698 20.4698 29.6898 24.2098 32.9998C26.7098 35.2498 25.7998 39.9998 20.6398 41.6198" stroke="#01497C" stroke-width="2" stroke-linecap="round" stroke-linejoin="round"/>
</svg>
