<svg width="37" height="28" viewBox="0 0 37 28" fill="none" xmlns="http://www.w3.org/2000/svg">
<g clip-path="url(#clip0_7394_31960)">
<path d="M0.999999 3.5L1 24.5C1 25.6046 1.89543 26.5 3 26.5L34 26.5C35.1046 26.5 36 25.6046 36 24.5L36 3.5C36 2.39543 35.1046 1.5 34 1.5L3 1.5C1.89543 1.5 0.999999 2.39543 0.999999 3.5Z" fill="#A9D6E5"/>
<path d="M0.999999 3.5L1 24.5C1 25.6046 1.89543 26.5 3 26.5L34 26.5C35.1046 26.5 36 25.6046 36 24.5L36 3.5C36 2.39543 35.1046 1.5 34 1.5L3 1.5C1.89543 1.5 0.999999 2.39543 0.999999 3.5Z" stroke="#01497C" stroke-width="2" stroke-miterlimit="10"/>
<path d="M1 6.5L1 12.5L36 12.5L36 6.5L1 6.5Z" fill="white" stroke="#01497C" stroke-width="2" stroke-miterlimit="10"/>
<path d="M4 16.5L8 16.5" stroke="#01497C" stroke-width="2" stroke-miterlimit="10"/>
<path d="M10 16.5L14 16.5" stroke="#01497C" stroke-width="2" stroke-miterlimit="10"/>
</g>
<defs>
<clipPath id="clip0_7394_31960">
<rect width="37" height="27" fill="white" transform="translate(0 0.5)"/>
</clipPath>
</defs>
</svg>
