<svg width="32" height="32" viewBox="0 0 32 32" fill="none" xmlns="http://www.w3.org/2000/svg">
<path d="M16 0C15.4477 0 15 0.447715 15 1C15 1.55228 15.4477 2 16 2V0ZM29.523 12.3765C29.6659 12.91 30.2142 13.2266 30.7477 13.0836C31.2812 12.9407 31.5978 12.3924 31.4548 11.8589L29.523 12.3765ZM16 2C19.0819 2 22.0776 3.01692 24.5227 4.89305L25.7402 3.30635C22.9459 1.1622 19.5221 0 16 0V2ZM24.5227 4.89305C26.9677 6.76918 28.7253 9.39967 29.523 12.3765L31.4548 11.8589C30.5432 8.45676 28.5345 5.4505 25.7402 3.30635L24.5227 4.89305Z" fill="#01497C"/>
<path d="M4.68629 27.3139C5.07682 27.7044 5.70998 27.7044 6.10051 27.3139C6.49103 26.9233 6.49103 26.2902 6.10051 25.8996L4.68629 27.3139ZM1.12833 14.0423L2.11977 14.1728L1.12833 14.0423ZM3.52796 7.66659L4.35943 8.22216L4.35943 8.22216L3.52796 7.66659ZM9 3.87579C9.4783 3.59965 9.64217 2.98806 9.36603 2.50977C9.08989 2.03147 8.4783 1.8676 8 2.14374L9 3.87579ZM6.10051 25.8996C4.58205 24.3812 3.43325 22.5338 2.74298 20.5003L0.84912 21.1432C1.638 23.4671 2.95091 25.5785 4.68629 27.3139L6.10051 25.8996ZM2.74298 20.5003C2.05271 18.4668 1.83948 16.3018 2.11977 14.1728L0.136884 13.9117C-0.183453 16.3449 0.0602423 18.8192 0.84912 21.1432L2.74298 20.5003ZM2.11977 14.1728C2.40007 12.0437 3.16638 10.0077 4.35943 8.22216L2.69649 7.11102C1.33301 9.15162 0.457222 11.4785 0.136884 13.9117L2.11977 14.1728ZM4.35943 8.22216C5.55247 6.43664 7.14028 4.9495 9 3.87579L8 2.14374C5.8746 3.37084 4.05997 5.07043 2.69649 7.11102L4.35943 8.22216Z" fill="#01497C"/>
<path d="M31.4548 20.1411C31.5977 19.6077 31.2811 19.0593 30.7477 18.9164C30.2142 18.7735 29.6659 19.09 29.5229 19.6235L31.4548 20.1411ZM27.9003 25.1315L28.6936 25.7402L28.6936 25.7402L27.9003 25.1315ZM12.3765 29.523C11.843 29.3801 11.2947 29.6966 11.1518 30.2301C11.0088 30.7636 11.3254 31.3119 11.8589 31.4549L12.3765 29.523ZM29.5229 19.6235C29.0471 21.3994 28.2261 23.0641 27.1069 24.5227L28.6936 25.7402C29.9727 24.0733 30.911 22.1707 31.4548 20.1411L29.5229 19.6235ZM27.1069 24.5227C25.9877 25.9813 24.5922 27.2051 23 28.1244L24 29.8564C25.8196 28.8059 27.4145 27.4072 28.6936 25.7402L27.1069 24.5227ZM23 28.1244C21.4078 29.0436 19.6501 29.6403 17.8273 29.8803L18.0884 31.8632C20.1716 31.5889 22.1803 30.907 24 29.8564L23 28.1244ZM17.8273 29.8803C16.0046 30.1202 14.1524 29.9988 12.3765 29.523L11.8589 31.4549C13.8884 31.9987 16.0052 32.1374 18.0884 31.8632L17.8273 29.8803Z" fill="#01497C"/>
<circle cx="16" cy="16" r="10" fill="#A9D6E5"/>
<circle cx="16" cy="16" r="2" fill="#01497C"/>
<circle cx="31" cy="16" r="1" fill="#01497C"/>
<circle cx="12" cy="2" r="1" fill="#01497C"/>
<circle cx="8" cy="29" r="1" fill="#01497C"/>
</svg>
