<svg width="64" height="60" viewBox="0 0 64 60" fill="none" xmlns="http://www.w3.org/2000/svg">
<g clip-path="url(#clip0)">
<path d="M44.6 50.3001C40.9 52.4001 36.6 53.6001 32 53.6001C17.6 53.6001 6 42.0001 6 27.6001C6 13.2001 17.6 1.6001 32 1.6001C46.4 1.6001 58 13.2001 58 27.6001C58 34.4001 55.4 40.6001 51.1 45.2001L47.7 41.6001C51 37.8001 53 33.0001 53 27.6001C53 16.0001 43.6 6.6001 32 6.6001C20.4 6.6001 11 16.0001 11 27.6001C11 39.2001 20.4 48.6001 32 48.6001C35.3 48.6001 38.5 47.8001 41.3 46.4001L44.6 50.3001Z" fill="white"/>
<path d="M41.3 46.4001C38.5 47.8001 35.3 48.6001 32 48.6001C20.4 48.6001 11 39.2001 11 27.6001C11 16.0001 20.4 6.6001 32 6.6001C43.6 6.6001 53 16.0001 53 27.6001C53 33.0001 51 37.8001 47.7 41.6001" stroke="#2A5082" stroke-width="2" stroke-miterlimit="10" stroke-linecap="round" stroke-linejoin="round"/>
<path d="M51.1 45.2001C55.4 40.6001 58 34.4001 58 27.6001C58 13.2001 46.4 1.6001 32 1.6001C17.6 1.6001 6 13.2001 6 27.6001C6 42.0001 17.6 53.6001 32 53.6001C36.6 53.6001 40.9 52.4001 44.6 50.3001" stroke="#2A5082" stroke-width="2" stroke-miterlimit="10" stroke-linecap="round" stroke-linejoin="round"/>
<path d="M27 39.6001V36.6001C27 36.6001 28.7 36.0001 30 35.6001V26.6001L27 25.6001C27 25.6001 27 23.0001 27 22.6001H35V35.6001C36.3 36.0001 38 36.6001 38 36.6001V39.6001H27Z" fill="#A3D4FF" stroke="#2A5082" stroke-width="2" stroke-miterlimit="10"/>
<path d="M29 16.6001C29 18.3001 30.3 19.6001 32 19.6001C33.7 19.6001 35 18.3001 35 16.6001C35 14.9001 33.7 13.6001 32 13.6001C30.3 13.6001 29 14.9001 29 16.6001Z" fill="#A3D4FF" stroke="#2A5082" stroke-width="2" stroke-miterlimit="10"/>
<path d="M9.2 6.6001C4.1 12.1001 1 19.5001 1 27.6001C1 43.7001 13.2 56.9001 28.8 58.4001" stroke="#BCC0C4" stroke-width="2" stroke-miterlimit="10" stroke-linecap="round"/>
<path d="M59.6 41.8001C61.8 37.5001 63 32.7001 63 27.6001C63 19.5001 59.9 12.1001 54.8 6.6001" stroke="#BCC0C4" stroke-width="2" stroke-miterlimit="10" stroke-linecap="round"/>
</g>
<defs>
<clipPath id="clip0">
<rect width="64" height="58.8" fill="white" transform="translate(0 0.600098)"/>
</clipPath>
</defs>
</svg>
