<svg width="86" height="108" viewBox="0 0 86 108" fill="none" xmlns="http://www.w3.org/2000/svg">
<path fill-rule="evenodd" clip-rule="evenodd" d="M38.5574 13.3291C39.0693 13.3291 39.7517 13.3291 40.0929 13.5C39.7517 13.1582 39.0693 12.8165 38.2162 12.6456C38.2162 12.8165 38.3868 13.1582 38.5574 13.3291ZM34.2922 19.1393C34.6334 19.1393 34.8041 19.1393 35.1453 19.1393C35.3159 19.1393 35.6571 19.1393 36.1689 19.1393C36.6807 19.1393 37.022 18.9684 37.5338 18.7975C37.875 18.6266 38.2162 18.4557 38.5574 18.4557C38.8986 18.4557 39.2399 18.4557 39.4105 18.6266C39.7517 18.7975 39.9223 18.7975 40.0929 19.1393C40.6047 19.6519 40.9459 19.9937 41.1166 20.5063C41.2872 21.019 41.2872 21.5317 41.2872 22.3861C41.2872 24.4367 41.1166 25.462 40.7753 26.1456C40.4341 26.8291 40.0929 26.8291 39.7517 27C39.7517 27 37.3632 27.1709 36.1689 27C35.9983 27 35.8277 27 35.4865 26.8291C35.3159 26.8291 35.1453 26.8291 34.9747 26.6582C34.6334 26.6582 34.4628 26.4874 34.1216 26.4874C33.951 26.4874 33.7804 26.3165 33.4392 26.1456C33.4392 26.1456 33.2686 25.9747 33.098 25.9747C32.9274 25.8038 32.5861 25.6329 32.5861 25.6329L32.7568 25.8038C32.7568 25.9747 32.7568 26.3165 32.7568 26.4874C32.5861 27.6836 32.2449 28.3671 31.9037 28.8798C32.0743 28.8798 32.4155 28.8798 32.5861 28.8798C33.7804 28.7089 34.8041 28.7089 35.4865 28.7089C35.6571 28.7089 35.8277 28.7089 36.1689 28.7089C36.3395 28.7089 36.5101 28.7089 36.6807 28.7089C36.8514 28.7089 37.022 28.7089 37.3632 28.8798C38.2162 29.0506 39.0693 29.2215 39.7517 29.5633C40.0929 29.5633 40.9459 29.5633 41.799 29.3924C42.3108 29.3924 42.9932 29.3924 43.3345 29.3924C43.5051 29.2215 43.8463 29.0506 44.0169 28.8798C44.1875 28.7089 44.5287 28.3671 44.6993 28.1962C45.723 26.8291 46.576 24.7785 46.0642 23.0696L46.576 22.8987C46.9172 24.7785 46.2348 26.8291 45.0405 28.3671C44.8699 28.7089 44.5287 28.8798 44.3581 29.0506C44.1875 29.2215 44.0169 29.2215 44.0169 29.3924C44.1875 29.3924 44.1875 29.3924 44.3581 29.5633C45.3818 29.9051 46.9172 30.4177 47.7703 32.2975C48.1115 32.4684 48.9645 32.981 49.1351 33.8355C49.3057 33.8355 49.3057 33.8355 49.4763 34.0063C49.9882 34.3481 50.6706 34.6899 51.1824 35.0317C51.5236 32.2975 48.7939 30.4177 48.7939 30.4177L48.1115 29.9051H48.9645C50.1588 29.9051 50.8412 29.9051 51.353 29.5633C51.8649 29.3924 52.2061 29.0506 52.5473 28.7089C53.2297 28.0253 53.5709 27.1709 53.5709 26.6582C49.4763 26.4874 49.4763 23.9241 49.4763 23.9241V23.5823H49.8176C52.3767 23.9241 53.4003 22.0443 53.7416 21.3608C53.2297 21.3608 52.7179 21.1899 52.3767 21.019C51.8649 20.8481 51.5236 20.5063 51.1824 20.1646C50.6706 19.481 50.6706 18.4557 50.6706 17.2595C50.6706 16.9177 50.6706 16.576 50.6706 16.2342H50.8412V16.0633C51.0118 16.0633 51.1824 16.0633 51.353 16.0633C51.353 15.8924 51.5236 15.7215 51.5236 15.7215C51.8649 15.3798 52.2061 14.8671 52.2061 12.9874C52.2061 11.7912 52.0355 10.9367 51.8649 10.5949C51.0118 10.9367 50.3294 11.2785 49.8176 11.7912C49.3057 12.3038 49.1351 12.8165 49.1351 13.6709C48.9645 14.5253 49.1351 15.7215 49.1351 15.7215V16.0633H48.7939C48.2821 16.0633 47.9409 16.0633 47.4291 15.8924C47.0878 15.7215 46.7466 15.5506 46.4054 15.038L46.7466 14.6962C47.0878 15.038 47.2584 15.2089 47.5997 15.3798C47.7703 15.3798 48.1115 15.3798 48.4527 15.3798C48.4527 15.038 48.4527 14.1836 48.4527 13.5C48.6233 12.6456 48.7939 11.962 49.3057 11.4494C49.647 11.1076 50.1588 10.7658 50.8412 10.4241C50.3294 10.4241 49.8176 10.2532 49.1351 10.2532C48.2821 10.2532 47.7703 10.4241 47.2584 10.5949C46.7466 10.7658 46.4054 11.1076 46.2348 11.6203C46.0642 11.962 45.723 12.4747 45.723 13.1582C45.723 13.3291 45.723 13.3291 45.723 13.5C45.723 13.6709 45.723 13.6709 45.723 13.8418L45.3818 14.0127C45.3818 13.8418 45.3818 13.8418 45.2111 13.6709C45.2111 13.5 45.2111 13.3291 45.2111 13.3291C45.2111 12.6456 45.3818 11.962 45.723 11.6203C45.8936 11.2785 46.2348 10.9367 46.576 10.7658C46.2348 10.7658 45.8936 10.7658 45.3818 10.7658C44.6993 10.7658 44.0169 10.7658 43.1638 10.7658C41.9696 10.7658 40.0929 10.9367 38.728 10.9367C38.3868 10.9367 38.2162 10.9367 37.875 10.9367C37.7044 10.9367 37.3632 10.9367 37.1926 10.9367C37.1926 11.2785 37.022 11.6203 37.022 11.6203H36.8514V11.7912C36.6807 11.7912 36.5101 11.7912 36.1689 11.7912C35.4865 11.7912 34.8041 11.962 34.2922 12.1329C33.7804 12.3038 33.4392 12.6456 33.2686 13.1582C33.2686 13.3291 33.2686 13.3291 33.2686 13.5C33.2686 13.8418 33.4392 14.1836 33.6098 14.1836C33.951 14.1836 34.1216 14.0127 34.4628 14.0127C34.8041 13.6709 34.9747 13.5 35.4865 13.6709V14.1836C35.1453 14.1836 34.8041 14.1836 34.6334 14.3544C34.4628 14.3544 34.1216 14.5253 33.6098 14.6962C32.9274 14.8671 32.5861 15.038 32.4155 15.3798C32.2449 15.7215 32.0743 16.2342 32.0743 17.0886C32.0743 17.943 32.2449 18.6266 32.5861 18.9684C32.9274 19.1393 33.4392 19.1393 34.2922 19.1393ZM37.7044 12.3038C37.7044 12.3038 37.875 11.6203 38.2162 11.4494L38.5574 11.7912C38.3868 11.962 38.3868 11.962 38.2162 12.1329C40.2635 12.3038 40.9459 13.6709 40.9459 13.6709L41.2872 14.1836L40.7753 14.0127C40.4341 14.0127 39.4105 13.8418 38.5574 13.8418C38.3868 13.8418 38.2162 13.8418 38.2162 13.8418C38.0456 13.8418 38.0456 13.8418 37.875 13.8418L37.7044 13.3291C37.875 13.3291 37.875 13.3291 38.0456 13.3291C37.875 13.1582 37.875 12.8165 37.875 12.6456V12.4747H37.7044V12.3038ZM9.55405 15.3798C10.0659 15.3798 11.0895 15.038 11.6014 14.1836C11.4307 13.6709 10.4071 11.962 7.67736 12.8165C8.3598 13.1582 9.38345 14.0127 9.55405 15.3798ZM17.2314 16.7468C17.5726 16.9177 17.9139 16.9177 18.5963 16.9177C18.7669 16.576 18.7669 15.8924 18.5963 15.038C18.5963 14.6962 18.4257 14.3544 18.0845 14.0127C17.7432 13.6709 17.402 13.5 16.7196 13.3291C16.8902 14.0127 17.2314 15.2089 16.549 16.4051C16.7196 16.576 17.0608 16.7468 17.2314 16.7468ZM24.7382 20.8481C25.0794 21.3608 25.4206 21.7025 25.9324 22.0443C26.7855 22.557 27.8091 22.7279 29.0034 22.8987C30.027 23.0696 31.2213 23.0696 32.4155 23.0696C32.7568 23.0696 33.098 23.0696 33.4392 23.0696C34.6334 23.0696 35.9983 22.8987 37.3632 23.7532C39.0693 24.6076 39.5811 25.8038 39.5811 26.3165C39.7517 26.3165 39.9223 26.1456 40.0929 25.8038C40.2635 25.462 40.4341 24.7785 40.6047 23.5823C40.0929 23.5823 39.2399 23.5823 38.728 23.0696L38.3868 22.8987C37.7044 22.3861 37.1926 22.0443 35.9983 22.0443C35.3159 22.0443 34.9747 22.2152 34.8041 22.2152C34.6334 22.3861 34.2922 22.557 33.4392 22.557C32.9274 22.557 32.4155 22.557 31.9037 22.557C31.3919 22.557 30.8801 22.3861 30.5388 22.3861C29.6858 22.2152 28.8328 21.7025 28.1503 21.1899C27.9797 21.019 27.9797 21.019 27.8091 20.8481C27.6385 20.6772 27.6385 20.6772 27.4679 20.5063C26.9561 19.9937 26.7855 19.1393 26.7855 18.2848C26.7855 18.1139 26.7855 17.943 26.7855 17.7722C26.7855 17.6013 26.7855 17.4304 26.9561 17.2595C27.1267 16.7468 27.4679 16.2342 27.6385 15.8924C27.6385 15.8924 27.6385 15.8924 27.4679 15.8924C26.6149 15.8924 25.7618 16.2342 25.0794 16.7468C24.397 17.2595 23.8851 17.943 23.7145 18.7975C23.7145 18.9684 23.7145 18.9684 23.7145 19.1393C24.2264 19.8228 24.397 20.3355 24.7382 20.8481ZM3.75338 22.0443C3.58277 22.7279 3.75338 23.4114 4.09459 24.2658C4.2652 24.6076 4.43581 24.9494 4.77703 25.1203C5.11824 25.2912 5.45946 25.6329 5.80068 25.6329C6.65372 25.8038 7.67736 25.8038 8.87162 25.1203L9.04223 25.6329C8.01858 26.1456 7.16554 26.3165 6.3125 26.3165C6.14189 26.6582 5.97128 27 5.97128 27.5127C5.97128 27.8544 5.97128 28.3671 6.14189 28.7089C6.48311 28.8798 7.50676 29.2215 7.33615 31.2722C7.33615 31.2722 7.33615 31.2722 7.50676 31.2722C7.50676 31.2722 7.67736 31.443 7.84797 31.443C8.01858 31.443 8.01858 31.6139 8.18919 31.6139C8.70101 31.7848 9.55405 31.9557 10.0659 31.9557C10.4071 31.9557 10.5777 31.9557 10.9189 31.7848C11.772 31.6139 12.2838 31.1013 12.7956 30.5886C13.3074 30.076 13.478 29.3924 13.6486 29.0506C13.6486 28.8798 13.6486 28.7089 13.6486 28.538C13.6486 28.3671 13.6486 28.1962 13.6486 28.1962V28.0253V27.8544C13.6486 27.6836 13.478 27.3418 13.478 27.3418L13.6486 27C13.8193 27.1709 13.8193 27.3418 13.9899 27.6836V27.8544V28.0253C13.9899 28.1962 13.9899 28.3671 13.9899 28.538C13.9899 28.7089 13.9899 28.8798 13.9899 29.0506C13.8193 29.3924 13.6486 29.9051 13.3074 30.2468C13.6486 30.4177 14.3311 30.7595 15.0135 31.1013C16.8902 31.9557 19.4493 33.1519 20.1318 34.6899C20.1318 34.6899 20.3024 34.6899 20.3024 34.519C20.473 34.3481 20.6436 34.3481 20.8142 34.3481C20.8142 34.3481 20.8142 34.3481 20.9848 34.3481C20.473 33.4937 20.3024 32.4684 20.3024 31.7848C19.1081 31.4431 17.5726 30.5886 16.549 29.7342C16.3784 29.5633 16.0372 29.3924 15.8666 29.2215C15.6959 29.0506 15.5253 28.8798 15.3547 28.7089L15.6959 28.3671C15.8666 28.538 16.0372 28.7089 16.2078 28.8798C16.3784 29.0506 16.549 29.2215 16.8902 29.3924C17.9139 30.2468 19.2787 31.1013 20.473 31.2722V31.1013V30.9304H20.6436C21.8378 30.9304 23.0321 30.9304 24.2264 30.9304C23.8851 30.5886 23.7145 30.2468 23.5439 29.9051C23.3733 29.3924 23.3733 28.7089 23.5439 28.0253V27.6836L23.8851 27.8544C23.8851 27.8544 24.9088 28.3671 26.4443 28.538C25.9324 28.3671 25.4206 28.1962 25.0794 27.8544C24.7382 27.6836 24.397 27.5127 24.0557 27.3418C23.7145 27.1709 23.3733 27 23.0321 26.8291C21.6672 25.9747 20.1318 25.1203 18.9375 24.0949C18.7669 23.9241 18.4257 23.7532 18.2551 23.5823C18.0845 23.4114 17.9139 23.2405 17.7432 23.0696L17.5726 22.8987L17.9139 22.7279C18.5963 22.2152 19.1081 21.8734 19.4493 21.3608C19.7905 20.8481 19.9611 20.3355 19.9611 19.481C19.9611 18.7975 19.7905 18.2848 19.4493 17.7722L19.2787 17.6013C19.2787 17.6013 19.1081 17.4304 18.9375 17.4304C18.9375 17.4304 18.7669 17.4304 18.7669 17.2595C18.0845 17.2595 17.5726 17.0886 17.2314 16.9177C16.8902 17.0886 16.7196 17.0886 16.3784 16.9177C16.3784 17.0886 16.3784 17.2595 16.3784 17.4304C16.3784 18.1139 16.3784 19.1393 15.8666 20.8481L15.3547 20.6772C15.8666 19.1393 15.8666 18.1139 15.8666 17.4304C15.8666 17.0886 15.8666 16.7468 15.8666 16.4051C15.6959 15.8924 15.1841 15.3798 14.5017 14.8671C13.9899 14.5253 13.1368 14.1836 11.9426 14.3544C11.2601 15.5506 9.72466 15.7215 9.38345 15.8924C9.04223 16.0633 8.70101 16.4051 8.53041 16.7468C8.53041 17.0886 8.53041 17.4304 8.53041 18.1139C8.70101 18.1139 8.87162 18.2848 9.04223 18.2848C9.38345 18.2848 9.72466 18.6266 10.2365 18.9684C10.5777 19.3101 10.9189 19.8228 11.4307 20.5063L11.0895 20.8481C10.5777 20.1646 10.2365 19.6519 9.89527 19.3101C9.55405 18.9684 9.38345 18.7975 9.04223 18.7975C8.70101 18.7975 8.53041 18.6266 8.18919 18.6266C7.67736 18.4557 7.33615 18.4557 6.65372 18.2848C6.3125 18.2848 5.97128 18.2848 5.63007 18.4557C5.28885 18.6266 5.11824 18.9684 4.77703 19.3101C5.11824 21.019 4.09459 21.8734 3.75338 22.0443ZM47.9409 9.91141V8.7152C47.7703 8.7152 47.2584 8.54432 46.9172 8.37343C46.0642 8.20254 45.2111 8.20254 44.1875 8.20254C43.6757 8.20254 43.3345 8.20254 42.652 8.20254C42.3108 8.20254 41.9696 8.20254 41.6284 8.20254C40.0929 8.20254 38.5574 8.20254 37.5338 8.54432H37.3632C37.3632 8.88609 37.3632 9.56963 37.3632 10.0823C37.5338 10.0823 37.7044 10.0823 38.0456 10.0823C38.2162 10.0823 38.5574 10.0823 38.8986 10.0823C40.2635 10.0823 42.1402 9.91141 43.3345 9.91141C44.3581 9.91141 45.0405 9.91141 45.723 9.91141C46.4054 9.91141 46.9172 9.91141 47.5997 10.0823C47.5997 10.0823 47.7703 9.91141 47.9409 9.91141ZM39.2399 5.12659C39.2399 5.63925 39.4105 5.98103 39.5811 6.49368C39.7517 7.00634 39.9223 7.34811 40.0929 7.86077C40.6047 7.86077 41.1166 7.86077 41.6284 7.86077C41.9696 7.86077 42.3108 7.86077 42.652 7.86077V4.44305C42.1402 4.27216 40.9459 4.10128 40.6047 4.10128L40.4341 4.27216C40.2635 4.27216 40.0929 4.44305 40.0929 4.44305C39.5811 4.61394 39.2399 4.78482 39.2399 5.12659ZM42.3108 2.5633C42.3108 2.90508 42.1402 3.24685 42.1402 3.41773C42.1402 3.58862 42.1402 3.75951 41.9696 3.75951C41.9696 3.75951 43.5051 3.75951 43.6757 3.75951C43.6757 3.41773 43.5051 2.5633 43.5051 2.5633C43.6757 2.5633 44.5287 2.73419 44.8699 2.73419V1.3671C44.5287 1.3671 43.5051 1.53799 43.5051 1.53799C43.5051 1.3671 43.6757 0.341785 43.6757 0.170898H41.9696C41.9696 0.512671 42.1402 1.53799 42.1402 1.53799H41.9696C41.4578 1.53799 40.7753 1.3671 40.6047 1.3671C40.6047 1.70887 40.6047 2.5633 40.6047 2.90508L42.3108 2.5633ZM37.3632 8.20254C38.0456 8.03166 38.728 8.03166 39.5811 7.86077C39.5811 7.34811 39.4105 7.00634 39.2399 6.66457C39.0693 6.15191 38.728 5.63925 38.728 5.12659C38.728 4.44305 39.2399 4.27216 39.7517 3.93039C39.9223 3.93039 39.9223 3.75951 40.0929 3.75951C39.9223 3.75951 39.7517 3.58862 39.5811 3.58862C39.4105 3.58862 39.4105 3.58862 39.4105 3.58862H39.2399C39.0693 3.58862 38.8986 3.58862 38.728 3.58862C38.0456 3.58862 37.3632 3.93039 37.022 4.27216C37.022 4.44305 36.8514 4.44305 36.8514 4.61394C36.8514 4.78482 36.6807 4.95571 36.6807 4.95571C36.6807 5.12659 36.6807 5.12659 36.6807 5.29748C36.5101 6.66457 37.022 7.68989 37.3632 8.20254C37.3632 8.20254 37.1926 8.20254 37.3632 8.20254ZM45.723 7.86077C45.723 7.34811 45.8936 6.83546 46.0642 6.3228C46.2348 5.81014 46.4054 5.46837 46.4054 4.78482C46.4054 4.61394 46.0642 4.27216 45.5524 4.10128C45.2111 3.93039 45.0405 3.75951 44.8699 3.58862H44.6993C44.1875 3.75951 43.6757 3.93039 42.9932 4.10128V7.519C43.3345 7.519 43.6757 7.519 43.8463 7.519C44.6993 7.86077 45.2111 7.68989 45.723 7.86077ZM46.9172 4.78482C46.9172 5.46837 46.7466 5.98103 46.576 6.49368C46.4054 6.83546 46.2348 7.34811 46.2348 7.86077C46.576 7.86077 46.7466 7.86077 47.0878 8.03166C47.4291 8.03166 47.9409 8.20254 48.1115 8.37343C48.4527 8.03166 49.1351 6.66457 49.1351 5.46837C49.1351 5.12659 49.1351 4.95571 48.9645 4.78482C48.7939 4.44305 48.6233 4.10128 48.2821 3.93039C48.1115 3.58862 47.7703 3.41773 47.4291 3.24685C47.2584 3.24685 47.0878 3.24685 46.9172 3.24685C46.4054 3.24685 45.8936 3.41773 45.3818 3.58862C45.5524 3.58862 45.723 3.75951 45.723 3.75951C46.4054 4.10128 46.9172 4.27216 46.9172 4.78482ZM6.3125 96.5506C5.80068 96.7215 5.45946 96.8924 5.28885 97.0633C4.2652 97.7468 4.60642 98.9431 4.77703 99.4557C5.11824 99.2848 5.63007 99.1139 6.14189 98.9431C6.65372 98.9431 7.33615 98.9431 8.01858 99.1139C8.70101 97.7469 8.18919 96.7215 8.18919 96.5506C7.33615 96.3798 6.82432 96.3798 6.3125 96.5506ZM51.5236 93.3038C52.5473 93.1329 53.4003 93.4747 53.5709 93.8165C53.7416 93.6456 54.2534 93.1329 54.2534 92.2785C54.2534 91.7658 54.0828 91.595 54.0828 91.4241C53.7416 91.4241 53.4003 91.4241 53.0591 91.4241C52.2061 91.4241 51.5236 91.7658 51.0118 92.1076C50.5 92.4494 50.1588 92.962 50.1588 93.4747V93.6456C50.3294 93.4747 51.0118 93.4747 51.5236 93.3038ZM50.5 99.9684C50.1588 100.652 50.1588 101.506 50.1588 102.019C50.6706 101.677 51.8649 100.994 52.7179 100.994C53.0591 100.994 53.4003 101.165 53.7416 101.165C53.9122 100.652 54.0828 99.4557 53.0591 98.4304C52.7179 98.4304 51.1824 98.7722 50.5 99.9684ZM58.348 104.07C58.0068 103.728 57.6655 103.728 57.4949 103.728C57.3243 103.728 57.3243 103.728 57.3243 103.728C57.1537 103.728 56.8125 104.07 56.4713 104.582C56.4713 104.753 56.3007 104.753 56.3007 104.924C56.3007 105.095 56.1301 105.095 56.1301 105.266C55.9595 105.778 55.7889 106.12 55.7889 106.633C55.7889 106.975 55.9595 107.487 56.1301 107.829C56.4713 107.487 57.1537 106.804 57.8361 106.462C58.348 106.291 59.0304 106.12 59.3716 106.12C59.3716 105.778 59.3716 105.437 59.3716 105.266C58.8598 104.753 58.5186 104.411 58.348 104.07ZM42.8226 90.057C41.4578 89.2025 39.0693 88.1772 39.0693 88.1772L38.728 88.0063L38.8986 87.8355C39.0693 87.6646 39.0693 87.4937 39.2399 87.3228C39.7517 86.6393 40.4341 85.7848 40.4341 84.5886C40.4341 84.076 40.4341 83.7342 40.0929 83.3924C39.9223 83.0506 39.4105 82.7089 38.8986 82.3671C38.3868 82.0253 37.7044 81.8544 37.022 81.6836C36.3395 81.5127 35.4865 81.5127 34.6334 81.5127C32.9274 81.5127 31.5625 80.6582 30.7095 79.462C30.5389 79.2912 30.3682 78.9494 30.1976 78.6076C30.027 78.2658 30.027 78.095 30.027 77.7532C30.027 77.5823 30.027 77.4114 30.027 77.2405C30.027 76.0443 30.1976 75.019 31.0507 74.1646C31.9037 73.3101 33.4392 72.6266 35.9983 72.1139C36.6807 71.9431 37.875 72.1139 38.728 72.1139C38.8986 72.1139 39.2399 72.1139 39.4105 72.1139C38.728 71.4304 38.0456 70.576 37.7044 69.8924C37.5338 69.7215 37.5338 69.3798 37.3632 69.2089C37.3632 69.038 37.1926 68.6962 37.1926 68.5253C37.1926 68.3544 37.1926 68.1836 37.1926 68.0127C37.1926 67.1582 37.3632 66.4747 37.5338 65.7912C37.5338 65.6203 37.5338 65.4494 37.7044 65.4494C37.7044 65.2785 37.875 65.1076 37.875 65.1076C37.875 64.9367 38.0456 64.9367 38.0456 64.7658C38.2162 64.4241 38.728 64.0823 38.8986 63.7405C39.2399 63.3987 39.4105 63.2279 39.4105 63.2279C39.4105 63.2279 39.4105 63.2279 39.4105 63.057C38.728 62.8861 38.0456 62.7152 37.022 62.7152C35.9983 62.7152 34.8041 62.7152 33.4392 63.057C32.7568 63.2279 32.0743 63.2279 31.2213 63.2279C30.3682 63.2279 29.5152 63.2279 28.8328 63.3987C27.6385 63.5696 26.6149 63.9114 25.5912 64.0823C24.5676 64.4241 23.7145 64.7658 22.6909 65.1076C20.6436 66.1329 19.2787 66.9874 18.2551 68.1836C17.2314 69.2089 16.7196 70.4051 16.0372 71.6013C16.0372 71.7722 15.8666 71.9431 15.6959 72.1139C15.5253 72.2848 15.3547 72.4557 15.1841 72.6266C14.1605 73.481 11.9426 74.6772 9.38345 75.1899C8.53041 75.019 7.67736 75.1899 6.99493 75.019C6.48311 75.019 5.97128 74.6772 5.45946 74.3355C5.45946 75.3608 5.97128 77.7532 8.87162 79.2912C9.21284 79.462 9.55405 79.6329 9.89527 79.8038C10.2365 79.9747 10.5777 79.9747 10.9189 80.1456C12.7956 80.4874 14.8429 79.9747 16.7196 78.9494L17.0608 78.7785V79.1203C17.0608 79.1203 17.402 80.6582 18.0845 81.3418C19.4493 82.7089 20.6436 83.9051 22.1791 84.7595C23.7145 85.6139 25.5912 86.2975 28.3209 86.4684H28.4916V86.6393C28.4916 86.6393 28.4916 88.519 25.9324 91.4241C25.7618 91.595 25.7618 91.595 25.5912 91.7658C25.4206 91.9367 25.25 92.1076 24.9088 92.2785C24.7382 92.4494 24.397 92.6203 24.2264 92.7912C23.0321 93.4747 21.6672 93.9874 20.473 93.9874C19.7905 93.9874 19.2787 93.8165 18.7669 93.4747C18.4257 93.1329 18.0845 92.4494 17.9139 91.4241C17.7432 90.5696 17.5726 90.057 17.2314 89.7152C16.8902 89.3734 16.2078 89.2025 15.3547 89.0317C15.1841 89.0317 15.1841 89.0317 15.0135 89.0317C14.8429 89.0317 14.8429 89.0317 14.6723 89.0317C14.1605 89.0317 13.8193 89.2025 13.6486 89.5443C13.478 89.8861 12.7956 91.4241 10.9189 91.7658C10.5777 92.1076 10.4071 92.2785 10.2365 92.6203C10.0659 92.7912 10.0659 93.1329 10.0659 93.4747C10.7483 93.3038 11.2601 93.4747 11.772 93.6456C12.625 93.8165 13.3074 94.3291 14.1605 95.3544V95.6962C13.3074 94.8418 12.625 94.3291 11.9426 94.1582C11.2601 93.9874 10.5777 93.9874 9.72466 94.1582C8.18919 94.5 8.3598 96.038 8.3598 96.2089C8.53041 96.3798 9.21284 97.576 8.18919 99.4557C8.18919 99.9684 8.3598 100.652 8.53041 101.165C8.87162 101.677 9.21284 102.19 9.55405 102.19L9.72466 102.019C9.72466 102.019 9.72466 101.677 9.89527 101.335C10.0659 100.31 10.0659 98.9431 11.2601 97.9177C11.4307 97.7468 11.6014 97.7468 11.772 97.576C11.9426 97.4051 12.1132 97.4051 12.4544 97.4051C13.6486 97.0633 15.0135 97.0633 16.2078 97.576L16.0372 98.0886C14.8429 97.576 13.6486 97.576 12.625 97.9177C12.4544 97.9177 12.2838 98.0886 12.1132 98.0886C11.9426 98.0886 11.772 98.2595 11.6014 98.4304C10.5777 99.2848 10.4071 100.652 10.4071 101.506C10.4071 101.848 10.4071 102.19 10.2365 102.361L10.4071 102.532C10.5777 102.532 10.5777 102.361 10.7483 102.361C11.0895 102.19 11.2601 102.019 11.6014 102.019C11.772 102.019 11.9426 102.019 12.1132 102.19C12.2838 102.361 12.625 102.532 12.7956 102.703C12.9662 102.873 13.1368 103.215 13.3074 103.557C13.3074 103.728 13.478 104.07 13.478 104.411C13.478 104.582 13.478 104.753 13.478 104.924V105.095C13.478 105.266 13.478 105.266 13.478 105.437C13.478 105.608 13.478 105.608 13.3074 105.608C13.3074 105.778 13.478 105.778 13.6486 105.949L13.8193 106.12C14.5017 106.462 15.3547 106.804 16.2078 106.804C16.3784 106.804 16.549 106.804 16.7196 106.804C16.8902 106.804 17.0608 106.804 17.2314 106.633C17.402 106.633 17.5726 106.462 17.7432 106.462C18.4257 106.12 19.1081 105.437 19.6199 104.582C19.2787 104.07 19.1081 103.557 19.1081 103.044C19.1081 102.873 19.1081 102.703 19.1081 102.532C19.1081 102.361 19.1081 102.361 19.1081 102.19C19.1081 102.019 19.1081 102.019 19.2787 101.848C19.4493 101.335 19.6199 100.823 19.9611 100.652L20.3024 100.994C20.1318 101.335 19.7905 101.677 19.7905 102.019C19.7905 102.19 19.7905 102.19 19.6199 102.361C19.6199 102.532 19.6199 102.532 19.6199 102.703C19.6199 102.873 19.6199 103.044 19.6199 103.044C19.6199 103.557 19.7905 103.899 19.9611 104.411C20.3024 104.924 20.9848 105.437 22.0084 105.949C22.8615 106.462 23.7145 106.291 24.397 105.949C24.397 105.778 24.397 105.778 24.397 105.608C24.5676 105.266 24.7382 104.753 25.0794 104.411C25.4206 104.07 25.9324 103.899 26.6149 103.899C26.7855 103.899 27.1267 103.899 27.4679 104.07C27.6385 103.728 27.9797 103.386 28.1503 102.873C28.1503 102.703 28.1503 102.703 28.3209 102.532C28.3209 102.361 28.3209 102.361 28.3209 102.19C28.3209 102.019 28.3209 101.848 28.3209 101.848C28.3209 101.335 28.1503 100.823 27.8091 100.481C27.4679 100.139 27.1267 99.7975 26.9561 99.6266C26.6149 99.2848 25.0794 98.7722 25.0794 98.7722L24.5676 98.6013L24.9088 98.2595C25.9324 97.576 26.9561 97.4051 27.9797 97.576C29.0034 97.576 30.027 97.9177 31.0507 98.4304C31.3919 98.0886 32.4155 97.2342 33.4392 95.6962L33.6098 95.5253H33.7804C33.7804 95.5253 38.0456 96.3798 38.3868 99.4557C38.8986 99.4557 40.0929 99.4557 41.2872 97.9177C41.799 97.4051 41.799 96.038 41.6284 95.1836C41.6284 95.0127 41.6284 94.8418 41.6284 94.8418C41.6284 94.6709 41.6284 94.6709 41.6284 94.6709C41.1166 93.8165 39.9223 92.962 38.5574 92.4494C38.3868 92.2785 38.0456 92.2785 37.875 92.1076C37.7044 92.1076 37.3632 91.9367 37.1926 91.9367L37.3632 91.4241C37.5338 91.4241 37.875 91.5949 38.0456 91.5949C38.2162 91.5949 38.5574 91.7658 38.8986 91.9367C40.2635 92.4494 41.6284 93.4747 42.1402 94.3291C42.1402 94.3291 42.1402 94.5 42.3108 94.6709V94.8418C42.8226 94.6709 43.1639 94.5 43.5051 94.1582C43.8463 93.8165 44.0169 93.3038 44.0169 92.7912C44.0169 92.1076 44.0169 91.4241 43.8463 90.9114C43.5051 90.5696 43.3345 90.2279 42.8226 90.057ZM79.1622 96.5506C78.4797 96.2089 76.7736 96.038 76.2618 96.038C76.0912 96.3798 75.9206 97.2342 75.9206 98.0886C75.9206 98.2595 75.9206 98.4304 75.9206 98.4304V98.6013C75.9206 98.7722 76.0912 98.7722 76.0912 98.9431L76.2618 99.1139C76.603 98.9431 77.1149 98.6013 77.9679 98.6013C78.8209 98.6013 79.5034 98.7722 79.8446 99.1139C80.1858 98.6013 80.1858 97.2342 79.1622 96.5506ZM80.0152 73.6519C79.5034 73.6519 78.9916 73.8228 78.3091 73.8228C75.2382 74.3355 74.5557 75.7025 74.5557 75.7025L74.0439 76.557V75.5317C74.0439 74.3355 73.5321 72.9684 72.5084 72.1139C72.3378 71.9431 71.9966 71.7722 71.826 71.7722C71.6554 71.6013 71.3142 71.6013 70.973 71.6013C70.8024 71.6013 70.6318 71.6013 70.4611 71.6013C69.9493 71.6013 69.0963 71.9431 68.2432 72.4557C68.0726 72.6266 67.902 72.7975 67.7314 72.7975C67.5608 72.9684 67.3902 73.1393 67.2196 73.3101C67.049 73.481 66.8784 73.6519 66.7078 73.8228C66.0253 74.6772 65.5135 75.1899 64.8311 75.5317C64.3193 75.8734 63.6368 76.0443 62.6132 76.0443C61.2483 76.0443 60.2247 75.7025 59.5422 74.6772C58.8598 73.8228 58.348 72.2848 58.1774 70.2342C57.8361 67.6709 57.4949 66.1329 56.9831 64.9367C56.4713 63.7405 55.9595 62.7152 54.9358 61.1772L55.277 60.8355C55.277 60.8355 57.4949 63.9114 63.2956 63.9114C65.1723 63.9114 67.049 63.3987 68.7551 62.5443C69.0963 62.3734 69.4375 62.2025 69.7787 62.0317C70.1199 61.8608 70.4611 61.6899 70.6318 61.3481C70.8024 61.3481 70.8024 61.1772 70.973 61.0063C71.9966 60.1519 72.8497 59.2975 73.3615 58.1013C74.0439 56.9051 74.3851 55.3671 74.3851 53.6582C74.3851 51.2658 74.2145 50.7532 73.7027 48.8734L73.5321 48.3608C73.1909 46.6519 72.6791 44.9431 72.1672 43.0633C71.6554 41.1836 71.1436 39.3038 70.6318 37.2532C69.7787 34.1772 68.7551 31.1013 68.2432 28.1962C67.5608 25.2912 67.2196 22.557 67.2196 20.3355C67.2196 17.2595 67.7314 16.2342 68.2432 15.2089V15.038C68.7551 14.0127 69.2669 13.3291 69.9493 12.9874C70.6318 12.6456 71.3142 12.4747 72.1672 12.4747C74.2145 12.4747 75.2382 12.9874 75.75 13.5C76.2618 14.0127 76.2618 14.8671 76.2618 15.5506C76.7736 15.5506 77.4561 15.5506 78.1385 15.5506C78.8209 15.5506 79.5034 15.5506 80.1858 15.5506C80.1858 15.038 80.1858 14.6962 80.0152 14.1836C80.0152 13.8418 79.8446 13.3291 79.674 12.9874C79.1622 11.2785 77.7973 10.0823 76.2618 9.56963C76.0912 9.56963 75.75 9.39875 75.5794 9.39875C75.2382 9.39875 74.7263 9.22786 74.3851 9.22786C73.8733 9.22786 73.5321 9.22786 73.0203 9.05697C70.8024 9.05697 68.4138 9.56963 66.7078 10.7658C65.3429 11.7912 64.4899 13.1582 63.978 14.6962C63.4662 16.2342 63.2956 17.9431 63.2956 19.8228C63.2956 22.7279 63.8074 25.8038 64.4899 28.8798C65.1723 31.9557 66.1959 35.2025 67.049 38.2785C67.7314 40.6709 68.4139 43.0633 68.9257 45.4557C69.0963 46.1393 69.2669 46.6519 69.4375 47.5063L69.6081 47.8481C70.1199 49.557 70.2905 50.7532 70.2905 53.3165C70.2905 53.6582 70.2905 54.1709 70.1199 54.5127C69.7787 56.7342 68.5845 58.1013 67.049 58.7848C65.6841 59.6393 63.978 59.8101 62.9544 59.981C62.7838 59.981 62.6132 59.981 62.4426 59.981C62.272 59.981 62.1013 59.981 61.9307 59.981C61.4189 59.981 60.9071 59.8101 60.5659 59.8101C60.0541 59.6393 59.7128 59.4684 59.201 59.2975C56.9831 58.2722 55.277 56.2215 54.0828 53.4874V53.3165C53.4003 51.6076 53.4003 49.557 53.2297 47.6772C53.2297 47.3355 53.2297 46.8228 53.0591 46.481C52.8885 46.3101 52.7179 46.1393 52.5473 45.9684C52.2061 45.6266 51.8649 45.1139 51.353 44.7722C51.0118 44.4304 50.6706 44.0886 50.1588 43.9177C48.4527 42.5506 46.576 42.038 45.3818 42.038C41.9696 42.038 38.3868 45.2848 38.3868 45.2848L38.2162 45.4557L38.0456 45.2848C38.0456 45.2848 37.875 45.1139 37.875 44.943C37.875 44.7722 37.875 44.7722 37.7044 44.6013C37.5338 44.0886 37.5338 43.4051 37.5338 42.5506C36.6807 42.5506 35.4865 43.0633 33.951 43.7468C33.6098 43.9177 33.098 44.0886 32.5861 44.2595C31.0507 44.943 29.5152 45.2848 27.9797 45.4557C27.6385 45.4557 27.4679 45.4557 27.1267 45.4557C26.7855 45.4557 26.6149 45.4557 26.2736 45.4557C24.9088 46.3101 22.5203 47.3355 20.3024 48.3608L19.9611 48.5317C19.9611 48.5317 19.6199 48.7025 19.2787 49.0443C18.0845 49.7279 16.0372 51.2658 13.8193 52.2912L13.478 52.462V52.1203C13.478 52.1203 13.6486 49.8987 11.9426 48.1899C10.9189 47.1646 10.0659 47.3355 8.87162 47.3355C8.70101 47.3355 8.70101 47.3355 8.53041 47.3355C8.18919 48.8734 6.65372 49.0443 6.3125 49.0443C5.97128 49.3861 5.63007 49.7279 5.63007 49.8987C5.63007 50.0696 5.63007 50.4114 5.63007 50.5823C5.80068 50.5823 5.80068 50.5823 5.97128 50.5823C6.14189 50.5823 6.3125 50.5823 6.48311 50.5823C6.82432 50.5823 6.99493 50.5823 7.33615 50.7532C7.67736 50.7532 7.84797 50.9241 8.18919 51.0949C9.38345 51.6076 10.4071 52.6329 10.7483 53.6582L10.2365 53.8291C10.5777 52.6329 9.72466 51.7785 8.53041 51.2658C8.3598 51.0949 8.01858 51.0949 7.84797 50.9241C7.67736 50.9241 7.33615 50.7532 6.99493 50.7532C6.82432 50.7532 6.65372 50.7532 6.65372 50.7532C5.63007 50.7532 4.60642 51.0949 4.09459 51.6076C3.92399 51.7785 3.92399 51.7785 3.75338 51.9494C3.75338 52.1203 3.58277 52.2912 3.58277 52.462C3.58277 52.6329 3.58277 52.6329 3.58277 52.8038C3.58277 52.9747 3.58277 53.1456 3.75338 53.3165C3.75338 53.6582 3.92399 53.8291 3.92399 54.1709C3.92399 55.0253 3.58277 55.538 3.41216 55.7089V55.8798C3.41216 56.0506 3.41216 56.0507 3.58277 56.2215C3.75338 56.7342 4.09459 57.2469 4.60642 57.5886C5.11824 57.076 5.63007 56.5633 6.3125 56.3924C6.82432 56.3924 7.33615 56.2215 7.84797 56.2215V56.7342C7.33615 56.7342 6.99493 56.9051 6.48311 57.076C5.80068 57.4177 5.28885 57.7595 4.77703 58.2722C4.43581 58.7848 4.2652 59.2975 4.2652 59.981C4.2652 60.1519 4.2652 60.3228 4.43581 60.6646C4.60642 60.8355 4.94763 61.0063 5.28885 61.1772L5.45946 61.3481L5.63007 61.519C5.97128 62.0317 5.80068 63.2279 5.80068 63.5696L5.97128 63.7405C6.14189 63.9114 6.14189 63.9114 6.3125 64.0823C6.48311 64.2532 6.65372 64.2532 6.82432 64.4241C7.50676 64.7658 8.3598 64.9367 9.21284 64.9367C9.38345 64.9367 9.55405 64.9367 9.55405 64.9367C9.72466 64.9367 10.0659 64.9367 10.2365 64.7658C10.4071 64.7658 10.7483 64.595 10.9189 64.595C11.772 64.2532 12.4544 63.5696 12.625 62.8861C12.2838 62.5443 12.1132 62.0317 11.9426 61.6899C11.772 61.0063 11.6014 60.4937 11.772 59.8101C11.772 59.4684 11.9426 59.1266 12.2838 58.7848L12.625 59.1266C12.4544 59.2975 12.2838 59.6393 12.2838 59.8101C12.2838 60.3228 12.2838 60.8355 12.4544 61.3481C12.625 61.8608 12.9662 62.3734 13.3074 62.8861C13.6486 63.2279 14.1605 63.5696 14.5017 63.5696C15.5253 63.7405 16.549 63.5696 17.0608 63.2279C17.2314 63.2279 17.2314 63.057 17.402 63.057C17.5726 63.057 17.5726 62.8861 17.5726 62.8861C17.5726 62.5443 18.0845 60.8355 19.6199 60.6646C19.7905 60.4937 19.7905 60.1519 19.9611 59.8101C19.9611 59.6393 19.9611 59.6393 19.9611 59.4684C19.9611 59.2975 19.9611 59.2975 19.9611 59.1266C19.9611 58.9557 19.9611 58.7848 19.9611 58.6139C19.9611 57.2468 19.4493 56.2215 18.7669 55.538C18.5963 55.3671 18.4257 55.1962 18.4257 55.1962C18.2551 55.0253 18.0845 55.0253 18.0845 54.8544C18.0845 54.8544 17.9139 54.8544 17.9139 54.6836L18.0845 54.1709C18.0845 54.1709 18.2551 54.1709 18.2551 54.3418C18.4257 54.5127 18.5963 54.5127 18.7669 54.6836C18.9375 54.8544 19.1081 55.0253 19.2787 55.1962C19.6199 55.538 19.9611 56.0506 20.1318 56.5633C21.326 56.3924 22.5203 55.8798 23.5439 55.538C23.7145 55.538 23.8851 55.3671 24.0557 55.3671H24.2264L24.397 55.538C24.397 55.538 26.103 58.2722 29.6858 58.2722C29.8564 58.2722 30.027 58.2722 30.1976 58.2722C30.5389 58.2722 30.7095 58.2722 31.0507 58.2722C31.3919 58.2722 31.5625 58.1013 31.7331 58.1013C32.5861 57.9304 33.4392 57.5886 34.1216 57.076C33.951 57.076 33.7804 57.076 33.7804 57.076C33.4392 57.076 33.2686 56.9051 32.9274 56.7342C31.5625 56.2215 30.5389 55.1962 29.8564 54L30.3682 53.8291C30.8801 54.8544 31.9037 55.8798 33.098 56.2215C33.2686 56.3924 33.6098 56.3924 33.951 56.5633C34.2922 56.5633 34.4628 56.7342 34.8041 56.7342C34.9747 56.7342 35.1453 56.7342 35.1453 56.7342C35.6571 56.7342 36.1689 56.5633 36.6807 56.3924C37.1926 56.2215 37.875 55.8798 38.3868 55.3671C39.4105 54.6836 39.9223 53.8291 39.9223 53.4874C36.5101 53.6582 35.8277 51.7785 35.8277 51.7785L35.6571 51.6076L35.8277 51.4367C38.2162 50.5823 40.7753 49.8987 43.3345 50.0696C43.8463 50.0696 44.3581 50.0696 44.8699 50.2405C45.3818 50.2405 45.8936 50.4114 46.4054 50.5823H46.576V50.7532C46.576 50.7532 47.2584 53.3165 50.3294 53.1456V53.6582C49.8176 53.6582 49.3057 53.6582 48.7939 53.4874C48.7939 53.6582 48.7939 53.6582 48.7939 53.8291C48.7939 54.3418 49.1351 54.6836 49.4763 55.1962C49.8176 55.538 50.5 55.8798 51.1824 56.0506C51.5236 56.0506 52.0355 56.2215 52.3767 56.0506V56.5633C51.8649 56.5633 51.353 56.5633 51.0118 56.5633C50.3294 56.3924 49.647 56.0506 49.1351 55.538C48.6233 55.0253 48.2821 54.5127 48.2821 53.8291C48.2821 53.6582 48.2821 53.4874 48.2821 53.3165C46.7466 52.6329 46.2348 51.4367 46.0642 51.0949C45.5524 50.9241 45.2111 50.9241 44.6993 50.7532C44.1875 50.7532 43.6757 50.5823 43.1638 50.5823C40.7753 50.4114 38.3868 50.9241 36.1689 51.7785C36.5101 52.2911 37.5338 53.1456 40.0929 52.9747H40.4341V53.3165C40.4341 53.3165 40.2635 54.6836 38.5574 55.8798C38.0456 56.2215 37.3632 56.5633 36.8514 56.9051C36.6807 56.9051 36.5101 57.076 36.3395 57.076C36.6807 57.5886 37.1926 57.7595 38.2162 58.1013C38.3868 58.2722 38.728 58.2722 39.0693 58.4431C39.4105 58.6139 39.7517 58.7848 39.9223 58.9557C40.2635 59.1266 40.4341 59.4684 40.6047 59.6393C40.7753 59.8101 41.1166 60.1519 41.2872 60.4937C41.9696 61.519 42.4814 62.8861 42.4814 63.3987C42.4814 63.5696 42.4814 63.7405 42.4814 63.9114C42.4814 64.7658 42.3108 65.6203 42.1402 66.4747C41.9696 67.6709 41.799 68.6962 41.799 69.5506C41.799 70.4051 41.9696 71.0886 42.3108 71.6013C42.4814 72.1139 42.8226 72.7975 42.8226 73.481C42.9932 74.6772 42.9932 75.7025 43.3345 76.7279C43.6757 77.7532 44.0169 78.6076 44.5287 79.6329C44.6993 79.9747 45.0405 80.4874 45.2111 80.8291C46.4054 82.538 47.2584 84.076 47.2584 85.4431C47.2584 86.8101 46.9172 87.8355 46.7466 88.1772C47.2584 88.1772 48.2821 88.0063 49.3057 87.3228C49.9882 86.981 50.5 86.4684 51.1824 85.7848C51.6943 85.1013 52.2061 84.4177 52.7179 83.3924C52.0355 82.8798 51.1824 82.1962 50.6706 81.5127C50.3294 81 49.8176 80.4874 49.647 79.9747C49.3057 79.462 49.1351 78.9494 49.1351 78.2658C49.1351 78.095 49.1351 77.9241 49.1351 77.7532H49.647C49.647 77.9241 49.647 78.095 49.647 78.2658C49.8176 78.7785 49.9882 79.2912 50.1588 79.8038C50.5 80.3165 50.8412 80.8291 51.1824 81.1709C53.2297 83.3924 56.4713 85.1013 58.8598 85.1013C62.1013 85.1013 65.1723 83.3924 65.1723 83.3924L65.3429 83.2215L65.5135 83.3924C65.6841 83.5633 65.6841 83.9051 65.8547 84.2468C66.0253 84.5886 66.0253 84.9304 66.0253 85.2722C66.3666 87.3228 66.5372 89.8861 66.3666 91.7658C66.1959 92.4494 66.0253 92.962 65.8547 93.3038C65.5135 93.6456 65.1723 93.6456 64.4899 93.6456C63.6368 93.6456 63.2956 93.6456 62.9544 93.4747C62.6132 93.3038 62.4426 93.1329 62.272 92.7912C61.4189 91.595 60.5659 90.7405 59.7128 90.2279C58.8598 89.7152 58.1774 89.5443 57.1537 89.5443C55.4476 89.5443 55.1064 90.2279 54.9358 90.7405C55.1064 90.9114 55.1064 91.2532 55.1064 91.9367C55.1064 93.1329 54.424 93.8165 54.0828 93.9874C54.0828 94.1582 54.0828 94.5 54.0828 94.8418C54.0828 95.1836 54.2534 95.3544 54.2534 95.6962C54.424 95.5253 54.5946 95.5253 54.7652 95.3544C54.9358 95.1836 55.277 95.0127 55.4476 95.0127H55.6182C55.7888 95.0127 55.7888 95.0127 55.9595 95.0127C56.6419 95.0127 57.6655 95.0127 58.1774 95.1836L58.0068 95.6962C57.3243 95.6962 56.3007 95.6962 55.7889 95.6962C55.6182 95.6962 55.6182 95.6962 55.4476 95.6962C55.277 95.6962 55.277 95.6962 55.277 95.6962C55.1064 95.6962 54.9358 95.8671 54.7652 95.8671C54.5946 96.038 54.424 96.2089 54.2534 96.2089C53.7416 96.7215 53.5709 97.4051 53.4003 97.9177C53.4003 97.9177 53.4003 97.9177 53.4003 98.0886C54.7652 99.2848 54.424 100.994 54.2534 101.335C54.2534 101.506 54.424 101.506 54.424 101.677C54.424 101.848 54.5946 102.019 54.5946 102.019C54.9358 102.532 55.4476 102.873 56.1301 103.044C56.1301 102.19 56.1301 101.165 56.6419 100.139C57.1537 99.2848 57.6655 98.9431 58.1774 98.6013C58.8598 98.4304 59.5422 98.2595 60.3953 98.4304V98.9431C59.7128 98.7722 59.0304 98.7722 58.5186 99.1139C58.0068 99.2848 57.4949 99.7975 57.1537 100.481C56.6419 101.335 56.6419 102.532 56.6419 103.215C56.6419 103.386 56.6419 103.386 56.6419 103.557C56.8125 103.386 56.9831 103.386 57.1537 103.215C57.3243 103.215 57.3243 103.215 57.4949 103.215C57.8361 103.215 58.348 103.386 58.6892 103.728C59.0304 104.07 59.3716 104.582 59.5422 105.266C59.5422 105.608 59.7128 105.949 59.5422 106.291C59.7128 106.291 59.8834 106.462 60.0541 106.462C60.7365 106.804 61.2483 106.975 61.7601 107.146C62.272 107.146 62.7838 107.146 63.4662 106.975C64.6605 106.804 65.6841 106.291 66.1959 105.266C66.8784 104.411 67.049 103.044 67.2196 101.165V100.994H67.3902C67.3902 100.994 67.5608 100.994 67.902 100.994C67.3902 100.652 67.2196 100.139 67.049 98.7722L67.5608 98.6013C67.902 100.481 68.0726 100.481 68.9257 101.165L69.0963 101.335C70.8024 102.361 72.1672 102.703 73.5321 102.361C73.7027 102.361 74.0439 102.19 74.2145 102.19C74.3851 102.19 74.7264 102.019 74.897 102.019C75.9206 101.506 76.0912 100.652 76.2618 99.9684C76.2618 99.7975 76.2618 99.7975 76.2618 99.6266C76.0912 99.4557 76.0912 99.4557 75.9206 99.2848C75.75 99.1139 75.75 98.9431 75.5794 98.7722V98.6013C75.5794 98.4304 75.5794 98.2595 75.5794 98.0886C75.5794 97.0633 75.9206 96.2089 76.0912 95.8671C75.9206 95.3544 75.5794 94.8418 75.2382 94.6709C74.897 94.3291 74.3851 94.1582 74.0439 94.1582C72.6791 93.9874 71.4848 95.0127 71.4848 95.0127L70.8024 95.5253L70.973 94.8418C72.1672 90.5696 75.2382 90.057 76.2618 90.057C76.0912 87.4937 76.0912 84.7595 76.0912 84.7595V84.4177H76.4324C78.1385 84.5886 79.3328 84.2468 80.1858 83.9051C81.0388 83.5633 81.5507 83.0506 81.8919 82.3671C82.2331 81.6836 82.4037 81.1709 82.4037 80.4874C82.4037 79.8038 82.2331 79.1203 82.0625 78.4367C81.5507 78.7785 80.8682 78.9494 80.3564 78.9494C79.3328 78.9494 78.3091 79.1203 77.4561 79.2912C76.603 79.462 76.0912 79.6329 75.9206 79.9747L75.4088 79.8038C75.5794 79.2912 76.4324 78.9494 77.2855 78.7785C78.1385 78.6076 79.3328 78.6076 80.1858 78.4367C81.5507 78.4367 82.5743 77.5823 83.2568 76.2152C83.4274 75.8734 83.4274 75.7025 83.598 75.3608C83.598 75.019 83.7686 74.8481 83.7686 74.5063C83.7686 74.3355 83.7686 74.1646 83.7686 74.1646C83.7686 72.9684 83.2568 72.1139 82.9155 71.7722C82.2331 73.481 81.7213 73.481 80.0152 73.6519ZM25.25 53.1456C23.3733 53.8291 22.1791 54.1709 21.1554 54.3418V53.8291C22.1791 53.6582 23.3733 53.3165 25.25 52.6329C25.9324 52.2911 26.7855 52.1203 27.8091 51.7785L27.9797 52.2912C26.7855 52.6329 25.9324 52.8038 25.25 53.1456ZM41.9696 63.7405C41.9696 63.5696 41.9696 63.3987 41.9696 63.2279C41.9696 62.7152 41.6284 61.519 40.9459 60.4937C40.7753 60.1519 40.6047 59.981 40.4341 59.8101C40.2635 59.6393 39.9223 59.2975 39.7517 59.1266C39.5811 58.9557 39.2399 58.7848 38.8986 58.6139C38.728 58.6139 38.728 58.6139 38.5574 58.4431C38.2162 58.7848 37.875 59.2975 37.7044 59.6393L37.5338 59.981C38.2162 60.3228 39.7517 61.519 39.9223 63.2279C39.9223 63.5696 39.5811 63.7405 39.2399 64.0823C38.8986 64.4241 38.5574 64.7658 38.3868 65.1076C38.3868 65.1076 38.3868 65.2785 38.2162 65.2785C38.2162 65.4494 38.0456 65.4494 38.0456 65.6203C38.0456 65.7912 38.0456 65.7912 37.875 65.962C37.7044 66.6456 37.7044 67.3291 37.7044 68.1836C37.7044 68.3544 37.7044 68.5253 37.7044 68.6962C37.7044 68.8671 37.7044 69.038 37.875 69.2089C37.875 69.3798 38.0456 69.5506 38.0456 69.7215C38.5574 70.576 39.2399 71.6013 40.0929 72.2848C40.2635 72.2848 40.4341 72.2848 40.6047 72.2848C40.9459 72.2848 41.2872 72.2848 41.6284 72.2848C41.6284 72.1139 41.4578 71.7722 41.4578 71.6013C41.2872 70.9177 40.9459 70.2342 40.9459 69.3798C40.9459 68.3544 41.1166 67.3291 41.2872 66.1329C41.799 65.2785 41.9696 64.4241 41.9696 63.7405ZM19.9611 64.595C20.3024 64.2532 20.6436 63.7405 20.6436 63.057C20.6436 62.8861 20.6436 62.8861 20.6436 62.7152C20.6436 62.5443 20.6436 62.5443 20.6436 62.3734C20.473 61.8608 19.9611 61.1772 19.7905 61.0063C18.5963 61.0063 18.2551 62.2025 18.0845 62.7152C18.9375 63.057 19.6199 64.0823 19.9611 64.595ZM13.8193 83.3924C15.0135 83.9051 16.3784 84.076 17.9139 83.7342C18.4257 83.5633 18.9375 83.3924 19.6199 83.2215C19.1081 82.7089 18.5963 82.1962 17.9139 81.6836C17.2314 81 16.8902 79.9747 16.8902 79.462C15.0135 80.4874 12.9662 80.8291 11.0895 80.4874C11.0895 80.6582 11.2601 80.8291 11.2601 81C11.772 82.0253 12.625 82.8798 13.8193 83.3924ZM10.4071 88.1772C10.2365 88.1772 10.0659 88.1772 9.72466 88.3481C9.55405 88.3481 9.55405 88.519 9.38345 88.519C9.21284 88.6899 8.87162 88.8608 8.70101 89.0317C8.5304 89.0317 8.53041 89.2025 8.53041 89.2025C9.21284 89.3734 10.7483 90.057 11.2601 91.2532C12.625 90.9114 13.1368 89.8861 13.3074 89.5443C12.7956 89.0317 12.1132 88.6899 11.4307 88.519C11.2601 88.519 11.0895 88.3481 10.9189 88.3481C10.7483 88.3481 10.5777 88.3481 10.5777 88.3481C10.5777 88.1772 10.5777 88.1772 10.4071 88.1772ZM51.8649 16.0633C51.8649 16.0633 51.8649 16.2342 51.6943 16.2342H51.8649C52.8885 16.4051 54.0828 16.7468 55.1064 17.4304C55.9595 17.943 56.4713 18.4557 56.9831 18.9684C57.4949 19.481 57.8361 19.9937 58.0068 20.8481C58.1774 21.1899 58.1774 21.5317 58.348 21.8734C61.7601 22.0443 62.1014 19.481 62.1014 18.7975C61.0777 18.6266 60.2247 18.2848 59.3716 17.943C58.5186 17.4304 58.0068 16.7468 57.3243 15.5506C57.1537 15.038 56.4713 14.3544 55.7889 13.6709C55.6182 13.5 55.6182 13.5 55.4476 13.3291C55.277 13.1582 55.277 13.1582 55.1064 13.1582C54.5946 12.9874 54.2534 12.6456 53.7416 12.6456C53.2297 12.4747 52.8885 12.4747 52.3767 12.4747C52.3767 12.6456 52.3767 12.9874 52.3767 13.3291C52.5473 15.038 52.0355 15.5506 51.8649 16.0633ZM12.4544 102.873C12.4544 102.703 12.2838 102.532 12.1132 102.532C11.9426 102.532 11.9426 102.532 11.772 102.532C11.6014 102.532 11.4307 102.532 11.2601 102.703C11.0895 102.873 10.9189 103.044 10.7483 103.215C10.5777 103.386 10.4071 103.557 10.4071 103.899C10.2365 104.241 10.2365 104.582 10.2365 104.924C10.2365 105.437 10.4071 105.778 10.5777 106.12C10.9189 105.778 11.772 105.266 13.1368 105.266C13.1368 105.266 13.1368 105.266 13.1368 105.095V104.924C13.1368 104.924 13.1368 104.924 13.1368 104.753C13.1368 104.582 13.1368 104.411 13.1368 104.411C13.1368 104.241 13.1368 103.899 12.9662 103.728C12.7956 103.386 12.625 103.215 12.4544 102.873ZM26.6149 104.411C26.103 104.411 25.5912 104.582 25.25 104.924C24.9088 105.095 24.7382 105.437 24.5676 105.778V105.949C25.7618 106.462 26.103 107.487 26.103 108C27.8091 106.975 27.2973 105.095 27.2973 104.582C27.1267 104.582 26.7855 104.411 26.6149 104.411ZM33.6098 25.462C33.951 25.6329 34.1216 25.8038 34.2922 25.8038C34.4628 25.8038 34.6334 25.9747 34.9747 25.9747H35.1453L34.9747 25.8038C34.8041 25.462 34.8041 25.2912 34.8041 24.9494V24.7785C34.8041 24.4367 34.8041 24.2658 34.8041 24.0949C34.2922 24.0949 34.1216 24.0949 34.1216 24.2658V24.4367C33.7804 24.9494 34.1216 24.4367 34.1216 24.4367C34.1216 24.6076 33.951 24.7785 33.951 24.9494C33.7804 24.9494 33.6098 25.2912 33.6098 25.462ZM20.9848 31.6139C20.9848 32.4684 21.1554 35.3734 23.8851 35.0317C23.7145 34.1772 23.8851 32.981 23.8851 32.981V32.8101H24.0557C24.0557 32.8101 24.397 32.8101 25.4206 32.8101C28.1503 32.8101 30.1976 32.6393 31.5625 32.2975C32.9274 31.9557 33.951 31.6139 34.8041 31.2722C35.9983 30.5886 37.5338 29.9051 38.3868 29.3924H38.5574C38.0456 29.2215 37.5338 29.0506 36.8514 28.8798C36.6807 28.8798 36.5101 28.8798 36.1689 28.7089C35.9983 28.7089 35.8277 28.7089 35.6571 28.7089C35.4865 28.7089 35.1453 28.7089 35.1453 28.7089C34.8041 28.7089 34.1216 28.7089 33.4392 28.8798C33.098 29.0506 32.7568 29.3924 32.4155 29.5633C32.0743 29.7342 31.5625 29.9051 31.0507 30.2468C28.6622 31.2722 25.0794 31.7848 20.9848 31.6139ZM17.2314 47.3355C18.0845 47.8481 19.1081 48.019 20.6436 48.019L20.9848 47.8481C22.8615 46.9937 25.0794 46.1393 26.4443 45.2848C25.5912 45.1139 24.9088 44.4304 24.397 43.576C24.2264 43.4051 24.2264 43.0633 24.0557 42.8924C24.0557 42.7215 24.0557 42.5506 23.8851 42.3798C23.2027 42.5506 22.8615 42.5506 22.6909 42.5506C21.326 43.4051 20.1318 44.0886 18.9375 44.6013C17.9139 45.1139 16.8902 45.2848 15.8666 45.4557C16.2078 46.1393 16.549 46.8228 17.2314 47.3355ZM38.8986 44.4304C39.7517 43.7468 42.8226 41.3544 45.8936 41.3544C47.2584 41.3544 49.1351 41.8671 51.0118 43.2342C51.353 43.576 51.8649 43.9177 52.2061 44.2595C52.5473 44.6013 53.0591 44.9431 53.4003 45.4557C53.5709 45.6266 53.7416 45.9684 53.9122 46.1393C54.9358 46.9937 55.7889 47.5063 56.6419 47.8481C57.4949 48.1899 58.348 48.1899 59.201 48.1899C62.6132 48.1899 63.978 44.9431 64.3193 43.7468H64.1486C63.978 43.7468 63.978 43.7468 63.8074 43.7468C63.125 43.9177 62.4426 43.9177 61.5895 43.9177C61.4189 43.9177 61.2483 43.9177 61.0777 43.9177C60.7365 43.9177 60.3953 43.9177 59.8834 43.7468C59.5422 43.7468 59.201 43.576 58.6892 43.576C56.8125 43.0633 55.1064 42.038 53.7416 39.9874L53.5709 39.8165C53.4003 39.6456 53.2297 39.4747 52.8885 39.3038C52.5473 39.1329 52.2061 38.962 51.8649 38.7912C50.1588 37.9367 47.4291 36.9114 45.723 36.9114C44.0169 36.9114 42.3108 37.2532 42.1402 37.2532C40.6047 37.9367 39.7517 38.6203 39.2399 39.4747C38.728 40.1582 38.5574 41.0127 38.3868 42.038C38.2162 43.0633 38.3868 43.7468 38.5574 44.2595C38.728 44.4304 38.8986 44.4304 38.8986 44.4304ZM27.1267 44.943C27.2973 44.943 27.6385 44.943 27.8091 44.943C28.1503 44.943 28.3209 44.943 28.6622 44.943C30.027 44.7722 31.5625 44.4304 33.098 43.7468C33.6098 43.576 33.951 43.4051 34.4628 43.2342C35.9983 42.5506 37.1926 42.038 38.2162 42.038C38.3868 41.0127 38.5574 40.1582 39.0693 39.4747C39.5811 38.7912 40.2635 38.2785 41.4578 37.5949C40.6047 37.5949 39.0693 37.5949 37.875 37.9367C36.5101 38.2785 35.8277 38.6203 35.1453 38.962C34.4628 39.3038 33.7804 39.6456 32.7568 39.8165C32.5861 39.9874 32.2449 40.1582 31.9037 40.3291C31.5625 40.5 31.0507 40.6709 30.5388 40.8418C27.4679 42.038 26.103 42.2089 25.0794 42.3798C24.9088 42.3798 24.9088 42.3798 24.7382 42.3798H24.5676C24.5676 42.5506 24.5676 42.7215 24.7382 42.8924C24.7382 43.0633 24.9088 43.2342 24.9088 43.4051C25.25 44.2595 26.2736 44.943 27.1267 44.943ZM32.2449 29.2215C32.4155 29.2215 32.4155 29.0506 32.5861 29.0506C32.5861 29.0506 32.4155 29.0506 32.2449 29.2215C31.3919 29.2215 30.3682 29.2215 29.3446 29.3924C29.174 29.3924 29.174 29.3924 29.0034 29.3924C28.8328 29.3924 28.6622 29.3924 28.6622 29.3924C26.4443 29.3924 24.5676 28.7089 23.8851 28.538C23.8851 29.0506 23.8851 29.5633 23.8851 29.9051C24.0557 30.4177 24.2264 30.7595 24.7382 31.1013C27.1267 30.9304 29.174 30.4177 30.8801 29.7342C31.3919 29.5633 31.9037 29.3924 32.2449 29.2215ZM76.0912 15.8924C75.9206 15.8924 75.9206 15.8924 75.75 15.8924C75.5794 15.8924 75.4088 15.8924 75.4088 16.0633C75.2382 16.0633 75.2382 16.0633 75.0676 16.2342C74.5557 16.4051 74.3851 16.9177 74.3851 17.6013C74.3851 17.7722 74.3851 17.9431 74.3851 18.1139C74.3851 18.2848 74.3851 18.2848 74.3851 18.4557C74.3851 18.6266 74.3851 18.6266 74.5557 18.6266C74.7264 18.9684 75.0676 19.1393 75.4088 19.1393C75.5794 19.1393 75.75 19.1393 75.9206 19.1393C76.0912 19.1393 76.4324 19.1393 76.603 19.1393C77.9679 19.1393 80.0152 19.1393 80.6976 18.9684C80.8682 18.9684 80.8682 18.9684 81.0388 18.7975C81.2095 18.7975 81.2095 18.6266 81.3801 18.4557C81.3801 18.2848 81.5507 18.1139 81.5507 18.1139C81.7213 17.7722 81.7213 17.4304 81.7213 17.2595C81.7213 17.0886 81.7213 16.9177 81.7213 16.9177C81.7213 16.7468 81.5507 16.4051 81.3801 16.2342C81.2095 16.0633 81.0389 15.8924 80.8682 15.8924C80.6976 15.8924 80.6976 15.8924 80.527 15.8924C80.0152 15.8924 79.1622 15.8924 78.3091 15.8924C77.4561 15.7215 76.603 15.8924 76.0912 15.8924ZM1.36486 20.1646C2.38851 20.1646 3.07095 20.6772 3.75338 21.5317C4.09459 21.3608 4.60642 20.6772 4.43581 19.3101C4.09459 19.1393 2.72973 18.4557 1.70608 18.7975C1.02365 19.1393 0.682432 19.6519 0.511824 20.1646C0.682432 20.1646 0.682432 20.1646 0.853041 20.1646C0.853041 20.1646 1.19426 20.1646 1.36486 20.1646ZM83.2568 19.9937C82.9155 19.8228 82.7449 19.6519 82.4037 19.6519C82.0625 19.481 81.8919 19.481 81.5507 19.481C81.3801 19.481 81.3801 19.481 81.2095 19.481C81.0388 19.6519 80.8682 19.6519 80.6976 19.6519C80.0152 19.6519 77.9679 19.8228 76.4324 19.8228C76.0912 19.8228 75.9206 19.8228 75.5794 19.8228C75.4088 19.8228 75.0676 19.8228 75.0676 19.8228C74.7263 19.8228 74.5557 19.6519 74.3851 19.481C74.2145 19.481 74.0439 19.481 74.0439 19.481C73.8733 19.481 73.7027 19.481 73.7027 19.6519C73.0203 19.8228 72.3378 20.3355 71.826 21.019C71.3142 21.7025 70.973 22.3861 70.8024 23.2405C70.6318 24.2658 70.4611 25.2912 70.4611 26.8291C70.4611 27.8544 70.6318 28.8798 71.1436 29.9051C71.6554 30.9304 72.3378 32.1266 73.5321 33.3228C74.5557 34.519 75.4088 35.3734 75.75 36.2279C76.2618 37.0823 76.4324 37.9367 76.4324 38.7912C76.4324 39.9874 75.9206 40.8418 75.5794 41.3544C76.4324 41.3544 77.1149 41.1836 77.6267 40.8418C77.7973 40.6709 78.1385 40.5 78.3091 40.3291C79.3328 39.4747 79.674 38.4494 79.674 37.7658C79.674 36.7405 79.674 35.8861 79.5034 35.2025C79.3328 34.519 78.9915 33.8355 78.6503 33.1519C78.4797 32.981 78.4797 32.6393 78.3091 32.4684C78.1385 32.1266 77.7973 31.7848 77.6267 31.6139C76.9443 30.7595 76.4324 29.9051 76.4324 29.0506H76.9443C76.9443 29.7342 77.4561 30.4177 78.1385 31.2722C78.3091 31.6139 78.6503 31.9557 78.8209 32.2975C78.9916 32.4684 79.1622 32.8101 79.1622 32.981C79.5034 33.6646 79.8446 34.3481 80.0152 35.0317C80.1858 35.7152 80.3564 36.5696 80.1858 37.5949C80.3564 37.5949 80.527 37.5949 80.527 37.4241C80.6976 37.2532 80.8682 37.2532 81.0388 37.0823C81.2095 36.9114 81.3801 36.7405 81.5507 36.5696C82.2331 35.7152 82.4037 34.6899 82.4037 34.0063C82.4037 33.8355 82.4037 33.8355 82.4037 33.6646C82.2331 31.6139 81.0389 29.7342 80.0152 28.3671C79.3328 27.5127 78.9916 26.8291 78.8209 26.1456L79.3328 25.9747C79.5034 26.4874 79.8446 27.1709 80.527 28.0253C81.3801 29.3924 82.5743 30.9304 82.9155 32.6393C84.451 31.4431 84.1098 29.5633 84.1098 28.3671C83.9392 28.0253 83.2568 26.6582 82.7449 25.9747C82.5743 25.8038 82.5743 25.8038 82.4037 25.6329C81.8919 25.1203 81.3801 24.6076 81.0388 22.557L81.5507 22.3861C81.8919 24.0949 82.4037 24.6076 82.7449 25.1203C82.9155 25.2912 82.9155 25.2912 83.0861 25.462C83.598 25.9747 84.1098 27.1709 84.451 27.6836C84.7922 27.1709 85.1334 26.6582 85.3041 26.1456C85.4747 25.462 85.6453 24.7785 85.6453 23.7532C85.6453 22.2152 84.6216 20.6772 83.2568 19.9937ZM3.41216 54.3418C3.41216 54.1709 3.41216 53.8291 3.24155 53.6582C3.24155 53.4874 3.24155 53.3165 3.24155 53.3165C2.55912 53.3165 0 53.3165 0 55.7089C0.341216 55.538 0.682432 55.3671 1.19426 55.3671C1.70608 55.3671 2.38851 55.3671 3.24155 55.538C3.24155 55.3671 3.41216 55.0253 3.41216 54.3418ZM5.28885 61.6899C5.28885 61.6899 5.28885 61.519 5.11824 61.519L4.94764 61.3481C4.77703 61.1772 4.43581 61.0063 4.2652 60.8355C3.92399 61.0063 3.07095 61.3481 2.55912 62.0317C2.55912 62.2025 2.38851 62.2025 2.38851 62.3734C2.38851 62.5443 2.38851 62.5443 2.38851 62.7152C2.38851 63.2279 2.38851 63.9114 2.55912 64.4241C2.90034 64.0823 3.75338 63.3987 5.28885 63.3987C5.45946 62.8861 5.45946 62.0317 5.28885 61.6899ZM33.6098 19.6519C33.6098 19.8228 33.6098 19.9937 33.6098 20.3355C33.7804 20.6772 33.951 21.1899 34.2922 21.8734C34.4628 21.8734 34.6334 21.7025 34.8041 21.7025C34.8041 21.7025 34.8041 21.7025 34.9747 21.7025V21.5317C34.9747 20.8481 35.1453 20.3355 35.3159 19.8228H35.1453C34.9747 19.8228 34.6334 19.8228 34.2922 19.8228C33.951 19.6519 33.7804 19.6519 33.6098 19.6519ZM59.0304 24.2658C58.348 23.7532 58.1774 22.8987 58.0068 22.0443C57.8361 21.7025 57.8361 21.1899 57.6655 20.8481C57.3243 20.1646 57.1537 19.6519 56.6419 19.1393C56.3007 18.6266 55.6182 18.2848 54.9358 17.7722C53.9122 17.0886 52.8885 16.7468 51.8649 16.7468C51.6943 16.7468 51.5236 16.7468 51.353 16.7468C51.1824 16.7468 51.1824 16.7468 51.0118 16.7468C51.0118 17.0886 51.0118 17.2595 51.0118 17.6013C51.0118 18.6266 51.0118 19.8228 51.5236 20.1646C51.6943 20.5063 52.0355 20.6772 52.5473 20.8481C52.8885 21.019 53.4003 21.019 54.0828 21.1899H54.424V21.5317C54.424 21.5317 54.0828 22.557 53.4003 23.2405C54.424 23.5823 55.277 24.0949 55.9595 24.7785C56.8125 25.462 57.3243 26.4874 58.0068 27.8544C58.1774 28.0253 58.1774 28.3671 58.348 28.538C62.1014 28.1962 62.6132 25.9747 62.6132 25.1203C60.9071 25.1203 59.8834 25.1203 59.0304 24.2658ZM37.7044 37.0823C39.5811 36.7405 41.9696 36.7405 42.3108 36.7405C42.4814 36.7405 44.3581 36.3987 46.0642 36.3987C47.9409 36.3987 50.6706 37.2532 52.3767 38.2785C52.7179 38.4494 53.0591 38.6203 53.4003 38.962C53.5709 39.1329 53.7416 39.1329 53.7416 39.3038C53.2297 37.2532 51.0118 35.2025 48.6233 34.1772C48.1115 33.8355 47.5997 33.6646 47.0878 33.4937C46.576 33.3228 46.0642 33.1519 45.5524 33.1519C45.3818 33.1519 45.2111 33.1519 45.2111 33.1519C43.3345 33.1519 40.6047 33.6646 38.0456 34.1772C37.5338 34.3481 37.022 34.519 36.5101 34.519C35.9983 34.6899 35.4865 34.8608 34.9747 35.0317C34.8041 35.0317 34.6334 35.2025 34.4628 35.2025C33.6098 35.5443 32.9274 35.5443 32.2449 35.7152C31.5625 35.7152 30.7095 35.8861 29.6858 35.7152C28.8328 35.7152 27.9797 35.7152 27.4679 35.7152C27.6385 36.3987 27.8091 36.9114 27.9797 37.2532C28.3209 37.7658 28.6622 37.9367 29.174 38.2785C29.3446 38.4494 29.3446 38.4494 29.5152 38.4494C30.027 38.7912 30.3682 39.1329 31.3919 39.1329C33.098 39.1329 33.951 38.6203 34.8041 38.1076C35.6571 37.9367 36.3395 37.4241 37.7044 37.0823ZM57.1537 28.0253C56.6419 26.6582 55.9595 25.8038 55.277 25.1203C54.5946 24.4367 53.7416 23.9241 52.7179 23.5823C52.0355 24.0949 51.1824 24.4367 49.9882 24.4367C50.1588 24.9494 50.6706 26.3165 53.2297 26.1456H53.5709V26.4874C53.5709 26.4874 53.4003 28.0253 52.2061 29.0506C52.0355 29.2215 51.8649 29.3924 51.6943 29.3924C51.8649 29.3924 51.8649 29.3924 52.0355 29.3924C52.3767 29.3924 52.7179 29.5633 53.0591 29.7342C54.7652 30.5886 56.8125 32.4684 57.4949 34.3481C57.6655 34.8608 57.8361 35.2025 58.0068 35.5443C58.5186 35.5443 60.3953 35.5443 61.7601 34.519C62.7838 33.6646 62.9544 32.4684 63.125 32.1266C61.7601 32.1266 60.7365 31.9557 59.7128 31.443C58.6892 30.4177 57.8361 29.5633 57.1537 28.0253ZM39.2399 29.7342H39.0693C38.8986 29.7342 38.728 29.9051 38.5574 29.9051C37.7044 30.2468 36.1689 31.1013 34.9747 31.7848C34.1216 32.2975 33.098 32.6393 31.5625 32.8101C30.027 33.1519 28.1503 33.1519 25.25 33.3228C24.9088 33.3228 24.397 33.3228 24.0557 33.3228C24.0557 33.8355 23.8851 35.0317 24.397 35.5443C24.5676 35.7152 24.5676 35.8861 24.7382 36.057C24.9088 36.3987 25.0794 36.5696 25.4206 36.7405C25.4206 36.7405 25.5912 36.7405 25.5912 36.9114C25.5912 36.9114 25.7618 36.9114 25.9324 37.0823C26.2736 37.2532 26.7855 37.2532 27.2973 37.2532C27.1267 36.9114 26.9561 36.3987 26.7855 35.7152V35.3734H27.1267C27.1267 35.3734 27.9797 35.3734 29.5152 35.3734C30.3682 35.3734 31.2213 35.3734 31.9037 35.3734C32.5861 35.3734 33.2686 35.2025 34.1216 34.8608C34.2922 34.8608 34.4628 34.6899 34.6334 34.6899C35.1453 34.519 35.6571 34.3481 36.1689 34.1772C36.6807 34.0063 37.1926 33.8355 37.7044 33.8355C40.2635 33.1519 43.1638 32.8101 45.0405 32.8101C45.2111 32.8101 45.3818 32.8101 45.5524 32.8101C46.0642 32.8101 46.576 32.981 47.0878 33.1519C47.2584 33.1519 47.5997 33.3228 47.7703 33.4937C47.4291 32.981 46.7466 32.6393 46.7466 32.6393C46.0642 30.9304 44.5287 30.4177 43.5051 30.2468C43.1639 30.076 42.9932 30.076 42.8226 29.9051C42.3108 29.9051 41.799 29.9051 41.2872 29.9051C40.4341 29.7342 39.5811 29.7342 39.2399 29.7342ZM7.16554 48.3608C7.50676 48.3608 8.70101 48.3608 8.87162 46.9937C8.5304 46.6519 6.65372 44.7722 4.77703 46.481C5.45946 46.6519 5.80068 46.9937 6.3125 47.3355C6.48311 47.5063 6.82432 48.019 7.16554 48.3608ZM61.0777 37.7658C60.9071 37.7658 60.7365 37.7658 60.5659 37.7658C60.3953 37.7658 60.2247 37.7658 60.0541 37.7658C59.3716 37.5949 58.6892 37.2532 58.348 36.7405C57.8361 36.2279 57.4949 35.5443 57.1537 34.519C56.4713 32.8101 54.5946 30.9304 52.8885 30.076C52.5473 29.9051 52.2061 29.7342 52.0355 29.7342C51.6943 29.7342 51.5236 29.5633 51.353 29.7342C51.1824 29.7342 51.1824 29.9051 51.0118 29.9051C50.5 30.076 49.9882 30.2468 49.1351 30.2468C49.9882 31.1013 51.6943 32.8101 51.1824 35.2025C53.0591 36.5696 54.424 38.2785 54.424 40.1582C54.5946 40.5 54.7652 40.6709 54.9358 40.8418C56.3007 41.1836 57.6655 41.5253 58.8598 41.5253C60.0541 41.5253 61.0777 41.1836 61.7601 40.6709C62.9544 39.6456 63.2956 38.6203 63.4662 37.9367C62.7838 37.7658 61.9307 37.7658 61.0777 37.7658ZM13.3074 44.4304C13.478 44.6013 13.8193 44.6013 14.1605 44.7722C14.5017 44.7722 14.8429 44.943 15.1841 44.943C15.3547 44.943 15.5253 44.943 15.5253 44.943C16.549 44.943 17.5726 44.6013 18.7669 44.0886C19.7905 43.576 20.9848 43.0633 22.1791 42.2089C20.473 41.1836 20.3024 39.9874 20.3024 39.3038C19.4493 39.6456 18.7669 39.9874 18.0845 40.3291C17.402 40.6709 16.8902 41.0127 16.3784 41.1836C14.5017 41.8671 12.4544 42.038 11.6014 42.038C11.772 42.8924 12.2838 43.9177 13.3074 44.4304ZM5.97128 29.0506C5.45946 29.5633 4.43581 29.7342 3.58277 29.7342C3.41216 29.7342 3.24155 29.7342 3.07095 29.7342C4.2652 31.9557 6.3125 31.443 6.99493 31.2722C6.99493 29.5633 6.3125 29.2215 5.97128 29.0506ZM17.9139 36.9114C17.402 37.4241 16.7196 37.7658 16.0372 37.9367C15.3547 38.1076 14.8429 38.1076 14.3311 38.2785C13.8193 38.2785 12.9662 38.2785 12.4544 38.2785C12.4544 38.962 12.9662 40.5 15.0135 41.1836C15.3547 41.0127 15.8666 41.0127 16.2078 40.8418C16.549 40.6709 17.2314 40.3291 17.7432 39.9874C18.4257 39.6456 19.4493 39.1329 20.3024 38.7912V38.6203H20.473C20.6436 38.4494 20.9848 38.2785 21.1554 38.1076C21.4966 37.9367 21.8378 37.7658 22.1791 37.5949C22.5203 37.4241 23.0321 37.2532 23.3733 37.0823C23.8851 36.9114 24.397 36.7405 24.7382 36.5696C24.5676 36.3987 24.5676 36.2279 24.397 36.2279C24.2264 36.057 24.2264 35.8861 24.0557 35.8861C24.0557 35.7152 23.8851 35.7152 23.8851 35.5443C22.6909 35.7152 21.8378 35.3734 21.326 34.8608C21.326 34.8608 21.1554 34.8608 20.9848 34.8608C20.8142 34.8608 20.6436 35.0317 20.473 35.0317C19.7905 35.7152 18.4257 36.3987 17.9139 36.9114ZM24.9088 37.7658C25.25 37.5949 25.5912 37.4241 25.7618 37.4241C25.5912 37.4241 25.5912 37.4241 25.4206 37.2532C25.4206 37.2532 25.25 37.2532 25.25 37.0823C24.9088 37.0823 24.2264 37.2532 23.5439 37.5949C23.2027 37.7658 22.8615 37.9367 22.3497 38.1076C22.0084 38.2785 21.6672 38.4494 21.326 38.6203C21.1554 38.6203 21.1554 38.7912 21.1554 38.7912C21.326 38.7912 21.4966 38.7912 21.6672 38.7912C22.8615 38.7912 24.0557 38.2785 24.9088 37.7658ZM22.6909 42.038C22.8615 42.038 23.2027 42.038 24.397 41.8671H24.7382C25.7618 41.6962 27.1267 41.5253 30.1976 40.3291C30.7095 40.1582 31.2213 39.9874 31.5625 39.8165H31.7331C31.5625 39.8165 31.5625 39.8165 31.3919 39.8165C30.1976 39.8165 29.8564 39.4747 29.174 39.1329C29.0034 39.1329 29.0034 38.962 28.8328 38.962C28.3209 38.6203 27.8091 38.2785 27.4679 37.7658C27.2973 37.7658 27.1267 37.7658 26.7855 37.7658C26.7855 37.7658 26.7855 37.7658 26.6149 37.7658C26.2736 37.7658 25.5912 38.1076 24.9088 38.4494C23.8851 38.962 22.6909 39.4747 21.4966 39.4747C21.1554 39.4747 20.6436 39.4747 20.473 39.4747C20.6436 39.8165 20.8142 41.1836 22.6909 42.038Z" fill="black"/>
</svg>
