<svg width="119" height="56" viewBox="0 0 119 56" fill="none" xmlns="http://www.w3.org/2000/svg">
<path fill-rule="evenodd" clip-rule="evenodd" d="M23.0738 14.771C23.245 14.771 23.4731 14.771 23.5872 14.8265C23.4731 14.7155 23.245 14.6046 22.9597 14.5491C22.9597 14.6046 23.0168 14.7155 23.0738 14.771ZM21.6477 16.6569C21.7618 16.6569 21.8189 16.6569 21.9329 16.6569C21.99 16.6569 22.1041 16.6569 22.2752 16.6569C22.4463 16.6569 22.5604 16.6014 22.7316 16.546C22.8457 16.4905 22.9597 16.435 23.0738 16.435C23.1879 16.435 23.302 16.435 23.3591 16.4905C23.4731 16.546 23.5302 16.546 23.5872 16.6569C23.7584 16.8233 23.8725 16.9342 23.9295 17.1006C23.9865 17.267 23.9865 17.4334 23.9865 17.7108C23.9865 18.3764 23.9295 18.7092 23.8154 18.9311C23.7013 19.1529 23.5872 19.1529 23.4731 19.2084C23.4731 19.2084 22.6745 19.2639 22.2752 19.2084C22.2182 19.2084 22.1611 19.2084 22.047 19.1529C21.99 19.1529 21.9329 19.1529 21.8759 19.0975C21.7618 19.0975 21.7048 19.042 21.5907 19.042C21.5336 19.042 21.4766 18.9865 21.3625 18.9311C21.3625 18.9311 21.3054 18.8756 21.2484 18.8756C21.1914 18.8201 21.0773 18.7647 21.0773 18.7647L21.1343 18.8201C21.1343 18.8756 21.1343 18.9865 21.1343 19.042C21.0773 19.4303 20.9632 19.6521 20.8491 19.8185C20.9061 19.8185 21.0202 19.8185 21.0773 19.8185C21.4766 19.7631 21.8189 19.7631 22.047 19.7631C22.1041 19.7631 22.1611 19.7631 22.2752 19.7631C22.3323 19.7631 22.3893 19.7631 22.4463 19.7631C22.5034 19.7631 22.5604 19.7631 22.6745 19.8185C22.9597 19.874 23.245 19.9295 23.4731 20.0404C23.5872 20.0404 23.8725 20.0404 24.1577 19.9849C24.3288 19.9849 24.557 19.9849 24.6711 19.9849C24.7281 19.9295 24.8422 19.874 24.8993 19.8185C24.9563 19.7631 25.0704 19.6521 25.1274 19.5967C25.4697 19.1529 25.7549 18.4873 25.5838 17.9326L25.7549 17.8772C25.869 18.4873 25.6408 19.1529 25.2415 19.6521C25.1845 19.7631 25.0704 19.8185 25.0133 19.874C24.9563 19.9295 24.8993 19.9295 24.8993 19.9849C24.9563 19.9849 24.9563 19.9849 25.0133 20.0404C25.3556 20.1513 25.869 20.3177 26.1542 20.9279C26.2683 20.9834 26.5535 21.1498 26.6106 21.4271C26.6676 21.4271 26.6676 21.4271 26.7247 21.4826C26.8958 21.5935 27.124 21.7044 27.2951 21.8154C27.4092 20.9279 26.4965 20.3177 26.4965 20.3177L26.2683 20.1513H26.5535C26.9529 20.1513 27.181 20.1513 27.3522 20.0404C27.5233 19.9849 27.6374 19.874 27.7515 19.7631C27.9797 19.5412 28.0938 19.2639 28.0938 19.0975C26.7247 19.042 26.7247 18.21 26.7247 18.21V18.099H26.8388C27.6944 18.21 28.0367 17.5998 28.1508 17.378C27.9797 17.378 27.8085 17.3225 27.6944 17.267C27.5233 17.2116 27.4092 17.1006 27.2951 16.9897C27.124 16.7678 27.124 16.435 27.124 16.0468C27.124 15.9358 27.124 15.8249 27.124 15.7139H27.181V15.6585C27.2381 15.6585 27.2951 15.6585 27.3522 15.6585C27.3522 15.603 27.4092 15.5475 27.4092 15.5475C27.5233 15.4366 27.6374 15.2702 27.6374 14.6601C27.6374 14.2718 27.5803 13.9945 27.5233 13.8835C27.2381 13.9945 27.0099 14.1054 26.8388 14.2718C26.6676 14.4382 26.6106 14.6046 26.6106 14.8819C26.5535 15.1593 26.6106 15.5475 26.6106 15.5475V15.6585H26.4965C26.3254 15.6585 26.2113 15.6585 26.0401 15.603C25.9261 15.5475 25.812 15.4921 25.6979 15.3257L25.812 15.2147C25.9261 15.3257 25.9831 15.3811 26.0972 15.4366C26.1542 15.4366 26.2683 15.4366 26.3824 15.4366C26.3824 15.3257 26.3824 15.0483 26.3824 14.8265C26.4395 14.5491 26.4965 14.3273 26.6676 14.1609C26.7817 14.0499 26.9529 13.939 27.181 13.8281C27.0099 13.8281 26.8388 13.7726 26.6106 13.7726C26.3254 13.7726 26.1542 13.8281 25.9831 13.8835C25.812 13.939 25.6979 14.0499 25.6408 14.2163C25.5838 14.3273 25.4697 14.4937 25.4697 14.7155C25.4697 14.771 25.4697 14.771 25.4697 14.8265C25.4697 14.8819 25.4697 14.8819 25.4697 14.9374L25.3556 14.9929C25.3556 14.9374 25.3556 14.9374 25.2986 14.8819C25.2986 14.8265 25.2986 14.771 25.2986 14.771C25.2986 14.5491 25.3556 14.3273 25.4697 14.2163C25.5267 14.1054 25.6408 13.9945 25.7549 13.939C25.6408 13.939 25.5267 13.939 25.3556 13.939C25.1274 13.939 24.8993 13.939 24.614 13.939C24.2147 13.939 23.5872 13.9945 23.1309 13.9945C23.0168 13.9945 22.9597 13.9945 22.8457 13.9945C22.7886 13.9945 22.6745 13.9945 22.6175 13.9945C22.6175 14.1054 22.5604 14.2163 22.5604 14.2163H22.5034V14.2718C22.4463 14.2718 22.3893 14.2718 22.2752 14.2718C22.047 14.2718 21.8189 14.3273 21.6477 14.3827C21.4766 14.4382 21.3625 14.5491 21.3054 14.7155C21.3054 14.771 21.3054 14.771 21.3054 14.8265C21.3054 14.9374 21.3625 15.0483 21.4195 15.0483C21.5336 15.0483 21.5907 14.9929 21.7048 14.9929C21.8189 14.8819 21.8759 14.8265 22.047 14.8819V15.0483C21.9329 15.0483 21.8189 15.0483 21.7618 15.1038C21.7048 15.1038 21.5907 15.1593 21.4195 15.2147C21.1914 15.2702 21.0773 15.3257 21.0202 15.4366C20.9632 15.5475 20.9061 15.7139 20.9061 15.9913C20.9061 16.2686 20.9632 16.4905 21.0773 16.6014C21.1914 16.6569 21.3625 16.6569 21.6477 16.6569ZM22.7886 14.4382C22.7886 14.4382 22.8457 14.2163 22.9597 14.1609L23.0738 14.2718C23.0168 14.3273 23.0168 14.3273 22.9597 14.3827C23.6443 14.4382 23.8725 14.8819 23.8725 14.8819L23.9865 15.0483L23.8154 14.9929C23.7013 14.9929 23.3591 14.9374 23.0738 14.9374C23.0168 14.9374 22.9597 14.9374 22.9597 14.9374C22.9027 14.9374 22.9027 14.9374 22.8457 14.9374L22.7886 14.771C22.8457 14.771 22.8457 14.771 22.9027 14.771C22.8457 14.7155 22.8457 14.6046 22.8457 14.5491V14.4937H22.7886V14.4382ZM13.3763 15.4366C13.5474 15.4366 13.8897 15.3257 14.0608 15.0483C14.0037 14.8819 13.6615 14.3273 12.7488 14.6046C12.9769 14.7155 13.3192 14.9929 13.3763 15.4366ZM15.9433 15.8803C16.0574 15.9358 16.1714 15.9358 16.3996 15.9358C16.4567 15.8249 16.4567 15.603 16.3996 15.3257C16.3996 15.2147 16.3426 15.1038 16.2285 14.9929C16.1144 14.8819 16.0003 14.8265 15.7721 14.771C15.8292 14.9929 15.9433 15.3811 15.7151 15.7694C15.7721 15.8249 15.8862 15.8803 15.9433 15.8803ZM18.4532 17.2116C18.5673 17.378 18.6814 17.4889 18.8525 17.5998C19.1378 17.7662 19.48 17.8217 19.8793 17.8772C20.2216 17.9326 20.6209 17.9326 21.0202 17.9326C21.1343 17.9326 21.2484 17.9326 21.3625 17.9326C21.7618 17.9326 22.2182 17.8772 22.6745 18.1545C23.245 18.4319 23.4161 18.8201 23.4161 18.9865C23.4731 18.9865 23.5302 18.9311 23.5872 18.8201C23.6443 18.7092 23.7013 18.4873 23.7584 18.099C23.5872 18.099 23.302 18.099 23.1309 17.9326L23.0168 17.8772C22.7886 17.7108 22.6175 17.5998 22.2182 17.5998C21.99 17.5998 21.8759 17.6553 21.8189 17.6553C21.7618 17.7108 21.6477 17.7662 21.3625 17.7662C21.1914 17.7662 21.0202 17.7662 20.8491 17.7662C20.678 17.7662 20.5068 17.7108 20.3927 17.7108C20.1075 17.6553 19.8223 17.4889 19.5941 17.3225C19.5371 17.267 19.5371 17.267 19.48 17.2116C19.423 17.1561 19.423 17.1561 19.3659 17.1006C19.1948 16.9342 19.1378 16.6569 19.1378 16.3796C19.1378 16.3241 19.1378 16.2686 19.1378 16.2132C19.1378 16.1577 19.1378 16.1022 19.1948 16.0468C19.2518 15.8803 19.3659 15.7139 19.423 15.603C19.423 15.603 19.423 15.603 19.3659 15.603C19.0807 15.603 18.7955 15.7139 18.5673 15.8803C18.3391 16.0468 18.168 16.2686 18.111 16.546C18.111 16.6014 18.111 16.6014 18.111 16.6569C18.2821 16.8788 18.3391 17.0452 18.4532 17.2116ZM11.4367 17.5998C11.3797 17.8217 11.4367 18.0436 11.5508 18.3209C11.6079 18.4319 11.6649 18.5428 11.779 18.5983C11.8931 18.6537 12.0072 18.7647 12.1213 18.7647C12.4065 18.8201 12.7488 18.8201 13.1481 18.5983L13.2051 18.7647C12.8629 18.9311 12.5776 18.9865 12.2924 18.9865C12.2354 19.0975 12.1783 19.2084 12.1783 19.3748C12.1783 19.4857 12.1783 19.6521 12.2354 19.7631C12.3495 19.8185 12.6917 19.9295 12.6347 20.5951C12.6347 20.5951 12.6347 20.5951 12.6917 20.5951C12.6917 20.5951 12.7488 20.6506 12.8058 20.6506C12.8629 20.6506 12.8629 20.706 12.9199 20.706C13.091 20.7615 13.3763 20.817 13.5474 20.817C13.6615 20.817 13.7185 20.817 13.8326 20.7615C14.1178 20.706 14.289 20.5396 14.4601 20.3732C14.6312 20.2068 14.6883 19.9849 14.7453 19.874C14.7453 19.8185 14.7453 19.7631 14.7453 19.7076C14.7453 19.6521 14.7453 19.5967 14.7453 19.5967V19.5412V19.4857C14.7453 19.4303 14.6883 19.3193 14.6883 19.3193L14.7453 19.2084C14.8024 19.2639 14.8024 19.3193 14.8594 19.4303V19.4857V19.5412C14.8594 19.5967 14.8594 19.6521 14.8594 19.7076C14.8594 19.7631 14.8594 19.8185 14.8594 19.874C14.8024 19.9849 14.7453 20.1513 14.6312 20.2623C14.7453 20.3178 14.9735 20.4287 15.2017 20.5396C15.8292 20.817 16.6848 21.2052 16.913 21.7044C16.913 21.7044 16.9701 21.7044 16.9701 21.649C17.0271 21.5935 17.0842 21.5935 17.1412 21.5935C17.1412 21.5935 17.1412 21.5935 17.1982 21.5935C17.0271 21.3162 16.9701 20.9834 16.9701 20.7615C16.5708 20.6506 16.0574 20.3732 15.7151 20.0959C15.658 20.0404 15.544 19.9849 15.4869 19.9295C15.4299 19.874 15.3728 19.8185 15.3158 19.7631L15.4299 19.6521C15.4869 19.7076 15.544 19.7631 15.601 19.8185C15.658 19.874 15.7151 19.9295 15.8292 19.9849C16.1714 20.2623 16.6278 20.5396 17.0271 20.5951V20.5396V20.4842H17.0842C17.4835 20.4842 17.8828 20.4842 18.2821 20.4842C18.168 20.3732 18.111 20.2623 18.0539 20.1513C17.9969 19.9849 17.9969 19.7631 18.0539 19.5412V19.4303L18.168 19.4857C18.168 19.4857 18.5103 19.6521 19.0237 19.7076C18.8525 19.6521 18.6814 19.5967 18.5673 19.4857C18.4532 19.4303 18.3391 19.3748 18.225 19.3193C18.111 19.2639 17.9969 19.2084 17.8828 19.1529C17.4264 18.8756 16.913 18.5983 16.5137 18.2655C16.4567 18.21 16.3426 18.1545 16.2855 18.099C16.2285 18.0436 16.1714 17.9881 16.1144 17.9326L16.0574 17.8772L16.1714 17.8217C16.3996 17.6553 16.5708 17.5444 16.6848 17.378C16.7989 17.2116 16.856 17.0452 16.856 16.7678C16.856 16.546 16.7989 16.3796 16.6848 16.2132L16.6278 16.1577C16.6278 16.1577 16.5708 16.1022 16.5137 16.1022C16.5137 16.1022 16.4567 16.1022 16.4567 16.0468C16.2285 16.0468 16.0574 15.9913 15.9433 15.9358C15.8292 15.9913 15.7721 15.9913 15.658 15.9358C15.658 15.9913 15.658 16.0468 15.658 16.1022C15.658 16.3241 15.658 16.6569 15.4869 17.2116L15.3158 17.1561C15.4869 16.6569 15.4869 16.3241 15.4869 16.1022C15.4869 15.9913 15.4869 15.8803 15.4869 15.7694C15.4299 15.603 15.2587 15.4366 15.0305 15.2702C14.8594 15.1593 14.5742 15.0483 14.1749 15.1038C13.9467 15.4921 13.4333 15.5475 13.3192 15.603C13.2051 15.6585 13.091 15.7694 13.034 15.8803C13.034 15.9913 13.034 16.1022 13.034 16.3241C13.091 16.3241 13.1481 16.3796 13.2051 16.3796C13.3192 16.3796 13.4333 16.4905 13.6044 16.6014C13.7185 16.7124 13.8326 16.8788 14.0037 17.1006L13.8897 17.2116C13.7185 16.9897 13.6044 16.8233 13.4903 16.7124C13.3763 16.6014 13.3192 16.546 13.2051 16.546C13.091 16.546 13.034 16.4905 12.9199 16.4905C12.7488 16.435 12.6347 16.435 12.4065 16.3796C12.2924 16.3796 12.1783 16.3796 12.0642 16.435C11.9501 16.4905 11.8931 16.6014 11.779 16.7124C11.8931 17.267 11.5508 17.5444 11.4367 17.5998ZM26.2113 13.6616V13.2734C26.1542 13.2734 25.9831 13.2179 25.869 13.1624C25.5838 13.107 25.2986 13.107 24.9563 13.107C24.7852 13.107 24.6711 13.107 24.4429 13.107C24.3288 13.107 24.2147 13.107 24.1006 13.107C23.5872 13.107 23.0738 13.107 22.7316 13.2179H22.6745C22.6745 13.3288 22.6745 13.5507 22.6745 13.7171C22.7316 13.7171 22.7886 13.7171 22.9027 13.7171C22.9597 13.7171 23.0738 13.7171 23.1879 13.7171C23.6443 13.7171 24.2718 13.6616 24.6711 13.6616C25.0133 13.6616 25.2415 13.6616 25.4697 13.6616C25.6979 13.6616 25.869 13.6616 26.0972 13.7171C26.0972 13.7171 26.1542 13.6616 26.2113 13.6616ZM23.302 12.1086C23.302 12.275 23.3591 12.3859 23.4161 12.5523C23.4731 12.7187 23.5302 12.8296 23.5872 12.996C23.7584 12.996 23.9295 12.996 24.1006 12.996C24.2147 12.996 24.3288 12.996 24.4429 12.996V11.8867C24.2718 11.8312 23.8725 11.7758 23.7584 11.7758L23.7013 11.8312C23.6443 11.8312 23.5872 11.8867 23.5872 11.8867C23.4161 11.9422 23.302 11.9976 23.302 12.1086ZM24.3288 11.2765C24.3288 11.3875 24.2718 11.4984 24.2718 11.5539C24.2718 11.6094 24.2718 11.6648 24.2147 11.6648C24.2147 11.6648 24.7281 11.6648 24.7852 11.6648C24.7852 11.5539 24.7281 11.2765 24.7281 11.2765C24.7852 11.2765 25.0704 11.332 25.1845 11.332V10.8883C25.0704 10.8883 24.7281 10.9437 24.7281 10.9437C24.7281 10.8883 24.7852 10.5555 24.7852 10.5H24.2147C24.2147 10.6109 24.2718 10.9437 24.2718 10.9437H24.2147C24.0436 10.9437 23.8154 10.8883 23.7584 10.8883C23.7584 10.9992 23.7584 11.2765 23.7584 11.3875L24.3288 11.2765ZM22.6745 13.107C22.9027 13.0515 23.1309 13.0515 23.4161 12.996C23.4161 12.8296 23.3591 12.7187 23.302 12.6078C23.245 12.4414 23.1309 12.275 23.1309 12.1086C23.1309 11.8867 23.302 11.8312 23.4731 11.7203C23.5302 11.7203 23.5302 11.6648 23.5872 11.6648C23.5302 11.6648 23.4731 11.6094 23.4161 11.6094C23.3591 11.6094 23.3591 11.6094 23.3591 11.6094H23.302C23.245 11.6094 23.1879 11.6094 23.1309 11.6094C22.9027 11.6094 22.6745 11.7203 22.5604 11.8312C22.5604 11.8867 22.5034 11.8867 22.5034 11.9422C22.5034 11.9976 22.4463 12.0531 22.4463 12.0531C22.4463 12.1086 22.4463 12.1086 22.4463 12.164C22.3893 12.6078 22.5604 12.9406 22.6745 13.107C22.6745 13.107 22.6175 13.107 22.6745 13.107ZM25.4697 12.996C25.4697 12.8296 25.5267 12.6632 25.5838 12.4968C25.6408 12.3304 25.6979 12.2195 25.6979 11.9976C25.6979 11.9422 25.5838 11.8312 25.4127 11.7758C25.2986 11.7203 25.2415 11.6648 25.1845 11.6094H25.1274C24.9563 11.6648 24.7852 11.7203 24.557 11.7758V12.8851C24.6711 12.8851 24.7852 12.8851 24.8422 12.8851C25.1274 12.996 25.2986 12.9406 25.4697 12.996ZM25.869 11.9976C25.869 12.2195 25.812 12.3859 25.7549 12.5523C25.6979 12.6632 25.6408 12.8296 25.6408 12.996C25.7549 12.996 25.812 12.996 25.9261 13.0515C26.0401 13.0515 26.2113 13.107 26.2683 13.1624C26.3824 13.0515 26.6106 12.6078 26.6106 12.2195C26.6106 12.1086 26.6106 12.0531 26.5535 11.9976C26.4965 11.8867 26.4395 11.7758 26.3254 11.7203C26.2683 11.6094 26.1542 11.5539 26.0401 11.4984C25.9831 11.4984 25.9261 11.4984 25.869 11.4984C25.6979 11.4984 25.5267 11.5539 25.3556 11.6094C25.4127 11.6094 25.4697 11.6648 25.4697 11.6648C25.6979 11.7758 25.869 11.8312 25.869 11.9976ZM12.2924 41.7837C12.1213 41.8391 12.0072 41.8946 11.9501 41.9501C11.6079 42.172 11.722 42.5602 11.779 42.7266C11.8931 42.6712 12.0642 42.6157 12.2354 42.5602C12.4065 42.5602 12.6347 42.5602 12.8629 42.6157C13.091 42.172 12.9199 41.8391 12.9199 41.7837C12.6347 41.7282 12.4635 41.7282 12.2924 41.7837ZM27.4092 40.7298C27.7515 40.6743 28.0367 40.7853 28.0938 40.8962C28.1508 40.8407 28.3219 40.6743 28.3219 40.397C28.3219 40.2306 28.2649 40.1751 28.2649 40.1197C28.1508 40.1197 28.0367 40.1197 27.9226 40.1197C27.6374 40.1197 27.4092 40.2306 27.2381 40.3415C27.0669 40.4525 26.9529 40.6189 26.9529 40.7853V40.8407C27.0099 40.7853 27.2381 40.7853 27.4092 40.7298ZM27.0669 42.893C26.9529 43.1149 26.9529 43.3922 26.9529 43.5586C27.124 43.4477 27.5233 43.2258 27.8085 43.2258C27.9226 43.2258 28.0367 43.2813 28.1508 43.2813C28.2078 43.1149 28.2649 42.7266 27.9226 42.3938C27.8085 42.3938 27.2951 42.5048 27.0669 42.893ZM29.691 44.2243C29.5769 44.1133 29.4628 44.1133 29.4058 44.1133C29.3487 44.1133 29.3487 44.1133 29.3487 44.1133C29.2917 44.1133 29.1776 44.2243 29.0635 44.3907C29.0635 44.4461 29.0065 44.4461 29.0065 44.5016C29.0065 44.5571 28.9494 44.5571 28.9494 44.6125C28.8924 44.7789 28.8353 44.8899 28.8353 45.0563C28.8353 45.1672 28.8924 45.3336 28.9494 45.4445C29.0635 45.3336 29.2917 45.1117 29.5199 45.0008C29.691 44.9453 29.9192 44.8899 30.0333 44.8899C30.0333 44.7789 30.0333 44.668 30.0333 44.6125C29.8621 44.4461 29.748 44.3352 29.691 44.2243ZM24.4999 39.6759C24.0436 39.3986 23.245 39.0658 23.245 39.0658L23.1309 39.0103L23.1879 38.9548C23.245 38.8994 23.245 38.8439 23.302 38.7884C23.4731 38.5666 23.7013 38.2892 23.7013 37.901C23.7013 37.7346 23.7013 37.6236 23.5872 37.5127C23.5302 37.4017 23.3591 37.2908 23.1879 37.1799C23.0168 37.0689 22.7886 37.0135 22.5604 36.958C22.3323 36.9025 22.047 36.9025 21.7618 36.9025C21.1914 36.9025 20.735 36.6252 20.4498 36.2369C20.3927 36.1815 20.3357 36.0705 20.2786 35.9596C20.2216 35.8487 20.2216 35.7932 20.2216 35.6823C20.2216 35.6268 20.2216 35.5713 20.2216 35.5159C20.2216 35.1276 20.2786 34.7948 20.5639 34.5174C20.8491 34.2401 21.3625 34.0182 22.2182 33.8518C22.4463 33.7964 22.8457 33.8518 23.1309 33.8518C23.1879 33.8518 23.302 33.8518 23.3591 33.8518C23.1309 33.63 22.9027 33.3526 22.7886 33.1307C22.7316 33.0753 22.7316 32.9643 22.6745 32.9089C22.6745 32.8534 22.6175 32.7425 22.6175 32.687C22.6175 32.6315 22.6175 32.5761 22.6175 32.5206C22.6175 32.2433 22.6745 32.0214 22.7316 31.7995C22.7316 31.7441 22.7316 31.6886 22.7886 31.6886C22.7886 31.6331 22.8457 31.5777 22.8457 31.5777C22.8457 31.5222 22.9027 31.5222 22.9027 31.4667C22.9597 31.3558 23.1309 31.2449 23.1879 31.1339C23.302 31.023 23.3591 30.9675 23.3591 30.9675C23.3591 30.9675 23.3591 30.9675 23.3591 30.912C23.1309 30.8566 22.9027 30.8011 22.5604 30.8011C22.2182 30.8011 21.8189 30.8011 21.3625 30.912C21.1343 30.9675 20.9061 30.9675 20.6209 30.9675C20.3357 30.9675 20.0505 30.9675 19.8223 31.023C19.423 31.0784 19.0807 31.1894 18.7384 31.2449C18.3962 31.3558 18.111 31.4667 17.7687 31.5777C17.0842 31.9105 16.6278 32.1878 16.2855 32.5761C15.9433 32.9089 15.7721 33.2972 15.5439 33.6854C15.5439 33.7409 15.4869 33.7964 15.4299 33.8518C15.3728 33.9073 15.3158 33.9628 15.2587 34.0182C14.9165 34.2956 14.1749 34.6838 13.3192 34.8502C13.034 34.7948 12.7488 34.8502 12.5206 34.7948C12.3495 34.7948 12.1783 34.6838 12.0072 34.5729C12.0072 34.9057 12.1783 35.6823 13.1481 36.1815C13.2622 36.2369 13.3763 36.2924 13.4903 36.3479C13.6044 36.4033 13.7185 36.4033 13.8326 36.4588C14.4601 36.5697 15.1446 36.4033 15.7721 36.0705L15.8862 36.0151V36.126C15.8862 36.126 16.0003 36.6252 16.2285 36.8471C16.6848 37.2908 17.0842 37.6791 17.5976 37.9564C18.111 38.2338 18.7384 38.4556 19.6512 38.5111H19.7082V38.5666C19.7082 38.5666 19.7082 39.1767 18.8525 40.1197C18.7955 40.1751 18.7955 40.1751 18.7384 40.2306C18.6814 40.2861 18.6244 40.3415 18.5103 40.397C18.4532 40.4525 18.3391 40.5079 18.2821 40.5634C17.8828 40.7853 17.4264 40.9517 17.0271 40.9517C16.7989 40.9517 16.6278 40.8962 16.4567 40.7853C16.3426 40.6743 16.2285 40.4525 16.1714 40.1197C16.1144 39.8423 16.0574 39.6759 15.9433 39.565C15.8292 39.454 15.601 39.3986 15.3158 39.3431C15.2587 39.3431 15.2587 39.3431 15.2017 39.3431C15.1446 39.3431 15.1446 39.3431 15.0876 39.3431C14.9165 39.3431 14.8024 39.3986 14.7453 39.5095C14.6883 39.6204 14.4601 40.1197 13.8326 40.2306C13.7185 40.3415 13.6615 40.397 13.6044 40.5079C13.5474 40.5634 13.5474 40.6743 13.5474 40.7853C13.7756 40.7298 13.9467 40.7853 14.1178 40.8407C14.4031 40.8962 14.6312 41.0626 14.9165 41.3954V41.5063C14.6312 41.229 14.4031 41.0626 14.1749 41.0071C13.9467 40.9517 13.7185 40.9517 13.4333 41.0071C12.9199 41.1181 12.9769 41.6173 12.9769 41.6727C13.034 41.7282 13.2622 42.1165 12.9199 42.7266C12.9199 42.893 12.9769 43.1149 13.034 43.2813C13.1481 43.4477 13.2622 43.6141 13.3763 43.6141L13.4333 43.5586C13.4333 43.5586 13.4333 43.4477 13.4903 43.3368C13.5474 43.004 13.5474 42.5602 13.9467 42.2274C14.0037 42.172 14.0608 42.172 14.1178 42.1165C14.1749 42.061 14.2319 42.061 14.346 42.061C14.7453 41.9501 15.2017 41.9501 15.601 42.1165L15.5439 42.2829C15.1446 42.1165 14.7453 42.1165 14.4031 42.2274C14.346 42.2274 14.289 42.2829 14.2319 42.2829C14.1749 42.2829 14.1178 42.3384 14.0608 42.3938C13.7185 42.6712 13.6615 43.1149 13.6615 43.3922C13.6615 43.5032 13.6615 43.6141 13.6044 43.6696L13.6615 43.725C13.7185 43.725 13.7185 43.6696 13.7756 43.6696C13.8897 43.6141 13.9467 43.5586 14.0608 43.5586C14.1178 43.5586 14.1749 43.5586 14.2319 43.6141C14.289 43.6696 14.4031 43.725 14.4601 43.7805C14.5171 43.836 14.5742 43.9469 14.6312 44.0578C14.6312 44.1133 14.6883 44.2242 14.6883 44.3352C14.6883 44.3907 14.6883 44.4461 14.6883 44.5016V44.5571C14.6883 44.6125 14.6883 44.6125 14.6883 44.668C14.6883 44.7235 14.6883 44.7235 14.6312 44.7235C14.6312 44.7789 14.6883 44.7789 14.7453 44.8344L14.8024 44.8899C15.0305 45.0008 15.3158 45.1117 15.601 45.1117C15.658 45.1117 15.7151 45.1117 15.7721 45.1117C15.8292 45.1117 15.8862 45.1117 15.9433 45.0563C16.0003 45.0563 16.0574 45.0008 16.1144 45.0008C16.3426 44.8899 16.5708 44.668 16.7419 44.3907C16.6278 44.2243 16.5708 44.0578 16.5708 43.8914C16.5708 43.836 16.5708 43.7805 16.5708 43.725C16.5708 43.6696 16.5708 43.6696 16.5708 43.6141C16.5708 43.5586 16.5708 43.5586 16.6278 43.5032C16.6848 43.3368 16.7419 43.1704 16.856 43.1149L16.9701 43.2258C16.913 43.3368 16.7989 43.4477 16.7989 43.5586C16.7989 43.6141 16.7989 43.6141 16.7419 43.6696C16.7419 43.725 16.7419 43.725 16.7419 43.7805C16.7419 43.836 16.7419 43.8914 16.7419 43.8914C16.7419 44.0578 16.7989 44.1688 16.856 44.3352C16.9701 44.5016 17.1982 44.668 17.5405 44.8344C17.8257 45.0008 18.111 44.9453 18.3391 44.8344C18.3391 44.7789 18.3391 44.7789 18.3391 44.7235C18.3962 44.6125 18.4532 44.4461 18.5673 44.3352C18.6814 44.2242 18.8525 44.1688 19.0807 44.1688C19.1378 44.1688 19.2518 44.1688 19.3659 44.2243C19.423 44.1133 19.5371 44.0024 19.5941 43.836C19.5941 43.7805 19.5941 43.7805 19.6512 43.725C19.6512 43.6696 19.6512 43.6696 19.6512 43.6141C19.6512 43.5586 19.6512 43.5032 19.6512 43.5032C19.6512 43.3368 19.5941 43.1704 19.48 43.0594C19.3659 42.9485 19.2518 42.8376 19.1948 42.7821C19.0807 42.6712 18.5673 42.5048 18.5673 42.5048L18.3962 42.4493L18.5103 42.3384C18.8525 42.1165 19.1948 42.061 19.5371 42.1165C19.8793 42.1165 20.2216 42.2274 20.5639 42.3938C20.678 42.2829 21.0202 42.0056 21.3625 41.5063L21.4195 41.4509H21.4766C21.4766 41.4509 22.9027 41.7282 23.0168 42.7266C23.1879 42.7266 23.5872 42.7266 23.9865 42.2274C24.1577 42.061 24.1577 41.6173 24.1006 41.3399C24.1006 41.2845 24.1006 41.229 24.1006 41.229C24.1006 41.1735 24.1006 41.1735 24.1006 41.1735C23.9295 40.8962 23.5302 40.6189 23.0738 40.4525C23.0168 40.397 22.9027 40.397 22.8457 40.3415C22.7886 40.3415 22.6745 40.2861 22.6175 40.2861L22.6745 40.1197C22.7316 40.1197 22.8457 40.1751 22.9027 40.1751C22.9597 40.1751 23.0738 40.2306 23.1879 40.2861C23.6443 40.4525 24.1006 40.7853 24.2718 41.0626C24.2718 41.0626 24.2718 41.1181 24.3288 41.1735V41.229C24.4999 41.1735 24.614 41.1181 24.7281 41.0071C24.8422 40.8962 24.8993 40.7298 24.8993 40.5634C24.8993 40.3415 24.8993 40.1197 24.8422 39.9533C24.7281 39.8423 24.6711 39.7314 24.4999 39.6759ZM36.6504 41.7837C36.4223 41.6727 35.8518 41.6173 35.6807 41.6173C35.6236 41.7282 35.5666 42.0056 35.5666 42.2829C35.5666 42.3384 35.5666 42.3938 35.5666 42.3938V42.4493C35.5666 42.5048 35.6236 42.5048 35.6236 42.5602L35.6807 42.6157C35.7948 42.5602 35.9659 42.4493 36.2511 42.4493C36.5363 42.4493 36.7645 42.5048 36.8786 42.6157C36.9927 42.4493 36.9927 42.0056 36.6504 41.7837ZM36.9357 34.351C36.7645 34.351 36.5934 34.4065 36.3652 34.4065C35.3384 34.5729 35.1102 35.0166 35.1102 35.0166L34.9391 35.294V34.9612C34.9391 34.5729 34.768 34.1292 34.4257 33.8518C34.3687 33.7964 34.2546 33.7409 34.1975 33.7409C34.1405 33.6854 34.0264 33.6854 33.9123 33.6854C33.8552 33.6854 33.7982 33.6854 33.7412 33.6854C33.57 33.6854 33.2848 33.7964 32.9996 33.9628C32.9425 34.0182 32.8855 34.0737 32.8284 34.0737C32.7714 34.1292 32.7144 34.1846 32.6573 34.2401C32.6003 34.2956 32.5432 34.351 32.4862 34.4065C32.258 34.6838 32.0869 34.8502 31.8587 34.9612C31.6876 35.0721 31.4594 35.1276 31.1171 35.1276C30.6608 35.1276 30.3185 35.0166 30.0903 34.6838C29.8621 34.4065 29.691 33.9073 29.634 33.2417C29.5199 32.4097 29.4058 31.9105 29.2346 31.5222C29.0635 31.1339 28.8924 30.8011 28.5501 30.3019L28.6642 30.191C28.6642 30.191 29.4058 31.1894 31.3453 31.1894C31.9728 31.1894 32.6003 31.023 33.1707 30.7456C33.2848 30.6902 33.3989 30.6347 33.513 30.5792C33.6271 30.5238 33.7412 30.4683 33.7982 30.3574C33.8553 30.3574 33.8552 30.3019 33.9123 30.2464C34.2546 29.9691 34.5398 29.6918 34.7109 29.3035C34.9391 28.9152 35.0532 28.416 35.0532 27.8613C35.0532 27.0848 34.9961 26.9184 34.825 26.3082L34.768 26.1418C34.6539 25.5872 34.4827 25.0325 34.3116 24.4223C34.1405 23.8122 33.9693 23.2021 33.7982 22.5365C33.513 21.538 33.1707 20.5396 32.9996 19.5967C32.7714 18.6537 32.6573 17.7662 32.6573 17.0452C32.6573 16.0468 32.8284 15.7139 32.9996 15.3811V15.3257C33.1707 14.9929 33.3418 14.771 33.57 14.6601C33.7982 14.5491 34.0264 14.4937 34.3116 14.4937C34.9961 14.4937 35.3384 14.6601 35.5095 14.8265C35.6807 14.9929 35.6807 15.2702 35.6807 15.4921C35.8518 15.4921 36.08 15.4921 36.3082 15.4921C36.5363 15.4921 36.7645 15.4921 36.9927 15.4921C36.9927 15.3257 36.9927 15.2147 36.9357 15.0483C36.9357 14.9374 36.8786 14.771 36.8216 14.6601C36.6504 14.1054 36.1941 13.7171 35.6807 13.5507C35.6236 13.5507 35.5095 13.4952 35.4525 13.4952C35.3384 13.4952 35.1673 13.4398 35.0532 13.4398C34.8821 13.4398 34.768 13.4398 34.5968 13.3843C33.8552 13.3843 33.0566 13.5507 32.4862 13.939C32.0298 14.2718 31.7446 14.7155 31.5735 15.2147C31.4023 15.7139 31.3453 16.2686 31.3453 16.8788C31.3453 17.8217 31.5164 18.8201 31.7446 19.8185C31.9728 20.817 32.315 21.8708 32.6003 22.8693C32.8284 23.6458 33.0566 24.4223 33.2278 25.1989C33.2848 25.4208 33.3418 25.5872 33.3989 25.8645L33.4559 25.9754C33.6271 26.5301 33.6841 26.9184 33.6841 27.7504C33.6841 27.8613 33.6841 28.0277 33.6271 28.1387C33.513 28.8597 33.1137 29.3035 32.6003 29.5254C32.1439 29.8027 31.5735 29.8582 31.2312 29.9136C31.1742 29.9136 31.1171 29.9136 31.0601 29.9136C31.003 29.9136 30.946 29.9136 30.8889 29.9136C30.7178 29.9136 30.5467 29.8582 30.4326 29.8582C30.2614 29.8027 30.1474 29.7472 29.9762 29.6918C29.2346 29.359 28.6642 28.6933 28.2649 27.8059V27.7504C28.0367 27.1957 28.0367 26.5301 27.9797 25.92C27.9797 25.809 27.9797 25.6426 27.9226 25.5317C27.8656 25.4762 27.8085 25.4208 27.7515 25.3653C27.6374 25.2544 27.5233 25.088 27.3522 24.977C27.2381 24.8661 27.124 24.7552 26.9529 24.6997C26.3824 24.2559 25.7549 24.0895 25.3556 24.0895C24.2147 24.0895 23.0168 25.1434 23.0168 25.1434L22.9597 25.1989L22.9027 25.1434C22.9027 25.1434 22.8457 25.088 22.8457 25.0325C22.8457 24.977 22.8457 24.977 22.7886 24.9216C22.7316 24.7552 22.7316 24.5333 22.7316 24.2559C22.4463 24.2559 22.047 24.4223 21.5336 24.6442C21.4195 24.6997 21.2484 24.7552 21.0773 24.8106C20.5639 25.0325 20.0505 25.1434 19.5371 25.1989C19.423 25.1989 19.3659 25.1989 19.2518 25.1989C19.1378 25.1989 19.0807 25.1989 18.9666 25.1989C18.5103 25.4762 17.7116 25.809 16.9701 26.1418L16.856 26.1973C16.856 26.1973 16.7419 26.2528 16.6278 26.3637C16.2285 26.5856 15.544 27.0848 14.8024 27.4176L14.6883 27.4731V27.3621C14.6883 27.3621 14.7453 26.641 14.1749 26.0864C13.8326 25.7536 13.5474 25.809 13.1481 25.809C13.091 25.809 13.091 25.809 13.034 25.809C12.9199 26.3082 12.4065 26.3637 12.2924 26.3637C12.1783 26.4746 12.0642 26.5856 12.0642 26.641C12.0642 26.6965 12.0642 26.8074 12.0642 26.8629C12.1213 26.8629 12.1213 26.8629 12.1783 26.8629C12.2354 26.8629 12.2924 26.8629 12.3495 26.8629C12.4635 26.8629 12.5206 26.8629 12.6347 26.9184C12.7488 26.9184 12.8058 26.9739 12.9199 27.0293C13.3192 27.1957 13.6615 27.5285 13.7756 27.8613L13.6044 27.9168C13.7185 27.5285 13.4333 27.2512 13.034 27.0848C12.9769 27.0293 12.8629 27.0293 12.8058 26.9739C12.7488 26.9739 12.6347 26.9184 12.5206 26.9184C12.4635 26.9184 12.4065 26.9184 12.4065 26.9184C12.0642 26.9184 11.722 27.0293 11.5508 27.1957C11.4938 27.2512 11.4938 27.2512 11.4367 27.3067C11.4367 27.3621 11.3797 27.4176 11.3797 27.4731C11.3797 27.5285 11.3797 27.5285 11.3797 27.584C11.3797 27.6395 11.3797 27.6949 11.4367 27.7504C11.4367 27.8613 11.4938 27.9168 11.4938 28.0277C11.4938 28.3051 11.3797 28.4715 11.3227 28.5269V28.5824C11.3227 28.6379 11.3227 28.6379 11.3797 28.6933C11.4367 28.8597 11.5508 29.0262 11.722 29.1371C11.8931 28.9707 12.0642 28.8043 12.2924 28.7488C12.4635 28.7488 12.6347 28.6933 12.8058 28.6933V28.8597C12.6347 28.8597 12.5206 28.9152 12.3495 28.9707C12.1213 29.0816 11.9501 29.1926 11.779 29.359C11.6649 29.5254 11.6079 29.6918 11.6079 29.9136C11.6079 29.9691 11.6079 30.0246 11.6649 30.1355C11.722 30.191 11.8361 30.2464 11.9501 30.3019L12.0072 30.3574L12.0642 30.4128C12.1783 30.5792 12.1213 30.9675 12.1213 31.0784L12.1783 31.1339C12.2354 31.1894 12.2354 31.1894 12.2924 31.2449C12.3495 31.3003 12.4065 31.3003 12.4635 31.3558C12.6917 31.4667 12.9769 31.5222 13.2622 31.5222C13.3192 31.5222 13.3763 31.5222 13.3763 31.5222C13.4333 31.5222 13.5474 31.5222 13.6044 31.4667C13.6615 31.4667 13.7756 31.4113 13.8326 31.4113C14.1178 31.3003 14.346 31.0784 14.4031 30.8566C14.289 30.7456 14.2319 30.5792 14.1749 30.4683C14.1178 30.2464 14.0608 30.08 14.1178 29.8582C14.1178 29.7472 14.1749 29.6363 14.289 29.5254L14.4031 29.6363C14.346 29.6918 14.289 29.8027 14.289 29.8582C14.289 30.0246 14.289 30.191 14.346 30.3574C14.4031 30.5238 14.5171 30.6902 14.6312 30.8566C14.7453 30.9675 14.9165 31.0784 15.0305 31.0784C15.3728 31.1339 15.7151 31.0784 15.8862 30.9675C15.9433 30.9675 15.9433 30.912 16.0003 30.912C16.0574 30.912 16.0574 30.8566 16.0574 30.8566C16.0574 30.7456 16.2285 30.191 16.7419 30.1355C16.7989 30.08 16.7989 29.9691 16.856 29.8582C16.856 29.8027 16.856 29.8027 16.856 29.7472C16.856 29.6918 16.856 29.6918 16.856 29.6363C16.856 29.5808 16.856 29.5254 16.856 29.4699C16.856 29.0262 16.6848 28.6933 16.4567 28.4715C16.3996 28.416 16.3426 28.3605 16.3426 28.3605C16.2855 28.3051 16.2285 28.3051 16.2285 28.2496C16.2285 28.2496 16.1714 28.2496 16.1714 28.1941L16.2285 28.0277C16.2285 28.0277 16.2855 28.0277 16.2855 28.0832C16.3426 28.1387 16.3996 28.1387 16.4567 28.1941C16.5137 28.2496 16.5708 28.3051 16.6278 28.3605C16.7419 28.4715 16.856 28.6379 16.913 28.8043C17.3123 28.7488 17.7116 28.5824 18.0539 28.4715C18.111 28.4715 18.168 28.416 18.225 28.416H18.2821L18.3391 28.4715C18.3391 28.4715 18.9096 29.359 20.1075 29.359C20.1646 29.359 20.2216 29.359 20.2786 29.359C20.3927 29.359 20.4498 29.359 20.5639 29.359C20.678 29.359 20.735 29.3035 20.792 29.3035C21.0773 29.248 21.3625 29.1371 21.5907 28.9707C21.5336 28.9707 21.4766 28.9707 21.4766 28.9707C21.3625 28.9707 21.3054 28.9152 21.1914 28.8597C20.735 28.6933 20.3927 28.3605 20.1646 27.9723L20.3357 27.9168C20.5068 28.2496 20.8491 28.5824 21.2484 28.6933C21.3054 28.7488 21.4195 28.7488 21.5336 28.8043C21.6477 28.8043 21.7048 28.8597 21.8189 28.8597C21.8759 28.8597 21.9329 28.8597 21.9329 28.8597C22.1041 28.8597 22.2752 28.8043 22.4463 28.7488C22.6175 28.6933 22.8457 28.5824 23.0168 28.416C23.3591 28.1941 23.5302 27.9168 23.5302 27.8059C22.3893 27.8613 22.1611 27.2512 22.1611 27.2512L22.1041 27.1957L22.1611 27.1403C22.9597 26.8629 23.8154 26.641 24.6711 26.6965C24.8422 26.6965 25.0133 26.6965 25.1845 26.752C25.3556 26.752 25.5267 26.8074 25.6979 26.8629H25.7549V26.9184C25.7549 26.9184 25.9831 27.7504 27.0099 27.6949V27.8613C26.8388 27.8613 26.6676 27.8613 26.4965 27.8059C26.4965 27.8613 26.4965 27.8613 26.4965 27.9168C26.4965 28.0832 26.6106 28.1941 26.7247 28.3605C26.8388 28.4715 27.0669 28.5824 27.2951 28.6379C27.4092 28.6379 27.5804 28.6933 27.6944 28.6379V28.8043C27.5233 28.8043 27.3522 28.8043 27.2381 28.8043C27.0099 28.7488 26.7817 28.6379 26.6106 28.4715C26.4395 28.3051 26.3254 28.1387 26.3254 27.9168C26.3254 27.8613 26.3254 27.8059 26.3254 27.7504C25.812 27.5285 25.6408 27.1403 25.5838 27.0293C25.4127 26.9739 25.2986 26.9739 25.1274 26.9184C24.9563 26.9184 24.7852 26.8629 24.614 26.8629C23.8154 26.8074 23.0168 26.9739 22.2752 27.2512C22.3893 27.4176 22.7316 27.6949 23.5872 27.6395H23.7013V27.7504C23.7013 27.7504 23.6443 28.1941 23.0738 28.5824C22.9027 28.6933 22.6745 28.8043 22.5034 28.9152C22.4463 28.9152 22.3893 28.9707 22.3323 28.9707C22.4463 29.1371 22.6175 29.1926 22.9597 29.3035C23.0168 29.359 23.1309 29.359 23.245 29.4144C23.3591 29.4699 23.4731 29.5254 23.5302 29.5808C23.6443 29.6363 23.7013 29.7472 23.7584 29.8027C23.8154 29.8582 23.9295 29.9691 23.9865 30.08C24.2147 30.4128 24.3859 30.8566 24.3859 31.023C24.3859 31.0784 24.3859 31.1339 24.3859 31.1894C24.3859 31.4667 24.3288 31.7441 24.2718 32.0214C24.2147 32.4097 24.1577 32.7425 24.1577 33.0198C24.1577 33.2972 24.2147 33.519 24.3288 33.6854C24.3859 33.8518 24.4999 34.0737 24.4999 34.2956C24.557 34.6838 24.557 35.0166 24.6711 35.3494C24.7852 35.6823 24.8993 35.9596 25.0704 36.2924C25.1274 36.4033 25.2415 36.5697 25.2986 36.6807C25.6979 37.2353 25.9831 37.7346 25.9831 38.1783C25.9831 38.622 25.869 38.9548 25.812 39.0658C25.9831 39.0658 26.3254 39.0103 26.6676 38.7884C26.8958 38.6775 27.0669 38.5111 27.2951 38.2892C27.4663 38.0674 27.6374 37.8455 27.8085 37.5127C27.5803 37.3463 27.2951 37.1244 27.124 36.9025C27.0099 36.7361 26.8388 36.5697 26.7817 36.4033C26.6676 36.2369 26.6106 36.0705 26.6106 35.8487C26.6106 35.7932 26.6106 35.7377 26.6106 35.6823H26.7817C26.7817 35.7377 26.7817 35.7932 26.7817 35.8487C26.8388 36.0151 26.8958 36.1815 26.9529 36.3479C27.0669 36.5143 27.181 36.6807 27.2951 36.7916C27.9797 37.5127 29.0635 38.0674 29.8621 38.0674C30.946 38.0674 31.9728 37.5127 31.9728 37.5127L32.0298 37.4572L32.0869 37.5127C32.1439 37.5681 32.1439 37.6791 32.201 37.79C32.258 37.901 32.258 38.0119 32.258 38.1228C32.3721 38.7884 32.4291 39.6204 32.3721 40.2306C32.315 40.4525 32.258 40.6189 32.201 40.7298C32.0869 40.8407 31.9728 40.8407 31.7446 40.8407C31.4594 40.8407 31.3453 40.8407 31.2312 40.7853C31.1171 40.7298 31.0601 40.6743 31.003 40.5634C30.7178 40.1751 30.4326 39.8978 30.1474 39.7314C29.8621 39.565 29.634 39.5095 29.2917 39.5095C28.7212 39.5095 28.6072 39.7314 28.5501 39.8978C28.6072 39.9533 28.6072 40.0642 28.6072 40.2861C28.6072 40.6743 28.379 40.8962 28.2649 40.9517C28.2649 41.0071 28.2649 41.1181 28.2649 41.229C28.2649 41.3399 28.3219 41.3954 28.3219 41.5063C28.379 41.4509 28.436 41.4509 28.4931 41.3954C28.5501 41.3399 28.6642 41.2845 28.7212 41.2845H28.7783C28.8353 41.2845 28.8353 41.2845 28.8924 41.2845C29.1206 41.2845 29.4628 41.2845 29.634 41.3399L29.5769 41.5063C29.3487 41.5063 29.0065 41.5063 28.8353 41.5063C28.7783 41.5063 28.7783 41.5063 28.7212 41.5063C28.6642 41.5063 28.6642 41.5063 28.6642 41.5063C28.6072 41.5063 28.5501 41.5618 28.4931 41.5618C28.436 41.6173 28.379 41.6727 28.3219 41.6727C28.1508 41.8391 28.0938 42.061 28.0367 42.2274C28.0367 42.2274 28.0367 42.2274 28.0367 42.2829C28.4931 42.6712 28.379 43.2258 28.3219 43.3368C28.3219 43.3922 28.379 43.3922 28.379 43.4477C28.379 43.5032 28.436 43.5586 28.436 43.5586C28.5501 43.725 28.7212 43.836 28.9494 43.8914C28.9494 43.6141 28.9494 43.2813 29.1206 42.9485C29.2917 42.6712 29.4628 42.5602 29.634 42.4493C29.8621 42.3938 30.0903 42.3384 30.3755 42.3938V42.5602C30.1474 42.5048 29.9192 42.5048 29.748 42.6157C29.5769 42.6712 29.4058 42.8376 29.2917 43.0594C29.1206 43.3368 29.1206 43.725 29.1206 43.9469C29.1206 44.0024 29.1206 44.0024 29.1206 44.0578C29.1776 44.0024 29.2346 44.0024 29.2917 43.9469C29.3487 43.9469 29.3487 43.9469 29.4058 43.9469C29.5199 43.9469 29.691 44.0024 29.8051 44.1133C29.9192 44.2243 30.0333 44.3907 30.0903 44.6125C30.0903 44.7235 30.1474 44.8344 30.0903 44.9453C30.1474 44.9453 30.2044 45.0008 30.2614 45.0008C30.4896 45.1117 30.6608 45.1672 30.8319 45.2227C31.003 45.2227 31.1742 45.2227 31.4023 45.1672C31.8016 45.1117 32.1439 44.9453 32.315 44.6125C32.5432 44.3352 32.6003 43.8914 32.6573 43.2813V43.2258H32.7144C32.7144 43.2258 32.7714 43.2258 32.8855 43.2258C32.7144 43.1149 32.6573 42.9485 32.6003 42.5048L32.7714 42.4493C32.8855 43.0594 32.9425 43.0594 33.2278 43.2813L33.2848 43.3368C33.8553 43.6696 34.3116 43.7805 34.768 43.6696C34.825 43.6696 34.9391 43.6141 34.9961 43.6141C35.0532 43.6141 35.1673 43.5586 35.2243 43.5586C35.5666 43.3922 35.6236 43.1149 35.6807 42.893C35.6807 42.8376 35.6807 42.8376 35.6807 42.7821C35.6236 42.7266 35.6236 42.7266 35.5666 42.6712C35.5095 42.6157 35.5095 42.5602 35.4525 42.5048V42.4493C35.4525 42.3938 35.4525 42.3384 35.4525 42.2829C35.4525 41.9501 35.5666 41.6727 35.6236 41.5618C35.5666 41.3954 35.4525 41.229 35.3384 41.1735C35.2243 41.0626 35.0532 41.0071 34.9391 41.0071C34.4827 40.9517 34.0834 41.2845 34.0834 41.2845L33.8553 41.4509L33.9123 41.229C34.3116 39.8423 35.3384 39.6759 35.6807 39.6759C35.6236 38.8439 35.6236 37.9564 35.6236 37.9564V37.8455H35.7377C36.3082 37.901 36.7075 37.79 36.9927 37.6791C37.2779 37.5681 37.4491 37.4017 37.5631 37.1799C37.6772 36.958 37.7343 36.7916 37.7343 36.5697C37.7343 36.3479 37.6772 36.126 37.6202 35.9041C37.4491 36.0151 37.2209 36.0705 37.0497 36.0705C36.7075 36.0705 36.3652 36.126 36.08 36.1815C35.7948 36.2369 35.6236 36.2924 35.5666 36.4033L35.3955 36.3479C35.4525 36.1815 35.7377 36.0705 36.0229 36.0151C36.3082 35.9596 36.7075 35.9596 36.9927 35.9041C37.4491 35.9041 37.7913 35.6268 38.0195 35.183C38.0765 35.0721 38.0765 35.0166 38.1336 34.9057C38.1336 34.7948 38.1906 34.7393 38.1906 34.6284C38.1906 34.5729 38.1906 34.5174 38.1906 34.5174C38.1906 34.1292 38.0195 33.8518 37.9054 33.7409C37.6772 34.2956 37.5061 34.2956 36.9357 34.351ZM18.6244 27.6949C17.9969 27.9168 17.5976 28.0277 17.2553 28.0832V27.9168C17.5976 27.8613 17.9969 27.7504 18.6244 27.5285C18.8525 27.4176 19.1378 27.3621 19.48 27.2512L19.5371 27.4176C19.1378 27.5285 18.8525 27.584 18.6244 27.6949ZM24.2147 31.1339C24.2147 31.0784 24.2147 31.023 24.2147 30.9675C24.2147 30.8011 24.1006 30.4128 23.8725 30.08C23.8154 29.9691 23.7584 29.9136 23.7013 29.8582C23.6443 29.8027 23.5302 29.6918 23.4731 29.6363C23.4161 29.5808 23.302 29.5254 23.1879 29.4699C23.1309 29.4699 23.1309 29.4699 23.0738 29.4144C22.9597 29.5254 22.8457 29.6918 22.7886 29.8027L22.7316 29.9136C22.9597 30.0246 23.4731 30.4128 23.5302 30.9675C23.5302 31.0784 23.4161 31.1339 23.302 31.2449C23.1879 31.3558 23.0738 31.4667 23.0168 31.5777C23.0168 31.5777 23.0168 31.6331 22.9597 31.6331C22.9597 31.6886 22.9027 31.6886 22.9027 31.7441C22.9027 31.7995 22.9027 31.7995 22.8457 31.855C22.7886 32.0769 22.7886 32.2987 22.7886 32.5761C22.7886 32.6315 22.7886 32.687 22.7886 32.7425C22.7886 32.7979 22.7886 32.8534 22.8457 32.9089C22.8457 32.9643 22.9027 33.0198 22.9027 33.0753C23.0738 33.3526 23.302 33.6854 23.5872 33.9073C23.6443 33.9073 23.7013 33.9073 23.7584 33.9073C23.8725 33.9073 23.9865 33.9073 24.1006 33.9073C24.1006 33.8518 24.0436 33.7409 24.0436 33.6854C23.9865 33.4636 23.8725 33.2417 23.8725 32.9643C23.8725 32.6315 23.9295 32.2987 23.9865 31.9105C24.1577 31.6331 24.2147 31.3558 24.2147 31.1339ZM16.856 31.4113C16.9701 31.3003 17.0842 31.1339 17.0842 30.912C17.0842 30.8566 17.0842 30.8566 17.0842 30.8011C17.0842 30.7456 17.0842 30.7456 17.0842 30.6902C17.0271 30.5238 16.856 30.3019 16.7989 30.2464C16.3996 30.2464 16.2855 30.6347 16.2285 30.8011C16.5137 30.912 16.7419 31.2449 16.856 31.4113ZM14.8024 37.5127C15.2017 37.6791 15.658 37.7346 16.1714 37.6236C16.3426 37.5681 16.5137 37.5127 16.7419 37.4572C16.5708 37.2908 16.3996 37.1244 16.1714 36.958C15.9433 36.7361 15.8292 36.4033 15.8292 36.2369C15.2017 36.5697 14.5171 36.6807 13.8897 36.5697C13.8897 36.6252 13.9467 36.6807 13.9467 36.7361C14.1178 37.0689 14.4031 37.3463 14.8024 37.5127ZM13.6615 39.0658C13.6044 39.0658 13.5474 39.0658 13.4333 39.1212C13.3763 39.1212 13.3763 39.1767 13.3192 39.1767C13.2622 39.2322 13.1481 39.2876 13.091 39.3431C13.034 39.3431 13.034 39.3986 13.034 39.3986C13.2622 39.454 13.7756 39.6759 13.9467 40.0642C14.4031 39.9533 14.5742 39.6204 14.6312 39.5095C14.4601 39.3431 14.2319 39.2322 14.0037 39.1767C13.9467 39.1767 13.8897 39.1212 13.8326 39.1212C13.7756 39.1212 13.7185 39.1212 13.7185 39.1212C13.7185 39.0658 13.7185 39.0658 13.6615 39.0658ZM27.5233 15.6585C27.5233 15.6585 27.5233 15.7139 27.4663 15.7139H27.5233C27.8656 15.7694 28.2649 15.8803 28.6072 16.1022C28.8924 16.2686 29.0635 16.435 29.2346 16.6014C29.4058 16.7678 29.5199 16.9342 29.5769 17.2116C29.634 17.3225 29.634 17.4334 29.691 17.5444C30.8319 17.5998 30.946 16.7678 30.946 16.546C30.6037 16.4905 30.3185 16.3796 30.0333 16.2686C29.748 16.1022 29.5769 15.8803 29.3487 15.4921C29.2917 15.3257 29.0635 15.1038 28.8353 14.8819C28.7783 14.8265 28.7783 14.8265 28.7212 14.771C28.6642 14.7155 28.6642 14.7155 28.6072 14.7155C28.436 14.6601 28.3219 14.5491 28.1508 14.5491C27.9797 14.4937 27.8656 14.4937 27.6944 14.4937C27.6944 14.5491 27.6944 14.6601 27.6944 14.771C27.7515 15.3257 27.5803 15.4921 27.5233 15.6585ZM14.346 43.836C14.346 43.7805 14.289 43.725 14.2319 43.725C14.1749 43.725 14.1749 43.725 14.1178 43.725C14.0608 43.725 14.0037 43.725 13.9467 43.7805C13.8897 43.836 13.8326 43.8914 13.7756 43.9469C13.7185 44.0024 13.6615 44.0578 13.6615 44.1688C13.6044 44.2797 13.6044 44.3907 13.6044 44.5016C13.6044 44.668 13.6615 44.7789 13.7185 44.8899C13.8326 44.7789 14.1178 44.6125 14.5742 44.6125C14.5742 44.6125 14.5742 44.6125 14.5742 44.5571V44.5016C14.5742 44.5016 14.5742 44.5016 14.5742 44.4461C14.5742 44.3907 14.5742 44.3352 14.5742 44.3352C14.5742 44.2797 14.5742 44.1688 14.5171 44.1133C14.4601 44.0024 14.4031 43.9469 14.346 43.836ZM19.0807 44.3352C18.9096 44.3352 18.7384 44.3907 18.6244 44.5016C18.5103 44.5571 18.4532 44.668 18.3962 44.7789V44.8344C18.7955 45.0008 18.9096 45.3336 18.9096 45.5C19.48 45.1672 19.3089 44.5571 19.3089 44.3907C19.2518 44.3907 19.1378 44.3352 19.0807 44.3352ZM21.4195 18.7092C21.5336 18.7647 21.5907 18.8201 21.6477 18.8201C21.7048 18.8201 21.7618 18.8756 21.8759 18.8756H21.9329L21.8759 18.8201C21.8189 18.7092 21.8189 18.6537 21.8189 18.5428V18.4873C21.8189 18.3764 21.8189 18.3209 21.8189 18.2655C21.6477 18.2655 21.5907 18.2655 21.5907 18.3209V18.3764C21.4766 18.5428 21.5907 18.3764 21.5907 18.3764C21.5907 18.4319 21.5336 18.4873 21.5336 18.5428C21.4766 18.5428 21.4195 18.6537 21.4195 18.7092ZM17.1982 20.706C17.1982 20.9834 17.2553 21.9263 18.168 21.8154C18.111 21.538 18.168 21.1498 18.168 21.1498V21.0943H18.225C18.225 21.0943 18.3391 21.0943 18.6814 21.0943C19.5941 21.0943 20.2786 21.0388 20.735 20.9279C21.1914 20.817 21.5336 20.706 21.8189 20.5951C22.2182 20.3732 22.7316 20.1513 23.0168 19.9849H23.0738C22.9027 19.9295 22.7316 19.874 22.5034 19.8185C22.4463 19.8185 22.3893 19.8185 22.2752 19.7631C22.2182 19.7631 22.1611 19.7631 22.1041 19.7631C22.047 19.7631 21.9329 19.7631 21.9329 19.7631C21.8189 19.7631 21.5907 19.7631 21.3625 19.8185C21.2484 19.874 21.1343 19.9849 21.0202 20.0404C20.9061 20.0959 20.735 20.1513 20.5639 20.2623C19.7652 20.5951 18.5673 20.7615 17.1982 20.706ZM15.9433 25.809C16.2285 25.9754 16.5708 26.0309 17.0842 26.0309L17.1982 25.9754C17.8257 25.6981 18.5673 25.4208 19.0237 25.1434C18.7384 25.088 18.5103 24.8661 18.3391 24.5887C18.2821 24.5333 18.2821 24.4223 18.225 24.3669C18.225 24.3114 18.225 24.2559 18.168 24.2005C17.9398 24.2559 17.8257 24.2559 17.7687 24.2559C17.3123 24.5333 16.913 24.7552 16.5137 24.9216C16.1714 25.088 15.8292 25.1434 15.4869 25.1989C15.601 25.4208 15.7151 25.6426 15.9433 25.809ZM23.1879 24.8661C23.4731 24.6442 24.4999 23.8677 25.5267 23.8677C25.9831 23.8677 26.6106 24.0341 27.2381 24.4778C27.3522 24.5887 27.5233 24.6997 27.6374 24.8106C27.7515 24.9216 27.9226 25.0325 28.0367 25.1989C28.0938 25.2544 28.1508 25.3653 28.2078 25.4208C28.5501 25.6981 28.8353 25.8645 29.1206 25.9754C29.4058 26.0864 29.691 26.0864 29.9762 26.0864C31.1171 26.0864 31.5735 25.0325 31.6876 24.6442H31.6305C31.5735 24.6442 31.5735 24.6442 31.5164 24.6442C31.2882 24.6997 31.0601 24.6997 30.7748 24.6997C30.7178 24.6997 30.6608 24.6997 30.6037 24.6997C30.4896 24.6997 30.3755 24.6997 30.2044 24.6442C30.0903 24.6442 29.9762 24.5887 29.8051 24.5887C29.1776 24.4223 28.6072 24.0895 28.1508 23.4239L28.0938 23.3685C28.0367 23.313 27.9797 23.2575 27.8656 23.2021C27.7515 23.1466 27.6374 23.0911 27.5233 23.0357C26.9529 22.7583 26.0401 22.4255 25.4697 22.4255C24.8993 22.4255 24.3288 22.5365 24.2718 22.5365C23.7584 22.7583 23.4731 22.9802 23.302 23.2575C23.1309 23.4794 23.0738 23.7567 23.0168 24.0895C22.9597 24.4223 23.0168 24.6442 23.0738 24.8106C23.1309 24.8661 23.1879 24.8661 23.1879 24.8661ZM19.2518 25.0325C19.3089 25.0325 19.423 25.0325 19.48 25.0325C19.5941 25.0325 19.6512 25.0325 19.7652 25.0325C20.2216 24.977 20.735 24.8661 21.2484 24.6442C21.4195 24.5887 21.5336 24.5333 21.7048 24.4778C22.2182 24.2559 22.6175 24.0895 22.9597 24.0895C23.0168 23.7567 23.0738 23.4794 23.245 23.2575C23.4161 23.0357 23.6443 22.8693 24.0436 22.6474C23.7584 22.6474 23.245 22.6474 22.8457 22.7583C22.3893 22.8693 22.1611 22.9802 21.9329 23.0911C21.7048 23.2021 21.4766 23.313 21.1343 23.3685C21.0773 23.4239 20.9632 23.4794 20.8491 23.5349C20.735 23.5903 20.5639 23.6458 20.3927 23.7013C19.3659 24.0895 18.9096 24.145 18.5673 24.2005C18.5103 24.2005 18.5103 24.2005 18.4532 24.2005H18.3962C18.3962 24.2559 18.3962 24.3114 18.4532 24.3669C18.4532 24.4223 18.5103 24.4778 18.5103 24.5333C18.6244 24.8106 18.9666 25.0325 19.2518 25.0325ZM20.9632 19.9295C21.0202 19.9295 21.0202 19.874 21.0773 19.874C21.0773 19.874 21.0202 19.874 20.9632 19.9295C20.678 19.9295 20.3357 19.9295 19.9934 19.9849C19.9364 19.9849 19.9364 19.9849 19.8793 19.9849C19.8223 19.9849 19.7652 19.9849 19.7652 19.9849C19.0237 19.9849 18.3962 19.7631 18.168 19.7076C18.168 19.874 18.168 20.0404 18.168 20.1513C18.225 20.3178 18.2821 20.4287 18.4532 20.5396C19.2518 20.4842 19.9364 20.3177 20.5068 20.0959C20.678 20.0404 20.8491 19.9849 20.9632 19.9295ZM35.6236 15.603C35.5666 15.603 35.5666 15.603 35.5095 15.603C35.4525 15.603 35.3955 15.603 35.3955 15.6585C35.3384 15.6585 35.3384 15.6585 35.2814 15.7139C35.1102 15.7694 35.0532 15.9358 35.0532 16.1577C35.0532 16.2132 35.0532 16.2686 35.0532 16.3241C35.0532 16.3796 35.0532 16.3796 35.0532 16.435C35.0532 16.4905 35.0532 16.4905 35.1102 16.4905C35.1673 16.6014 35.2814 16.6569 35.3955 16.6569C35.4525 16.6569 35.5095 16.6569 35.5666 16.6569C35.6236 16.6569 35.7377 16.6569 35.7948 16.6569C36.2511 16.6569 36.9357 16.6569 37.1638 16.6014C37.2209 16.6014 37.2209 16.6014 37.2779 16.546C37.335 16.546 37.335 16.4905 37.392 16.435C37.392 16.3796 37.4491 16.3241 37.4491 16.3241C37.5061 16.2132 37.5061 16.1022 37.5061 16.0468C37.5061 15.9913 37.5061 15.9358 37.5061 15.9358C37.5061 15.8803 37.4491 15.7694 37.392 15.7139C37.335 15.6585 37.2779 15.603 37.2209 15.603C37.1638 15.603 37.1638 15.603 37.1068 15.603C36.9357 15.603 36.6504 15.603 36.3652 15.603C36.08 15.5475 35.7948 15.603 35.6236 15.603ZM10.6381 16.9897C10.9804 16.9897 11.2086 17.1561 11.4367 17.4334C11.5508 17.378 11.722 17.1561 11.6649 16.7124C11.5508 16.6569 11.0945 16.435 10.7522 16.546C10.524 16.6569 10.4099 16.8233 10.3529 16.9897C10.4099 16.9897 10.4099 16.9897 10.467 16.9897C10.467 16.9897 10.5811 16.9897 10.6381 16.9897ZM38.0195 16.9342C37.9054 16.8788 37.8484 16.8233 37.7343 16.8233C37.6202 16.7678 37.5631 16.7678 37.4491 16.7678C37.392 16.7678 37.392 16.7678 37.335 16.7678C37.2779 16.8233 37.2209 16.8233 37.1638 16.8233C36.9357 16.8233 36.2511 16.8788 35.7377 16.8788C35.6236 16.8788 35.5666 16.8788 35.4525 16.8788C35.3955 16.8788 35.2814 16.8788 35.2814 16.8788C35.1673 16.8788 35.1102 16.8233 35.0532 16.7678C34.9961 16.7678 34.9391 16.7678 34.9391 16.7678C34.8821 16.7678 34.825 16.7678 34.825 16.8233C34.5968 16.8788 34.3687 17.0452 34.1975 17.267C34.0264 17.4889 33.9123 17.7108 33.8553 17.9881C33.7982 18.3209 33.7412 18.6537 33.7412 19.1529C33.7412 19.4857 33.7982 19.8185 33.9693 20.1513C34.1405 20.4842 34.3687 20.8724 34.768 21.2607C35.1102 21.649 35.3955 21.9263 35.5095 22.2036C35.6807 22.481 35.7377 22.7583 35.7377 23.0357C35.7377 23.4239 35.5666 23.7013 35.4525 23.8677C35.7377 23.8677 35.9659 23.8122 36.137 23.7013C36.1941 23.6458 36.3082 23.5903 36.3652 23.5349C36.7075 23.2575 36.8216 22.9247 36.8216 22.7029C36.8216 22.37 36.8216 22.0927 36.7645 21.8708C36.7075 21.649 36.5934 21.4271 36.4793 21.2052C36.4223 21.1498 36.4223 21.0388 36.3652 20.9834C36.3082 20.8724 36.1941 20.7615 36.137 20.706C35.9089 20.4287 35.7377 20.1513 35.7377 19.874H35.9089C35.9089 20.0959 36.08 20.3177 36.3082 20.5951C36.3652 20.706 36.4793 20.817 36.5363 20.9279C36.5934 20.9834 36.6504 21.0943 36.6504 21.1498C36.7645 21.3716 36.8786 21.5935 36.9357 21.8154C36.9927 22.0372 37.0497 22.3146 36.9927 22.6474C37.0497 22.6474 37.1068 22.6474 37.1068 22.5919C37.1638 22.5365 37.2209 22.5365 37.2779 22.481C37.335 22.4255 37.392 22.37 37.4491 22.3146C37.6772 22.0372 37.7343 21.7044 37.7343 21.4826C37.7343 21.4271 37.7343 21.4271 37.7343 21.3716C37.6772 20.706 37.2779 20.0959 36.9357 19.6521C36.7075 19.3748 36.5934 19.1529 36.5363 18.9311L36.7075 18.8756C36.7645 19.042 36.8786 19.2639 37.1068 19.5412C37.392 19.9849 37.7913 20.4842 37.9054 21.0388C38.4188 20.6506 38.3047 20.0404 38.3047 19.6521C38.2477 19.5412 38.0195 19.0975 37.8484 18.8756C37.7913 18.8201 37.7913 18.8201 37.7343 18.7647C37.5631 18.5983 37.392 18.4319 37.2779 17.7662L37.4491 17.7108C37.5631 18.2655 37.7343 18.4319 37.8484 18.5983C37.9054 18.6537 37.9054 18.6537 37.9625 18.7092C38.1336 18.8756 38.3047 19.2639 38.4188 19.4303C38.5329 19.2639 38.647 19.0975 38.704 18.9311C38.7611 18.7092 38.8181 18.4873 38.8181 18.1545C38.8181 17.6553 38.4759 17.1561 38.0195 16.9342ZM11.3227 28.0832C11.3227 28.0277 11.3227 27.9168 11.2656 27.8613C11.2656 27.8059 11.2656 27.7504 11.2656 27.7504C11.0374 27.7504 10.1818 27.7504 10.1818 28.5269C10.2959 28.4715 10.4099 28.416 10.5811 28.416C10.7522 28.416 10.9804 28.416 11.2656 28.4715C11.2656 28.416 11.3227 28.3051 11.3227 28.0832ZM11.9501 30.4683C11.9501 30.4683 11.9501 30.4128 11.8931 30.4128L11.8361 30.3574C11.779 30.3019 11.6649 30.2464 11.6079 30.191C11.4938 30.2464 11.2086 30.3574 11.0374 30.5792C11.0374 30.6347 10.9804 30.6347 10.9804 30.6902C10.9804 30.7456 10.9804 30.7456 10.9804 30.8011C10.9804 30.9675 10.9804 31.1894 11.0374 31.3558C11.1515 31.2449 11.4367 31.023 11.9501 31.023C12.0072 30.8566 12.0072 30.5792 11.9501 30.4683ZM21.4195 16.8233C21.4195 16.8788 21.4195 16.9342 21.4195 17.0452C21.4766 17.1561 21.5336 17.3225 21.6477 17.5444C21.7048 17.5444 21.7618 17.4889 21.8189 17.4889C21.8189 17.4889 21.8189 17.4889 21.8759 17.4889V17.4334C21.8759 17.2116 21.9329 17.0452 21.99 16.8788H21.9329C21.8759 16.8788 21.7618 16.8788 21.6477 16.8788C21.5336 16.8233 21.4766 16.8233 21.4195 16.8233ZM29.9192 18.3209C29.691 18.1545 29.634 17.8772 29.5769 17.5998C29.5199 17.4889 29.5199 17.3225 29.4628 17.2116C29.3487 16.9897 29.2917 16.8233 29.1206 16.6569C29.0065 16.4905 28.7783 16.3796 28.5501 16.2132C28.2078 15.9913 27.8656 15.8803 27.5233 15.8803C27.4663 15.8803 27.4092 15.8803 27.3522 15.8803C27.2951 15.8803 27.2951 15.8803 27.2381 15.8803C27.2381 15.9913 27.2381 16.0468 27.2381 16.1577C27.2381 16.4905 27.2381 16.8788 27.4092 16.9897C27.4663 17.1006 27.5803 17.1561 27.7515 17.2116C27.8656 17.267 28.0367 17.267 28.2649 17.3225H28.379V17.4334C28.379 17.4334 28.2649 17.7662 28.0367 17.9881C28.379 18.099 28.6642 18.2655 28.8924 18.4873C29.1776 18.7092 29.3487 19.042 29.5769 19.4857C29.634 19.5412 29.634 19.6521 29.691 19.7076C30.946 19.5967 31.1171 18.8756 31.1171 18.5983C30.5467 18.5983 30.2044 18.5983 29.9192 18.3209ZM22.7886 22.481C23.4161 22.37 24.2147 22.37 24.3288 22.37C24.3859 22.37 25.0133 22.2591 25.5838 22.2591C26.2113 22.2591 27.124 22.5365 27.6944 22.8693C27.8085 22.9247 27.9226 22.9802 28.0367 23.0911C28.0938 23.1466 28.1508 23.1466 28.1508 23.2021C27.9797 22.5365 27.2381 21.8708 26.4395 21.538C26.2683 21.4271 26.0972 21.3716 25.9261 21.3162C25.7549 21.2607 25.5838 21.2052 25.4127 21.2052C25.3556 21.2052 25.2986 21.2052 25.2986 21.2052C24.6711 21.2052 23.7584 21.3716 22.9027 21.538C22.7316 21.5935 22.5604 21.649 22.3893 21.649C22.2182 21.7044 22.047 21.7599 21.8759 21.8154C21.8189 21.8154 21.7618 21.8708 21.7048 21.8708C21.4195 21.9818 21.1914 21.9818 20.9632 22.0372C20.735 22.0372 20.4498 22.0927 20.1075 22.0372C19.8223 22.0372 19.5371 22.0372 19.3659 22.0372C19.423 22.2591 19.48 22.4255 19.5371 22.5365C19.6512 22.7029 19.7652 22.7583 19.9364 22.8693C19.9934 22.9247 19.9934 22.9247 20.0505 22.9247C20.2216 23.0357 20.3357 23.1466 20.678 23.1466C21.2484 23.1466 21.5336 22.9802 21.8189 22.8138C22.1041 22.7583 22.3323 22.5919 22.7886 22.481ZM29.2917 19.5412C29.1206 19.0975 28.8924 18.8201 28.6642 18.5983C28.436 18.3764 28.1508 18.21 27.8085 18.099C27.5803 18.2655 27.2951 18.3764 26.8958 18.3764C26.9529 18.5428 27.124 18.9865 27.9797 18.9311H28.0938V19.042C28.0938 19.042 28.0367 19.5412 27.6374 19.874C27.5803 19.9295 27.5233 19.9849 27.4663 19.9849C27.5233 19.9849 27.5233 19.9849 27.5803 19.9849C27.6944 19.9849 27.8085 20.0404 27.9226 20.0959C28.4931 20.3732 29.1776 20.9834 29.4058 21.5935C29.4628 21.7599 29.5199 21.8708 29.5769 21.9818C29.748 21.9818 30.3755 21.9818 30.8319 21.649C31.1742 21.3716 31.2312 20.9834 31.2882 20.8724C30.8319 20.8724 30.4896 20.817 30.1474 20.6506C29.8051 20.3177 29.5199 20.0404 29.2917 19.5412ZM23.302 20.0959H23.245C23.1879 20.0959 23.1309 20.1513 23.0738 20.1513C22.7886 20.2623 22.2752 20.5396 21.8759 20.7615C21.5907 20.9279 21.2484 21.0388 20.735 21.0943C20.2216 21.2052 19.5941 21.2052 18.6244 21.2607C18.5103 21.2607 18.3391 21.2607 18.225 21.2607C18.225 21.4271 18.168 21.8154 18.3391 21.9818C18.3962 22.0372 18.3962 22.0927 18.4532 22.1482C18.5103 22.2591 18.5673 22.3146 18.6814 22.37C18.6814 22.37 18.7384 22.37 18.7384 22.4255C18.7384 22.4255 18.7955 22.4255 18.8525 22.481C18.9666 22.5365 19.1378 22.5365 19.3089 22.5365C19.2518 22.4255 19.1948 22.2591 19.1378 22.0372V21.9263H19.2518C19.2518 21.9263 19.5371 21.9263 20.0505 21.9263C20.3357 21.9263 20.6209 21.9263 20.8491 21.9263C21.0773 21.9263 21.3054 21.8708 21.5907 21.7599C21.6477 21.7599 21.7048 21.7044 21.7618 21.7044C21.9329 21.649 22.1041 21.5935 22.2752 21.538C22.4463 21.4826 22.6175 21.4271 22.7886 21.4271C23.6443 21.2052 24.614 21.0943 25.2415 21.0943C25.2986 21.0943 25.3556 21.0943 25.4127 21.0943C25.5838 21.0943 25.7549 21.1498 25.9261 21.2052C25.9831 21.2052 26.0972 21.2607 26.1542 21.3162C26.0401 21.1498 25.812 21.0388 25.812 21.0388C25.5838 20.4842 25.0704 20.3178 24.7281 20.2623C24.614 20.2068 24.557 20.2068 24.4999 20.1513C24.3288 20.1513 24.1577 20.1513 23.9865 20.1513C23.7013 20.0959 23.4161 20.0959 23.302 20.0959ZM12.5776 26.1418C12.6917 26.1418 13.091 26.1418 13.1481 25.6981C13.034 25.5872 12.4065 24.977 11.779 25.5317C12.0072 25.5872 12.1213 25.6981 12.2924 25.809C12.3495 25.8645 12.4635 26.0309 12.5776 26.1418ZM30.6037 22.7029C30.5467 22.7029 30.4896 22.7029 30.4326 22.7029C30.3755 22.7029 30.3185 22.7029 30.2614 22.7029C30.0333 22.6474 29.8051 22.5365 29.691 22.37C29.5199 22.2036 29.4058 21.9818 29.2917 21.649C29.0635 21.0943 28.436 20.4842 27.8656 20.2068C27.7515 20.1513 27.6374 20.0959 27.5803 20.0959C27.4663 20.0959 27.4092 20.0404 27.3522 20.0959C27.2951 20.0959 27.2951 20.1513 27.2381 20.1513C27.0669 20.2068 26.8958 20.2623 26.6106 20.2623C26.8958 20.5396 27.4663 21.0943 27.2951 21.8708C27.9226 22.3146 28.379 22.8693 28.379 23.4794C28.436 23.5903 28.4931 23.6458 28.5501 23.7013C29.0065 23.8122 29.4628 23.9231 29.8621 23.9231C30.2614 23.9231 30.6037 23.8122 30.8319 23.6458C31.2312 23.313 31.3453 22.9802 31.4023 22.7583C31.1742 22.7029 30.8889 22.7029 30.6037 22.7029ZM14.6312 24.8661C14.6883 24.9216 14.8024 24.9216 14.9165 24.977C15.0305 24.977 15.1446 25.0325 15.2587 25.0325C15.3158 25.0325 15.3728 25.0325 15.3728 25.0325C15.7151 25.0325 16.0574 24.9216 16.4567 24.7552C16.7989 24.5887 17.1982 24.4223 17.5976 24.145C17.0271 23.8122 16.9701 23.4239 16.9701 23.2021C16.6848 23.313 16.4567 23.4239 16.2285 23.5349C16.0003 23.6458 15.8292 23.7567 15.658 23.8122C15.0305 24.0341 14.346 24.0895 14.0608 24.0895C14.1178 24.3669 14.289 24.6997 14.6312 24.8661ZM12.1783 19.874C12.0072 20.0404 11.6649 20.0959 11.3797 20.0959C11.3227 20.0959 11.2656 20.0959 11.2086 20.0959C11.6079 20.817 12.2924 20.6506 12.5206 20.5951C12.5206 20.0404 12.2924 19.9295 12.1783 19.874ZM16.1714 22.4255C16.0003 22.5919 15.7721 22.7029 15.5439 22.7583C15.3158 22.8138 15.1446 22.8138 14.9735 22.8693C14.8024 22.8693 14.5171 22.8693 14.346 22.8693C14.346 23.0911 14.5171 23.5903 15.2017 23.8122C15.3158 23.7567 15.4869 23.7567 15.601 23.7013C15.7151 23.6458 15.9433 23.5349 16.1144 23.4239C16.3426 23.313 16.6848 23.1466 16.9701 23.0357V22.9802H17.0271C17.0842 22.9247 17.1982 22.8693 17.2553 22.8138C17.3694 22.7583 17.4835 22.7029 17.5976 22.6474C17.7116 22.5919 17.8828 22.5365 17.9969 22.481C18.168 22.4255 18.3391 22.37 18.4532 22.3146C18.3962 22.2591 18.3962 22.2036 18.3391 22.2036C18.2821 22.1482 18.2821 22.0927 18.225 22.0927C18.225 22.0372 18.168 22.0372 18.168 21.9818C17.7687 22.0372 17.4835 21.9263 17.3123 21.7599C17.3123 21.7599 17.2553 21.7599 17.1982 21.7599C17.1412 21.7599 17.0842 21.8154 17.0271 21.8154C16.7989 22.0372 16.3426 22.2591 16.1714 22.4255ZM18.5103 22.7029C18.6244 22.6474 18.7384 22.5919 18.7955 22.5919C18.7384 22.5919 18.7384 22.5919 18.6814 22.5365C18.6814 22.5365 18.6244 22.5365 18.6244 22.481C18.5103 22.481 18.2821 22.5365 18.0539 22.6474C17.9398 22.7029 17.8257 22.7583 17.6546 22.8138C17.5405 22.8693 17.4264 22.9247 17.3123 22.9802C17.2553 22.9802 17.2553 23.0357 17.2553 23.0357C17.3123 23.0357 17.3694 23.0357 17.4264 23.0357C17.8257 23.0357 18.225 22.8693 18.5103 22.7029ZM17.7687 24.0895C17.8257 24.0895 17.9398 24.0895 18.3391 24.0341H18.4532C18.7955 23.9786 19.2518 23.9231 20.2786 23.5349C20.4498 23.4794 20.6209 23.4239 20.735 23.3685H20.792C20.735 23.3685 20.735 23.3685 20.678 23.3685C20.2786 23.3685 20.1646 23.2575 19.9364 23.1466C19.8793 23.1466 19.8793 23.0911 19.8223 23.0911C19.6512 22.9802 19.48 22.8693 19.3659 22.7029C19.3089 22.7029 19.2518 22.7029 19.1378 22.7029C19.1378 22.7029 19.1378 22.7029 19.0807 22.7029C18.9666 22.7029 18.7384 22.8138 18.5103 22.9247C18.168 23.0911 17.7687 23.2575 17.3694 23.2575C17.2553 23.2575 17.0842 23.2575 17.0271 23.2575C17.0842 23.3685 17.1412 23.8122 17.7687 24.0895Z" fill="white"/>
<path d="M57.676 21.8165L57.424 23.5805H52.834V27.0545H56.83V28.8185H52.834V32.4725H57.748V34.2545H50.458V21.8165H57.676ZM64.7964 21.5465C65.6124 21.5465 66.3324 21.6725 66.9564 21.9245C67.5924 22.1645 68.1924 22.5245 68.7564 23.0045L67.4784 24.3365C67.0344 23.9885 66.6144 23.7365 66.2184 23.5805C65.8344 23.4245 65.3844 23.3465 64.8684 23.3465C63.9084 23.3465 63.1224 23.7305 62.5104 24.4985C61.8984 25.2665 61.5924 26.4425 61.5924 28.0265C61.5924 29.6825 61.8324 30.8765 62.3124 31.6085C62.8044 32.3405 63.5484 32.7065 64.5444 32.7065C65.3004 32.7065 65.9604 32.5445 66.5244 32.2205V28.9805H64.6524L64.4004 27.2165H68.8644V33.3005C67.5204 34.1165 66.0924 34.5245 64.5804 34.5245C62.8044 34.5245 61.4424 33.9725 60.4944 32.8685C59.5584 31.7645 59.0904 30.1505 59.0904 28.0265C59.0904 26.6705 59.3424 25.5065 59.8464 24.5345C60.3624 23.5505 61.0524 22.8065 61.9164 22.3025C62.7804 21.7985 63.7404 21.5465 64.7964 21.5465ZM76.0229 21.5465C77.1389 21.5465 78.1049 21.7985 78.9209 22.3025C79.7369 22.8065 80.3609 23.5445 80.7929 24.5165C81.2369 25.4885 81.4589 26.6585 81.4589 28.0265C81.4589 29.3825 81.2369 30.5465 80.7929 31.5185C80.3489 32.4905 79.7189 33.2345 78.9029 33.7505C78.0869 34.2665 77.1269 34.5245 76.0229 34.5245C74.9069 34.5245 73.9409 34.2725 73.1249 33.7685C72.3089 33.2645 71.6789 32.5265 71.2349 31.5545C70.7909 30.5825 70.5689 29.4125 70.5689 28.0445C70.5689 26.7005 70.7909 25.5425 71.2349 24.5705C71.6789 23.5865 72.3089 22.8365 73.1249 22.3205C73.9529 21.8045 74.9189 21.5465 76.0229 21.5465ZM76.0229 23.3645C75.0629 23.3645 74.3309 23.7425 73.8269 24.4985C73.3229 25.2425 73.0709 26.4245 73.0709 28.0445C73.0709 31.1525 74.0549 32.7065 76.0229 32.7065C76.9829 32.7065 77.7089 32.3345 78.2009 31.5905C78.7049 30.8465 78.9569 29.6585 78.9569 28.0265C78.9569 26.4065 78.7049 25.2245 78.2009 24.4805C77.7089 23.7365 76.9829 23.3645 76.0229 23.3645ZM92.3763 21.8165L88.6863 34.2545H85.8603L82.0623 21.8165H84.6183L87.3183 32.1485L89.9463 21.8165H92.3763ZM93.558 31.6085C93.966 31.6085 94.314 31.7525 94.602 32.0405C94.89 32.3165 95.034 32.6585 95.034 33.0665C95.034 33.4625 94.89 33.8045 94.602 34.0925C94.314 34.3805 93.966 34.5245 93.558 34.5245C93.162 34.5245 92.82 34.3805 92.532 34.0925C92.256 33.8045 92.118 33.4625 92.118 33.0665C92.118 32.6585 92.256 32.3165 92.532 32.0405C92.808 31.7525 93.15 31.6085 93.558 31.6085ZM103.3 27.6665C104.152 27.8225 104.836 28.1285 105.352 28.5845C105.88 29.0405 106.144 29.7365 106.144 30.6725C106.144 31.9685 105.688 32.8925 104.776 33.4445C103.864 33.9845 102.586 34.2545 100.942 34.2545H97.1982V21.8165H100.456C103.888 21.8165 105.604 22.8725 105.604 24.9845C105.604 25.7165 105.382 26.3165 104.938 26.7845C104.494 27.2405 103.948 27.5345 103.3 27.6665ZM99.5742 23.5625V26.9285H101.032C101.692 26.9285 102.214 26.7845 102.598 26.4965C102.982 26.1965 103.174 25.7585 103.174 25.1825C103.174 24.5825 102.97 24.1625 102.562 23.9225C102.166 23.6825 101.542 23.5625 100.69 23.5625H99.5742ZM100.96 32.4725C101.836 32.4725 102.502 32.3405 102.958 32.0765C103.426 31.8125 103.66 31.3145 103.66 30.5825C103.66 29.8745 103.438 29.3645 102.994 29.0525C102.562 28.7405 101.968 28.5845 101.212 28.5845H99.5742V32.4725H100.96ZM113.259 21.5465C114.075 21.5465 114.795 21.6725 115.419 21.9245C116.055 22.1645 116.655 22.5245 117.219 23.0045L115.941 24.3365C115.497 23.9885 115.077 23.7365 114.681 23.5805C114.297 23.4245 113.847 23.3465 113.331 23.3465C112.371 23.3465 111.585 23.7305 110.973 24.4985C110.361 25.2665 110.055 26.4425 110.055 28.0265C110.055 29.6825 110.295 30.8765 110.775 31.6085C111.267 32.3405 112.011 32.7065 113.007 32.7065C113.763 32.7065 114.423 32.5445 114.987 32.2205V28.9805H113.115L112.863 27.2165H117.327V33.3005C115.983 34.1165 114.555 34.5245 113.043 34.5245C111.267 34.5245 109.905 33.9725 108.957 32.8685C108.021 31.7645 107.553 30.1505 107.553 28.0265C107.553 26.6705 107.805 25.5065 108.309 24.5345C108.825 23.5505 109.515 22.8065 110.379 22.3025C111.243 21.7985 112.203 21.5465 113.259 21.5465Z" fill="white"/>
</svg>
