<svg width="55" height="50" viewBox="0 0 55 50" fill="none" xmlns="http://www.w3.org/2000/svg">
<g clip-path="url(#clip0)">
<path d="M43 2.5H38V1.5H17V2.5H12L1 25.5V29.5H54V25.5L43 2.5Z" fill="white"/>
<path d="M1 26.5V24.5L12 2.5H14" stroke="#2A5082" stroke-width="2" stroke-miterlimit="10"/>
<path d="M54 26.5V24.5L43 2.5H41" stroke="#2A5082" stroke-width="2" stroke-miterlimit="10"/>
<path d="M38 26.5L35 29.5H20L17 26.5H1V48.5H54V26.5H38Z" fill="#A3D4FF" stroke="#2A5082" stroke-width="2" stroke-miterlimit="10"/>
<path d="M8 24.5V19.5H47V24.5" stroke="#2A5082" stroke-width="2" stroke-miterlimit="10"/>
<path d="M11 17.5V13.5H44V17.5" stroke="#2A5082" stroke-width="2" stroke-miterlimit="10"/>
<path d="M14 11.5V7.5H41V11.5" stroke="#2A5082" stroke-width="2" stroke-miterlimit="10"/>
<path d="M17 5.5V1.5H38V5.5" stroke="#2A5082" stroke-width="2" stroke-miterlimit="10"/>
<path d="M31 41.5H24C22.9 41.5 22 40.6 22 39.5V35.5H33V39.5C33 40.6 32.1 41.5 31 41.5Z" fill="white" stroke="#2A5082" stroke-width="2" stroke-miterlimit="10"/>
</g>
<defs>
<clipPath id="clip0">
<rect width="55" height="49" fill="white" transform="translate(0 0.5)"/>
</clipPath>
</defs>
</svg>
