<svg width="64" height="50" viewBox="0 0 64 50" fill="none" xmlns="http://www.w3.org/2000/svg">
<path d="M58 7V3H40C34.55 3 32 6.64 32 11C32 6.64 29.45 3 24 3H6V7H1V46H24L27 49H37L40 46H63V7H58Z" fill="white"/>
<path d="M1 7V46H24L27 49H37L40 46H63V32" stroke="#01497C" stroke-width="2" stroke-linecap="round" stroke-linejoin="round"/>
<path d="M12 3H6V41H24C25.156 41.0444 26.2892 41.335 27.3239 41.8523C28.3585 42.3697 29.2709 43.1019 30 44H32V11C32 6.64 29.45 3 24 3H20" stroke="#01497C" stroke-width="2" stroke-linejoin="round"/>
<path d="M58 37V41H40C38.844 41.0444 37.7108 41.335 36.6761 41.8523C35.6415 42.3697 34.7291 43.1019 34 44H32V11C32 6.64 34.55 3 40 3H58V7" stroke="#01497C" stroke-width="2" stroke-linecap="round" stroke-linejoin="round"/>
<path d="M12 17L16 14L20 17V1H12V17Z" fill="#A9D6E5" stroke="#01497C" stroke-width="2" stroke-linejoin="round"/>
<path d="M61.9998 21.88V19.12C61.9998 18.61 61.5898 18 61.0798 18H59.6299C59.4433 18.0167 59.2564 17.972 59.0975 17.8727C58.9387 17.7734 58.8166 17.625 58.7498 17.45C58.6586 17.1874 58.5448 16.9331 58.4099 16.69C58.3193 16.5195 58.286 16.3244 58.3148 16.1336C58.3436 15.9427 58.433 15.7662 58.5699 15.63L59.5699 14.63C59.6548 14.5454 59.7222 14.4449 59.7682 14.3343C59.8142 14.2236 59.8379 14.1049 59.8379 13.985C59.8379 13.8651 59.8142 13.7464 59.7682 13.6357C59.7222 13.5251 59.6548 13.4246 59.5699 13.34L57.6198 11.39C57.4457 11.2172 57.2102 11.1202 56.9648 11.1202C56.7195 11.1202 56.484 11.2172 56.3098 11.39L55.3098 12.39C55.1708 12.5253 54.9934 12.6142 54.8018 12.6447C54.6102 12.6751 54.4139 12.6455 54.2398 12.56C54.0155 12.4319 53.7815 12.3215 53.5399 12.23C53.3667 12.1615 53.2205 12.0388 53.1231 11.8801C53.0257 11.7214 52.9825 11.5354 52.9998 11.35V9.92001C52.9998 9.41001 52.3899 9 51.8799 9H49.1198C48.6098 9 47.9998 9.41001 47.9998 9.92001V11.35C48.0156 11.5351 47.9717 11.7204 47.8745 11.8788C47.7773 12.0371 47.632 12.1602 47.4598 12.23C47.2038 12.322 46.9534 12.4288 46.7098 12.55C46.547 12.6296 46.3635 12.6569 46.1845 12.6283C46.0056 12.5996 45.8397 12.5164 45.7098 12.39L44.7098 11.34C44.6253 11.255 44.5248 11.1876 44.4141 11.1416C44.3034 11.0956 44.1847 11.0719 44.0648 11.0719C43.945 11.0719 43.8263 11.0956 43.7156 11.1416C43.6049 11.1876 43.5044 11.255 43.4199 11.34L41.4698 13.34C41.3849 13.4246 41.3175 13.5251 41.2715 13.6357C41.2255 13.7464 41.2018 13.8651 41.2018 13.985C41.2018 14.1049 41.2255 14.2236 41.2715 14.3343C41.3175 14.4449 41.3849 14.5454 41.4698 14.63L42.5198 15.69C42.657 15.8302 42.7463 16.0101 42.775 16.204C42.8037 16.398 42.7704 16.5961 42.6798 16.77C42.5467 17.0001 42.433 17.241 42.3398 17.49C42.2731 17.665 42.151 17.8134 41.9922 17.9127C41.8333 18.012 41.6464 18.0567 41.4598 18.04H40.0099C39.4999 18.04 39.0898 18.65 39.0898 19.16V21.92C39.0898 22.43 39.4999 23.04 40.0099 23.04H41.4598C41.6467 23.0216 41.8343 23.0656 41.9935 23.1651C42.1527 23.2646 42.2745 23.414 42.3398 23.59C42.4289 23.8407 42.5428 24.0819 42.6798 24.31C42.77 24.4796 42.8021 24.674 42.7715 24.8636C42.7408 25.0532 42.6489 25.2275 42.5099 25.36L41.5099 26.36C41.4234 26.4447 41.3547 26.5459 41.3078 26.6575C41.2609 26.7691 41.2367 26.8889 41.2367 27.01C41.2367 27.1311 41.2609 27.2509 41.3078 27.3625C41.3547 27.4741 41.4234 27.5753 41.5099 27.66L43.4499 29.6C43.6223 29.7722 43.8561 29.8689 44.0999 29.8689C44.3436 29.8689 44.5774 29.7722 44.7498 29.6L45.7998 28.55C45.94 28.4163 46.118 28.3293 46.3095 28.3006C46.501 28.272 46.6967 28.3032 46.8698 28.39C47.0964 28.5109 47.3302 28.6177 47.5699 28.71C47.742 28.7798 47.8873 28.9029 47.9845 29.0612C48.0817 29.2196 48.1256 29.4049 48.1098 29.59V31.12C48.1098 31.63 48.7199 32.04 49.2299 32.04H51.9898C52.4998 32.04 53.1098 31.63 53.1098 31.12V29.59C53.0925 29.4046 53.1357 29.2186 53.2331 29.0599C53.3305 28.9013 53.4767 28.7785 53.6498 28.71C53.9052 28.6206 54.1527 28.5102 54.3899 28.38C54.5606 28.2946 54.7538 28.2651 54.9423 28.2956C55.1307 28.3261 55.3048 28.4151 55.4398 28.55L56.4398 29.6C56.5244 29.685 56.6249 29.7524 56.7356 29.7984C56.8463 29.8444 56.965 29.8681 57.0848 29.8681C57.2047 29.8681 57.3234 29.8444 57.4341 29.7984C57.5448 29.7524 57.6453 29.685 57.7299 29.6L59.6798 27.65C59.8527 27.4758 59.9496 27.2404 59.9496 26.995C59.9496 26.7496 59.8527 26.5142 59.6798 26.34L58.6798 25.34C58.5411 25.201 58.4499 25.0216 58.4194 24.8276C58.3888 24.6336 58.4205 24.4349 58.5099 24.26C58.6449 24.0484 58.7588 23.824 58.8499 23.59C58.9152 23.414 59.037 23.2646 59.1962 23.1651C59.3554 23.0656 59.543 23.0216 59.7299 23.04H61.1798C61.5898 23 61.9998 22.39 61.9998 21.88Z" fill="#A9D6E5" stroke="#01497C" stroke-width="2" stroke-miterlimit="10"/>
<path d="M50.5 24C52.433 24 54 22.433 54 20.5C54 18.567 52.433 17 50.5 17C48.567 17 47 18.567 47 20.5C47 22.433 48.567 24 50.5 24Z" fill="white" stroke="#01497C" stroke-width="2" stroke-linejoin="round"/>
</svg>
