<svg width="54" height="64" viewBox="0 0 54 64" fill="none" xmlns="http://www.w3.org/2000/svg">
<path d="M19 2.99979H5V4.99979H1V37.9998H18C18.4732 37.9883 18.944 38.0708 19.3852 38.2424C19.8263 38.4141 20.229 38.6715 20.57 38.9998C20.8792 39.3316 21.2564 39.5927 21.6758 39.7653C22.0951 39.9379 22.5468 40.0179 23 39.9998H26V9.99979C26.0177 9.07568 25.8487 8.15752 25.5031 7.30027C25.1576 6.44301 24.6426 5.66428 23.9891 5.01071C23.3355 4.35715 22.5568 3.84218 21.6995 3.49665C20.8423 3.15111 19.9241 2.98213 19 2.99979Z" fill="white"/>
<path d="M32.9998 2.99979H46.9998V4.99979H50.9998V37.9998H33.9998C33.5266 37.9883 33.0558 38.0708 32.6146 38.2424C32.1735 38.4141 31.7708 38.6715 31.4298 38.9998C31.1206 39.3316 30.7434 39.5927 30.324 39.7653C29.9046 39.9379 29.4529 40.0179 28.9998 39.9998H25.9998V9.99979C25.9821 9.07568 26.1511 8.15752 26.4966 7.30027C26.8422 6.44301 27.3572 5.66428 28.0107 5.01071C28.6643 4.35715 29.443 3.84218 30.3003 3.49665C31.1575 3.15111 32.0757 2.98213 32.9998 2.99979Z" fill="white"/>
<path d="M51 34V5" stroke="#01497C" stroke-width="2" stroke-miterlimit="10" stroke-linecap="round"/>
<path d="M1 5V38H18C18.4732 37.9885 18.944 38.071 19.3852 38.2426C19.8263 38.4143 20.229 38.6717 20.57 39V39C20.8792 39.3318 21.2564 39.5929 21.6758 39.7655C22.0951 39.9381 22.5468 40.0181 23 40H25" stroke="#01497C" stroke-width="2" stroke-linecap="round" stroke-linejoin="round"/>
<path d="M10 2.99979H5V33.9998H21C23.11 33.9998 23.18 34.9098 24 35.9998H26V9.99979C26.0177 9.07568 25.8487 8.15752 25.5031 7.30027C25.1576 6.44301 24.6426 5.66428 23.9891 5.01071C23.3355 4.35715 22.5568 3.84218 21.6995 3.49665C20.8423 3.15111 19.9241 2.98213 19 2.99979H16" stroke="#01497C" stroke-width="2" stroke-linejoin="round"/>
<path d="M27.9998 35.9998H25.9998V9.99979C25.9821 9.07568 26.1511 8.15752 26.4966 7.30027C26.8422 6.44301 27.3572 5.66428 28.0107 5.01071C28.6643 4.35715 29.443 3.84218 30.3003 3.49665C31.1575 3.15111 32.0757 2.98213 32.9998 2.99979H46.9998V30.9998" stroke="#01497C" stroke-width="2" stroke-linecap="round" stroke-linejoin="round"/>
<path d="M10 15L12.96 12.96L16 15V1H10V15Z" fill="#A9D6E5" stroke="#01497C" stroke-width="2" stroke-linejoin="round"/>
<path d="M51 38.0001H49C48.9757 37.4775 48.7571 36.9828 48.3872 36.6129C48.0173 36.243 47.5226 36.0245 47 36.0001H45C44.7578 35.6998 44.4539 35.455 44.1088 35.2825C43.7637 35.1099 43.3856 35.0136 43 35.0001H41V28.1101C41.012 27.6236 40.8521 27.1484 40.5486 26.768C40.245 26.3876 39.8171 26.1264 39.34 26.0301C39.0504 25.9801 38.7533 25.9946 38.4699 26.0725C38.1865 26.1503 37.9238 26.2897 37.7003 26.4806C37.4769 26.6716 37.2984 26.9094 37.1773 27.1772C37.0563 27.4451 36.9957 27.7363 37 28.0301V43.0301C36.8375 43.1857 36.6428 43.3035 36.4296 43.3752C36.2164 43.4468 35.99 43.4706 35.7666 43.4449C35.5431 43.4191 35.3281 43.3444 35.1369 43.226C34.9456 43.1077 34.7828 42.9486 34.66 42.7601L33.05 40.2601C31.45 38.0601 29 39.2601 29 40.2601C29 40.2601 32 49.9401 32.47 50.6201C33.17 51.7201 36 54.1701 36 55.0301V59.0301H51V56.0301C51 54.6801 53 53.0301 53 51.0301V40.0001C52.9757 39.4775 52.7571 38.9828 52.3872 38.6129C52.0173 38.243 51.5226 38.0245 51 38.0001Z" fill="white"/>
<path d="M41 35H43C43.3856 35.0135 43.7637 35.1098 44.1088 35.2823C44.4539 35.4549 44.7578 35.6996 45 36H47C47.5226 36.0243 48.0173 36.2429 48.3872 36.6128C48.7571 36.9827 48.9757 37.4774 49 38H51C51.5226 38.0243 52.0173 38.2429 52.3872 38.6128C52.7571 38.9827 52.9757 39.4774 53 40V51C53 53 51 54.65 51 56V59" stroke="#01497C" stroke-width="2" stroke-miterlimit="10"/>
<path d="M36 59V55C36 54.14 33.17 51.69 32.47 50.59C32.03 49.91 29 40.23 29 40.23C29 39.23 31.45 38.03 33.05 40.23L34.66 42.73C34.7828 42.9185 34.9456 43.0775 35.1369 43.1959C35.3281 43.3142 35.5431 43.389 35.7666 43.4147C35.99 43.4405 36.2164 43.4167 36.4296 43.345C36.6428 43.2733 36.8375 43.1555 37 43V43V28C37 27.4696 37.2107 26.9609 37.5858 26.5858C37.9609 26.2107 38.4696 26 39 26C39.5304 26 40.0391 26.2107 40.4142 26.5858C40.7893 26.9609 41 27.4696 41 28V41" stroke="#01497C" stroke-width="2" stroke-miterlimit="10"/>
<path d="M45 36V41" stroke="#01497C" stroke-width="2" stroke-miterlimit="10"/>
<path d="M49 38V42" stroke="#01497C" stroke-width="2" stroke-miterlimit="10"/>
<path d="M53 58H34V63H53V58Z" fill="#A9D6E5" stroke="#01497C" stroke-width="2" stroke-miterlimit="10"/>
</svg>
